<svg xmlns="http://www.w3.org/2000/svg" version="1.1" xmlns:xlink="http://www.w3.org/1999/xlink" xmlns:svgjs="http://svgjs.com/svgjs" width="1440" height="560" preserveAspectRatio="none" viewBox="0 0 1440 560"><g mask="url(&quot;#SvgjsMask1000&quot;)" fill="none"><path d="M199.5 0C235.42 49.74 226.64 68.72 241.11 140C255.06 208.72 241.08 213.09 256.34 280C260.53 298.36 263.34 310.55 280 310.55C324.58 310.55 334.54 303.5 378.82 280C404.54 266.35 393.72 249.12 420 236.25C484.31 204.75 488.5 206.73 560 191.27C628.5 176.46 633.31 193.03 700 175.71C732 167.4 757.38 159.67 757.38 140C757.38 118.48 733.87 104.9 700 93.33C635.18 71.19 628.8 67.13 560 72.59C488.8 78.24 478.38 133.43 420 115.56C359.84 97.14 322.93 35.16 322.93 0C322.93 -22.62 371.47 0 420 0C490 0 490 0 560 0C630 0 630 0 700 0C770 0 770 0 840 0C910 0 910 0 980 0C1050 0 1050 0 1120 0C1190 0 1190 0 1260 0C1299.83 0 1304.37 -12.6 1339.66 0C1374.37 12.4 1364.25 44.35 1400 50C1464.42 60.18 1500.39 6.21 1540 31.67C1570.39 51.21 1540 85.84 1540 140C1540 210 1540 210 1540 280C1540 350 1540 350 1540 420C1540 490 1571.47 521.47 1540 560C1514.3 591.47 1451 591.47 1425.67 560C1394.66 521.47 1424.67 489.93 1427.32 420C1429.98 349.93 1446.41 344.12 1436.3 280C1432.75 257.51 1419 262.4 1400 246.78C1333.83 192.4 1332.11 194.23 1265.96 140C1262.11 136.84 1263.65 132 1260 132C1254.83 132 1249.84 133.28 1248.33 140C1233.26 207.28 1222.27 217.04 1226.84 280C1228.1 297.37 1245.58 287.59 1260 300.66C1322.82 357.59 1356.82 349.63 1381.33 420C1401.98 479.3 1387.54 517.05 1350.32 560C1326.88 587.05 1305.16 560 1260 560C1229.57 560 1226.45 570.29 1199.13 560C1156.45 543.92 1155.26 507.25 1120 507.25C1095.25 507.25 1107.27 549.38 1079.1 560C1037.27 575.76 1029.55 560 980 560C910 560 910 560 840 560C783.77 560 779.64 570.09 727.54 560C709.64 556.54 718.05 537.27 700 532.9C634.28 516.98 624.05 509.78 560 519.42C534.05 523.33 545.41 552.64 520 560C475.41 572.93 470 560 420 560C372.06 560 365.63 574.47 324.11 560C295.63 550.07 301.28 511.21 280 511.21C259.83 511.21 267.88 550.7 241.2 560C197.88 575.1 190.6 560 140 560C70 560 35 595 0 560C-35 525 0 490 0 420C0 350 0 350 0 280C0 210 0 210 0 140C0 70 -35 35 0 0C35 -35 70 0 140 0C169.75 0 184.87 -20.26 199.5 0" stroke="rgba(229, 171, 113, 1)" stroke-width="2"></path><path d="M420 330C408.47 330 395.77 378.65 395.77 420C395.77 434.33 408.18 441.36 420 441.36C431.15 441.36 441.72 433.78 441.72 420C441.72 378.1 431.45 330 420 330" stroke="rgba(229, 171, 113, 1)" stroke-width="2"></path><path d="M0 43.75C43.87 38.87 74.55 80.66 140 124.44C146.5 128.79 140.72 132.65 143.89 140C174.24 210.43 168.71 214.06 207.04 280C236.77 331.15 241.08 329.3 280 374.18C301.79 399.3 328.46 398.18 328.46 420C328.46 440.18 300.82 435.66 280 458.18C236.11 505.66 247.19 524.98 199.04 560C177.19 575.89 169.52 560 140 560C70 560 35.92 594.08 0 560C-34.08 527.67 -2.73 492.62 0 427.18C0.19 422.62 4.22 424.32 5.83 420C31.72 350.73 56.96 342.8 55 280C54.05 249.47 11.99 263.85 0 233.33C-15.51 193.85 0 186.67 0 140C0 91.88 -26.13 46.65 0 43.75" stroke="rgba(229, 171, 113, 1)" stroke-width="2"></path><path d="M420 60C387.25 58.66 369.6 18.26 369.6 0C369.6 -11.74 394.8 0 420 0C490 0 490 0 560 0C630 0 630 0 700 0C770 0 770 0 840 0C910 0 910 0 980 0C1050 0 1050 0 1120 0C1190 0 1190 0 1260 0C1269.65 0 1279.31 -5.45 1279.31 0C1279.31 10.55 1274.35 20.41 1260 32C1194.69 84.74 1194.11 90.54 1120 128.65C1089.11 144.54 1050 124.49 1050 140C1050 160.16 1097.49 162.81 1120 200C1139.86 232.81 1109.87 251.92 1134.74 280C1179.87 330.94 1201.12 314.25 1260 358.03C1295.25 384.25 1323 384.19 1323 420C1323 474.24 1305.92 529.87 1260 538.13C1204.42 548.13 1180.9 450.47 1120 456.52C1070.79 461.41 1087.84 524.48 1039.78 560C1017.84 576.22 1009.89 560 980 560C910 560 910 560 840 560C812.46 560 807.05 573.21 784.92 560C737.05 531.43 751.66 497.42 700 476.45C639.2 451.77 624.27 487.03 560 468.7C525.31 458.81 514.32 453.03 502.07 420C479.32 358.68 471.57 337.08 490 280C500.54 247.36 522.23 252.89 560 240.56C627.23 218.61 634.52 237.28 700 211.43C761.89 187 814.75 179.34 814.75 140C814.75 96.96 764.25 80.02 700 46.67C636.88 13.91 629.02 4.49 560 7.78C489.02 11.16 482.45 62.55 420 60" stroke="rgba(229, 171, 113, 1)" stroke-width="2"></path><path d="M1340.43 140C1340.43 118.79 1366.58 111.16 1400 100C1466.37 77.83 1492.31 59.7 1540 73.33C1562.31 79.7 1540 106.66 1540 140C1540 210 1540 210 1540 280C1540 350 1540 350 1540 420C1540 490 1560 510 1540 560C1532 580 1487.85 579.71 1484 560C1474.19 509.71 1508.37 490.6 1512.68 420C1516.92 350.6 1529.63 338.85 1501.11 280C1473.29 222.58 1451.64 232.46 1400 187.46C1371.3 162.46 1340.43 162.52 1340.43 140" stroke="rgba(229, 171, 113, 1)" stroke-width="2"></path><path d="M372.05 560C372.05 541.79 395.72 500.68 420 500.68C444.7 500.68 470 541.96 470 560C470 571.62 445 560 420 560C396.02 560 372.05 571.45 372.05 560" stroke="rgba(229, 171, 113, 1)" stroke-width="2"></path><path d="M0 98.44C19.86 98.44 61.86 119.44 61.86 140C61.86 160.37 20.01 180.3 0 180.3C-10.92 180.3 0 160.15 0 140C0 119.22 -11.07 98.44 0 98.44" stroke="rgba(229, 171, 113, 1)" stroke-width="2"></path><path d="M420 4.44C417.56 4.44 416.27 1.35 416.27 0C416.27 -0.87 418.13 0 420 0C425.84 0 431.67 -1.07 431.67 0C431.67 1.15 425.26 4.44 420 4.44" stroke="rgba(229, 171, 113, 1)" stroke-width="2"></path><path d="M1120 34.05C1099.46 34.05 1080.63 9.69 1080.63 0C1080.63 -7.33 1100.32 0 1120 0C1144.23 0 1168.46 -7.66 1168.46 0C1168.46 9.36 1143.37 34.05 1120 34.05" stroke="rgba(229, 171, 113, 1)" stroke-width="2"></path><path d="M1435 140C1435 115.73 1497.37 115 1540 115C1549.87 115 1540 127.5 1540 140C1540 182 1560.19 224 1540 224C1507.69 224 1435 170.23 1435 140" stroke="rgba(229, 171, 113, 1)" stroke-width="2"></path><path d="M117.5 280C124.66 259.17 129.68 241.82 140 241.82C149.8 241.82 147.07 261.88 157.75 280C199.57 350.97 245.22 350.1 245 420C244.78 490.1 204.51 496.48 156.87 560C152.01 566.48 148.44 560 140 560C70 560 53.53 576.47 0 560C-16.47 554.93 -10.1 534.87 0 516.92C29.28 464.87 51.59 474.76 78.75 420C110.34 356.3 94.03 348.26 117.5 280" stroke="rgba(229, 171, 113, 1)" stroke-width="2"></path><path d="M585 280C585 245.63 642.11 247.14 700 247.14C769.61 247.14 840 243.64 840 280C840 330.07 766.58 420 700 420C639.08 420 585 332.06 585 280" stroke="rgba(229, 171, 113, 1)" stroke-width="2"></path><path d="M1228.89 420C1228.89 416.71 1245.19 415.41 1260 415.41C1263.08 415.41 1264.67 417.35 1264.67 420C1264.67 424.02 1264.2 428.75 1260 428.75C1246.31 428.75 1228.89 423.38 1228.89 420" stroke="rgba(229, 171, 113, 1)" stroke-width="2"></path><path d="M850 560C850 529.79 934.33 452.94 980 452.94C1009.56 452.94 1000.45 514.93 1000.45 560C1000.45 568.46 990.22 560 980 560C915 560 850 583.32 850 560" stroke="rgba(229, 171, 113, 1)" stroke-width="2"></path></g><defs><mask id="SvgjsMask1000"><rect width="1440" height="560" fill="#ffffff"></rect></mask></defs></svg>