<svg xmlns="http://www.w3.org/2000/svg" viewBox="0 0 611.6 611.6"><rect width="611.6" height="611.6" fill="#ffffff" id="bg" class="bg"/><g><g transform="translate(0.00,&#10;                                29.12) rotate(90, 14.561904761904763, 14.561904761904763)"><svg xmlns="http://www.w3.org/2000/svg" id="Layer_1" data-name="Layer 1" viewBox="0 0 100 100" width="29.123809523809527" height="29.123809523809527"><polygon points="100 37.5 62.5 37.5 62.5 0 37.5 0 37.5 37.5 0 37.5 0 62.5 37.5 62.5 37.5 100 62.5 100 62.5 62.5 100 62.5 100 37.5" fill="#E8BA23"/></svg></g><g transform="translate(262.11,&#10;                                29.12) rotate(180, 14.561904761904763, 14.561904761904763)"><svg xmlns="http://www.w3.org/2000/svg" id="Layer_1" data-name="Layer 1" viewBox="0 0 100 100" width="29.123809523809527" height="29.123809523809527"><polygon points="100 37.5 62.5 37.5 62.5 0 37.5 0 37.5 37.5 0 37.5 0 62.5 37.5 62.5 37.5 100 62.5 100 62.5 62.5 100 62.5 100 37.5" fill="#E4AF00"/></svg></g><g transform="translate(262.11,&#10;                                58.25) rotate(90, 14.561904761904763, 14.561904761904763)"><svg xmlns="http://www.w3.org/2000/svg" id="Layer_1" data-name="Layer 1" viewBox="0 0 100 100" width="29.123809523809527" height="29.123809523809527"><polygon points="100 37.5 62.5 37.5 62.5 0 37.5 0 37.5 37.5 0 37.5 0 62.5 37.5 62.5 37.5 100 62.5 100 62.5 62.5 100 62.5 100 37.5" fill="#FDAA11"/></svg></g><g transform="translate(320.36,&#10;                                58.25) rotate(180, 14.561904761904763, 14.561904761904763)"><svg xmlns="http://www.w3.org/2000/svg" id="Layer_1" data-name="Layer 1" viewBox="0 0 100 100" width="29.123809523809527" height="29.123809523809527"><polygon points="100 37.5 62.5 37.5 62.5 0 37.5 0 37.5 37.5 0 37.5 0 62.5 37.5 62.5 37.5 100 62.5 100 62.5 62.5 100 62.5 100 37.5" fill="#E4B031"/></svg></g><g transform="translate(349.49,&#10;                                29.12) rotate(270, 14.561904761904763, 14.561904761904763)"><svg xmlns="http://www.w3.org/2000/svg" id="Layer_1" data-name="Layer 1" viewBox="0 0 100 100" width="29.123809523809527" height="29.123809523809527"><polygon points="100 37.5 62.5 37.5 62.5 0 37.5 0 37.5 37.5 0 37.5 0 62.5 37.5 62.5 37.5 100 62.5 100 62.5 62.5 100 62.5 100 37.5" fill="#E8BA23"/></svg></g><g transform="translate(407.73,&#10;                                29.12) rotate(90, 14.561904761904763, 14.561904761904763)"><svg xmlns="http://www.w3.org/2000/svg" id="Layer_1" data-name="Layer 1" viewBox="0 0 100 100" width="29.123809523809527" height="29.123809523809527"><polygon points="100 37.5 62.5 37.5 62.5 0 37.5 0 37.5 37.5 0 37.5 0 62.5 37.5 62.5 37.5 100 62.5 100 62.5 62.5 100 62.5 100 37.5" fill="#E4AF00"/></svg></g><g transform="translate(349.49,&#10;                                58.25) rotate(90, 14.561904761904763, 14.561904761904763)"><svg xmlns="http://www.w3.org/2000/svg" id="Layer_1" data-name="Layer 1" viewBox="0 0 100 100" width="29.123809523809527" height="29.123809523809527"><polygon points="100 37.5 62.5 37.5 62.5 0 37.5 0 37.5 37.5 0 37.5 0 62.5 37.5 62.5 37.5 100 62.5 100 62.5 62.5 100 62.5 100 37.5" fill="#FDAA11"/></svg></g><g transform="translate(378.61,&#10;                                58.25) rotate(270, 14.561904761904763, 14.561904761904763)"><svg xmlns="http://www.w3.org/2000/svg" id="Layer_1" data-name="Layer 1" viewBox="0 0 100 100" width="29.123809523809527" height="29.123809523809527"><polygon points="100 37.5 62.5 37.5 62.5 0 37.5 0 37.5 37.5 0 37.5 0 62.5 37.5 62.5 37.5 100 62.5 100 62.5 62.5 100 62.5 100 37.5" fill="#E4AF00"/></svg></g><g transform="translate(407.73,&#10;                                58.25) rotate(270, 14.561904761904763, 14.561904761904763)"><svg xmlns="http://www.w3.org/2000/svg" id="Layer_1" data-name="Layer 1" viewBox="0 0 100 100" width="29.123809523809527" height="29.123809523809527"><polygon points="100 37.5 62.5 37.5 62.5 0 37.5 0 37.5 37.5 0 37.5 0 62.5 37.5 62.5 37.5 100 62.5 100 62.5 62.5 100 62.5 100 37.5" fill="#E4B031"/></svg></g><g transform="translate(436.86,&#10;                                0.00) rotate(0, 14.561904761904763, 14.561904761904763)"><svg xmlns="http://www.w3.org/2000/svg" id="Layer_1" data-name="Layer 1" viewBox="0 0 100 100" width="29.123809523809527" height="29.123809523809527"><polygon points="100 37.5 62.5 37.5 62.5 0 37.5 0 37.5 37.5 0 37.5 0 62.5 37.5 62.5 37.5 100 62.5 100 62.5 62.5 100 62.5 100 37.5" fill="#E8BA23"/></svg></g><g transform="translate(495.10,&#10;                                29.12) rotate(180, 14.561904761904763, 14.561904761904763)"><svg xmlns="http://www.w3.org/2000/svg" id="Layer_1" data-name="Layer 1" viewBox="0 0 100 100" width="29.123809523809527" height="29.123809523809527"><polygon points="100 37.5 62.5 37.5 62.5 0 37.5 0 37.5 37.5 0 37.5 0 62.5 37.5 62.5 37.5 100 62.5 100 62.5 62.5 100 62.5 100 37.5" fill="#E4AF00"/></svg></g><g transform="translate(436.86,&#10;                                58.25) rotate(270, 14.561904761904763, 14.561904761904763)"><svg xmlns="http://www.w3.org/2000/svg" id="Layer_1" data-name="Layer 1" viewBox="0 0 100 100" width="29.123809523809527" height="29.123809523809527"><polygon points="100 37.5 62.5 37.5 62.5 0 37.5 0 37.5 37.5 0 37.5 0 62.5 37.5 62.5 37.5 100 62.5 100 62.5 62.5 100 62.5 100 37.5" fill="#E4AF00"/></svg></g><g transform="translate(582.48,&#10;                                29.12) rotate(0, 14.561904761904763, 14.561904761904763)"><svg xmlns="http://www.w3.org/2000/svg" id="Layer_1" data-name="Layer 1" viewBox="0 0 100 100" width="29.123809523809527" height="29.123809523809527"><polygon points="100 37.5 62.5 37.5 62.5 0 37.5 0 37.5 37.5 0 37.5 0 62.5 37.5 62.5 37.5 100 62.5 100 62.5 62.5 100 62.5 100 37.5" fill="#E4AF00"/></svg></g><g transform="translate(524.23,&#10;                                58.25) rotate(180, 14.561904761904763, 14.561904761904763)"><svg xmlns="http://www.w3.org/2000/svg" id="Layer_1" data-name="Layer 1" viewBox="0 0 100 100" width="29.123809523809527" height="29.123809523809527"><polygon points="100 37.5 62.5 37.5 62.5 0 37.5 0 37.5 37.5 0 37.5 0 62.5 37.5 62.5 37.5 100 62.5 100 62.5 62.5 100 62.5 100 37.5" fill="#FDAA11"/></svg></g><g transform="translate(553.35,&#10;                                58.25) rotate(180, 14.561904761904763, 14.561904761904763)"><svg xmlns="http://www.w3.org/2000/svg" id="Layer_1" data-name="Layer 1" viewBox="0 0 100 100" width="29.123809523809527" height="29.123809523809527"><polygon points="100 37.5 62.5 37.5 62.5 0 37.5 0 37.5 37.5 0 37.5 0 62.5 37.5 62.5 37.5 100 62.5 100 62.5 62.5 100 62.5 100 37.5" fill="#E4B031"/></svg></g></g><g><g transform="translate(0.00,&#10;                                145.62) rotate(90, 14.561904761904763, 14.561904761904763)"><svg xmlns="http://www.w3.org/2000/svg" id="Layer_1" data-name="Layer 1" viewBox="0 0 100 100" width="29.123809523809527" height="29.123809523809527"><polygon points="100 37.5 62.5 37.5 62.5 0 37.5 0 37.5 37.5 0 37.5 0 62.5 37.5 62.5 37.5 100 62.5 100 62.5 62.5 100 62.5 100 37.5" fill="#FDAA11"/></svg></g><g transform="translate(29.12,&#10;                                145.62) rotate(270, 14.561904761904763, 14.561904761904763)"><svg xmlns="http://www.w3.org/2000/svg" id="Layer_1" data-name="Layer 1" viewBox="0 0 100 100" width="29.123809523809527" height="29.123809523809527"><polygon points="100 37.5 62.5 37.5 62.5 0 37.5 0 37.5 37.5 0 37.5 0 62.5 37.5 62.5 37.5 100 62.5 100 62.5 62.5 100 62.5 100 37.5" fill="#E4B031"/></svg></g><g transform="translate(58.25,&#10;                                145.62) rotate(270, 14.561904761904763, 14.561904761904763)"><svg xmlns="http://www.w3.org/2000/svg" id="Layer_1" data-name="Layer 1" viewBox="0 0 100 100" width="29.123809523809527" height="29.123809523809527"><polygon points="100 37.5 62.5 37.5 62.5 0 37.5 0 37.5 37.5 0 37.5 0 62.5 37.5 62.5 37.5 100 62.5 100 62.5 62.5 100 62.5 100 37.5" fill="#E4B031"/></svg></g><g transform="translate(87.37,&#10;                                116.50) rotate(270, 14.561904761904763, 14.561904761904763)"><svg xmlns="http://www.w3.org/2000/svg" id="Layer_1" data-name="Layer 1" viewBox="0 0 100 100" width="29.123809523809527" height="29.123809523809527"><polygon points="100 37.5 62.5 37.5 62.5 0 37.5 0 37.5 37.5 0 37.5 0 62.5 37.5 62.5 37.5 100 62.5 100 62.5 62.5 100 62.5 100 37.5" fill="#E8BA23"/></svg></g><g transform="translate(87.37,&#10;                                145.62) rotate(270, 14.561904761904763, 14.561904761904763)"><svg xmlns="http://www.w3.org/2000/svg" id="Layer_1" data-name="Layer 1" viewBox="0 0 100 100" width="29.123809523809527" height="29.123809523809527"><polygon points="100 37.5 62.5 37.5 62.5 0 37.5 0 37.5 37.5 0 37.5 0 62.5 37.5 62.5 37.5 100 62.5 100 62.5 62.5 100 62.5 100 37.5" fill="#E4AF00"/></svg></g><g transform="translate(174.74,&#10;                                145.62) rotate(90, 14.561904761904763, 14.561904761904763)"><svg xmlns="http://www.w3.org/2000/svg" id="Layer_1" data-name="Layer 1" viewBox="0 0 100 100" width="29.123809523809527" height="29.123809523809527"><polygon points="100 37.5 62.5 37.5 62.5 0 37.5 0 37.5 37.5 0 37.5 0 62.5 37.5 62.5 37.5 100 62.5 100 62.5 62.5 100 62.5 100 37.5" fill="#FDAA11"/></svg></g><g transform="translate(203.87,&#10;                                145.62) rotate(0, 14.561904761904763, 14.561904761904763)"><svg xmlns="http://www.w3.org/2000/svg" id="Layer_1" data-name="Layer 1" viewBox="0 0 100 100" width="29.123809523809527" height="29.123809523809527"><polygon points="100 37.5 62.5 37.5 62.5 0 37.5 0 37.5 37.5 0 37.5 0 62.5 37.5 62.5 37.5 100 62.5 100 62.5 62.5 100 62.5 100 37.5" fill="#E4AF00"/></svg></g><g transform="translate(262.11,&#10;                                145.62) rotate(0, 14.561904761904763, 14.561904761904763)"><svg xmlns="http://www.w3.org/2000/svg" id="Layer_1" data-name="Layer 1" viewBox="0 0 100 100" width="29.123809523809527" height="29.123809523809527"><polygon points="100 37.5 62.5 37.5 62.5 0 37.5 0 37.5 37.5 0 37.5 0 62.5 37.5 62.5 37.5 100 62.5 100 62.5 62.5 100 62.5 100 37.5" fill="#FDAA11"/></svg></g><g transform="translate(378.61,&#10;                                145.62) rotate(180, 14.561904761904763, 14.561904761904763)"><svg xmlns="http://www.w3.org/2000/svg" id="Layer_1" data-name="Layer 1" viewBox="0 0 100 100" width="29.123809523809527" height="29.123809523809527"><polygon points="100 37.5 62.5 37.5 62.5 0 37.5 0 37.5 37.5 0 37.5 0 62.5 37.5 62.5 37.5 100 62.5 100 62.5 62.5 100 62.5 100 37.5" fill="#E4AF00"/></svg></g><g transform="translate(407.73,&#10;                                145.62) rotate(180, 14.561904761904763, 14.561904761904763)"><svg xmlns="http://www.w3.org/2000/svg" id="Layer_1" data-name="Layer 1" viewBox="0 0 100 100" width="29.123809523809527" height="29.123809523809527"><polygon points="100 37.5 62.5 37.5 62.5 0 37.5 0 37.5 37.5 0 37.5 0 62.5 37.5 62.5 37.5 100 62.5 100 62.5 62.5 100 62.5 100 37.5" fill="#E4B031"/></svg></g><g transform="translate(436.86,&#10;                                87.37) rotate(90, 14.561904761904763, 14.561904761904763)"><svg xmlns="http://www.w3.org/2000/svg" id="Layer_1" data-name="Layer 1" viewBox="0 0 100 100" width="29.123809523809527" height="29.123809523809527"><polygon points="100 37.5 62.5 37.5 62.5 0 37.5 0 37.5 37.5 0 37.5 0 62.5 37.5 62.5 37.5 100 62.5 100 62.5 62.5 100 62.5 100 37.5" fill="#E8BA23"/></svg></g><g transform="translate(436.86,&#10;                                116.50) rotate(0, 14.561904761904763, 14.561904761904763)"><svg xmlns="http://www.w3.org/2000/svg" id="Layer_1" data-name="Layer 1" viewBox="0 0 100 100" width="29.123809523809527" height="29.123809523809527"><polygon points="100 37.5 62.5 37.5 62.5 0 37.5 0 37.5 37.5 0 37.5 0 62.5 37.5 62.5 37.5 100 62.5 100 62.5 62.5 100 62.5 100 37.5" fill="#E4AF00"/></svg></g><g transform="translate(495.10,&#10;                                116.50) rotate(90, 14.561904761904763, 14.561904761904763)"><svg xmlns="http://www.w3.org/2000/svg" id="Layer_1" data-name="Layer 1" viewBox="0 0 100 100" width="29.123809523809527" height="29.123809523809527"><polygon points="100 37.5 62.5 37.5 62.5 0 37.5 0 37.5 37.5 0 37.5 0 62.5 37.5 62.5 37.5 100 62.5 100 62.5 62.5 100 62.5 100 37.5" fill="#E4AF00"/></svg></g><g transform="translate(465.98,&#10;                                145.62) rotate(0, 14.561904761904763, 14.561904761904763)"><svg xmlns="http://www.w3.org/2000/svg" id="Layer_1" data-name="Layer 1" viewBox="0 0 100 100" width="29.123809523809527" height="29.123809523809527"><polygon points="100 37.5 62.5 37.5 62.5 0 37.5 0 37.5 37.5 0 37.5 0 62.5 37.5 62.5 37.5 100 62.5 100 62.5 62.5 100 62.5 100 37.5" fill="#E4AF00"/></svg></g><g transform="translate(524.23,&#10;                                87.37) rotate(180, 14.561904761904763, 14.561904761904763)"><svg xmlns="http://www.w3.org/2000/svg" id="Layer_1" data-name="Layer 1" viewBox="0 0 100 100" width="29.123809523809527" height="29.123809523809527"><polygon points="100 37.5 62.5 37.5 62.5 0 37.5 0 37.5 37.5 0 37.5 0 62.5 37.5 62.5 37.5 100 62.5 100 62.5 62.5 100 62.5 100 37.5" fill="#E8BA23"/></svg></g><g transform="translate(524.23,&#10;                                145.62) rotate(90, 14.561904761904763, 14.561904761904763)"><svg xmlns="http://www.w3.org/2000/svg" id="Layer_1" data-name="Layer 1" viewBox="0 0 100 100" width="29.123809523809527" height="29.123809523809527"><polygon points="100 37.5 62.5 37.5 62.5 0 37.5 0 37.5 37.5 0 37.5 0 62.5 37.5 62.5 37.5 100 62.5 100 62.5 62.5 100 62.5 100 37.5" fill="#FDAA11"/></svg></g></g><g><g transform="translate(58.25,&#10;                                203.87) rotate(0, 14.561904761904763, 14.561904761904763)"><svg xmlns="http://www.w3.org/2000/svg" id="Layer_1" data-name="Layer 1" viewBox="0 0 100 100" width="29.123809523809527" height="29.123809523809527"><polygon points="100 37.5 62.5 37.5 62.5 0 37.5 0 37.5 37.5 0 37.5 0 62.5 37.5 62.5 37.5 100 62.5 100 62.5 62.5 100 62.5 100 37.5" fill="#E4AF00"/></svg></g><g transform="translate(0.00,&#10;                                232.99) rotate(180, 14.561904761904763, 14.561904761904763)"><svg xmlns="http://www.w3.org/2000/svg" id="Layer_1" data-name="Layer 1" viewBox="0 0 100 100" width="29.123809523809527" height="29.123809523809527"><polygon points="100 37.5 62.5 37.5 62.5 0 37.5 0 37.5 37.5 0 37.5 0 62.5 37.5 62.5 37.5 100 62.5 100 62.5 62.5 100 62.5 100 37.5" fill="#FDAA11"/></svg></g><g transform="translate(29.12,&#10;                                232.99) rotate(0, 14.561904761904763, 14.561904761904763)"><svg xmlns="http://www.w3.org/2000/svg" id="Layer_1" data-name="Layer 1" viewBox="0 0 100 100" width="29.123809523809527" height="29.123809523809527"><polygon points="100 37.5 62.5 37.5 62.5 0 37.5 0 37.5 37.5 0 37.5 0 62.5 37.5 62.5 37.5 100 62.5 100 62.5 62.5 100 62.5 100 37.5" fill="#E4B031"/></svg></g><g transform="translate(87.37,&#10;                                232.99) rotate(270, 14.561904761904763, 14.561904761904763)"><svg xmlns="http://www.w3.org/2000/svg" id="Layer_1" data-name="Layer 1" viewBox="0 0 100 100" width="29.123809523809527" height="29.123809523809527"><polygon points="100 37.5 62.5 37.5 62.5 0 37.5 0 37.5 37.5 0 37.5 0 62.5 37.5 62.5 37.5 100 62.5 100 62.5 62.5 100 62.5 100 37.5" fill="#FDAA11"/></svg></g><g transform="translate(145.62,&#10;                                232.99) rotate(180, 14.561904761904763, 14.561904761904763)"><svg xmlns="http://www.w3.org/2000/svg" id="Layer_1" data-name="Layer 1" viewBox="0 0 100 100" width="29.123809523809527" height="29.123809523809527"><polygon points="100 37.5 62.5 37.5 62.5 0 37.5 0 37.5 37.5 0 37.5 0 62.5 37.5 62.5 37.5 100 62.5 100 62.5 62.5 100 62.5 100 37.5" fill="#E4B031"/></svg></g><g transform="translate(174.74,&#10;                                203.87) rotate(0, 14.561904761904763, 14.561904761904763)"><svg xmlns="http://www.w3.org/2000/svg" id="Layer_1" data-name="Layer 1" viewBox="0 0 100 100" width="29.123809523809527" height="29.123809523809527"><polygon points="100 37.5 62.5 37.5 62.5 0 37.5 0 37.5 37.5 0 37.5 0 62.5 37.5 62.5 37.5 100 62.5 100 62.5 62.5 100 62.5 100 37.5" fill="#E8BA23"/></svg></g><g transform="translate(174.74,&#10;                                232.99) rotate(0, 14.561904761904763, 14.561904761904763)"><svg xmlns="http://www.w3.org/2000/svg" id="Layer_1" data-name="Layer 1" viewBox="0 0 100 100" width="29.123809523809527" height="29.123809523809527"><polygon points="100 37.5 62.5 37.5 62.5 0 37.5 0 37.5 37.5 0 37.5 0 62.5 37.5 62.5 37.5 100 62.5 100 62.5 62.5 100 62.5 100 37.5" fill="#FDAA11"/></svg></g><g transform="translate(262.11,&#10;                                232.99) rotate(180, 14.561904761904763, 14.561904761904763)"><svg xmlns="http://www.w3.org/2000/svg" id="Layer_1" data-name="Layer 1" viewBox="0 0 100 100" width="29.123809523809527" height="29.123809523809527"><polygon points="100 37.5 62.5 37.5 62.5 0 37.5 0 37.5 37.5 0 37.5 0 62.5 37.5 62.5 37.5 100 62.5 100 62.5 62.5 100 62.5 100 37.5" fill="#FDAA11"/></svg></g><g transform="translate(320.36,&#10;                                232.99) rotate(270, 14.561904761904763, 14.561904761904763)"><svg xmlns="http://www.w3.org/2000/svg" id="Layer_1" data-name="Layer 1" viewBox="0 0 100 100" width="29.123809523809527" height="29.123809523809527"><polygon points="100 37.5 62.5 37.5 62.5 0 37.5 0 37.5 37.5 0 37.5 0 62.5 37.5 62.5 37.5 100 62.5 100 62.5 62.5 100 62.5 100 37.5" fill="#E4B031"/></svg></g><g transform="translate(349.49,&#10;                                203.87) rotate(180, 14.561904761904763, 14.561904761904763)"><svg xmlns="http://www.w3.org/2000/svg" id="Layer_1" data-name="Layer 1" viewBox="0 0 100 100" width="29.123809523809527" height="29.123809523809527"><polygon points="100 37.5 62.5 37.5 62.5 0 37.5 0 37.5 37.5 0 37.5 0 62.5 37.5 62.5 37.5 100 62.5 100 62.5 62.5 100 62.5 100 37.5" fill="#E8BA23"/></svg></g><g transform="translate(436.86,&#10;                                203.87) rotate(90, 14.561904761904763, 14.561904761904763)"><svg xmlns="http://www.w3.org/2000/svg" id="Layer_1" data-name="Layer 1" viewBox="0 0 100 100" width="29.123809523809527" height="29.123809523809527"><polygon points="100 37.5 62.5 37.5 62.5 0 37.5 0 37.5 37.5 0 37.5 0 62.5 37.5 62.5 37.5 100 62.5 100 62.5 62.5 100 62.5 100 37.5" fill="#E8BA23"/></svg></g><g transform="translate(495.10,&#10;                                203.87) rotate(90, 14.561904761904763, 14.561904761904763)"><svg xmlns="http://www.w3.org/2000/svg" id="Layer_1" data-name="Layer 1" viewBox="0 0 100 100" width="29.123809523809527" height="29.123809523809527"><polygon points="100 37.5 62.5 37.5 62.5 0 37.5 0 37.5 37.5 0 37.5 0 62.5 37.5 62.5 37.5 100 62.5 100 62.5 62.5 100 62.5 100 37.5" fill="#E4AF00"/></svg></g><g transform="translate(436.86,&#10;                                232.99) rotate(270, 14.561904761904763, 14.561904761904763)"><svg xmlns="http://www.w3.org/2000/svg" id="Layer_1" data-name="Layer 1" viewBox="0 0 100 100" width="29.123809523809527" height="29.123809523809527"><polygon points="100 37.5 62.5 37.5 62.5 0 37.5 0 37.5 37.5 0 37.5 0 62.5 37.5 62.5 37.5 100 62.5 100 62.5 62.5 100 62.5 100 37.5" fill="#E4AF00"/></svg></g><g transform="translate(524.23,&#10;                                203.87) rotate(270, 14.561904761904763, 14.561904761904763)"><svg xmlns="http://www.w3.org/2000/svg" id="Layer_1" data-name="Layer 1" viewBox="0 0 100 100" width="29.123809523809527" height="29.123809523809527"><polygon points="100 37.5 62.5 37.5 62.5 0 37.5 0 37.5 37.5 0 37.5 0 62.5 37.5 62.5 37.5 100 62.5 100 62.5 62.5 100 62.5 100 37.5" fill="#E8BA23"/></svg></g><g transform="translate(524.23,&#10;                                232.99) rotate(270, 14.561904761904763, 14.561904761904763)"><svg xmlns="http://www.w3.org/2000/svg" id="Layer_1" data-name="Layer 1" viewBox="0 0 100 100" width="29.123809523809527" height="29.123809523809527"><polygon points="100 37.5 62.5 37.5 62.5 0 37.5 0 37.5 37.5 0 37.5 0 62.5 37.5 62.5 37.5 100 62.5 100 62.5 62.5 100 62.5 100 37.5" fill="#E4AF00"/></svg></g></g><g><g transform="translate(0.00,&#10;                                320.36) rotate(0, 14.561904761904763, 14.561904761904763)"><svg xmlns="http://www.w3.org/2000/svg" id="Layer_1" data-name="Layer 1" viewBox="0 0 100 100" width="29.123809523809527" height="29.123809523809527"><polygon points="100 37.5 62.5 37.5 62.5 0 37.5 0 37.5 37.5 0 37.5 0 62.5 37.5 62.5 37.5 100 62.5 100 62.5 62.5 100 62.5 100 37.5" fill="#E4AF00"/></svg></g><g transform="translate(29.12,&#10;                                320.36) rotate(90, 14.561904761904763, 14.561904761904763)"><svg xmlns="http://www.w3.org/2000/svg" id="Layer_1" data-name="Layer 1" viewBox="0 0 100 100" width="29.123809523809527" height="29.123809523809527"><polygon points="100 37.5 62.5 37.5 62.5 0 37.5 0 37.5 37.5 0 37.5 0 62.5 37.5 62.5 37.5 100 62.5 100 62.5 62.5 100 62.5 100 37.5" fill="#E4AF00"/></svg></g><g transform="translate(87.37,&#10;                                291.24) rotate(180, 14.561904761904763, 14.561904761904763)"><svg xmlns="http://www.w3.org/2000/svg" id="Layer_1" data-name="Layer 1" viewBox="0 0 100 100" width="29.123809523809527" height="29.123809523809527"><polygon points="100 37.5 62.5 37.5 62.5 0 37.5 0 37.5 37.5 0 37.5 0 62.5 37.5 62.5 37.5 100 62.5 100 62.5 62.5 100 62.5 100 37.5" fill="#E8BA23"/></svg></g><g transform="translate(145.62,&#10;                                291.24) rotate(180, 14.561904761904763, 14.561904761904763)"><svg xmlns="http://www.w3.org/2000/svg" id="Layer_1" data-name="Layer 1" viewBox="0 0 100 100" width="29.123809523809527" height="29.123809523809527"><polygon points="100 37.5 62.5 37.5 62.5 0 37.5 0 37.5 37.5 0 37.5 0 62.5 37.5 62.5 37.5 100 62.5 100 62.5 62.5 100 62.5 100 37.5" fill="#E4AF00"/></svg></g><g transform="translate(87.37,&#10;                                320.36) rotate(0, 14.561904761904763, 14.561904761904763)"><svg xmlns="http://www.w3.org/2000/svg" id="Layer_1" data-name="Layer 1" viewBox="0 0 100 100" width="29.123809523809527" height="29.123809523809527"><polygon points="100 37.5 62.5 37.5 62.5 0 37.5 0 37.5 37.5 0 37.5 0 62.5 37.5 62.5 37.5 100 62.5 100 62.5 62.5 100 62.5 100 37.5" fill="#E4AF00"/></svg></g><g transform="translate(174.74,&#10;                                291.24) rotate(90, 14.561904761904763, 14.561904761904763)"><svg xmlns="http://www.w3.org/2000/svg" id="Layer_1" data-name="Layer 1" viewBox="0 0 100 100" width="29.123809523809527" height="29.123809523809527"><polygon points="100 37.5 62.5 37.5 62.5 0 37.5 0 37.5 37.5 0 37.5 0 62.5 37.5 62.5 37.5 100 62.5 100 62.5 62.5 100 62.5 100 37.5" fill="#E8BA23"/></svg></g><g transform="translate(174.74,&#10;                                320.36) rotate(0, 14.561904761904763, 14.561904761904763)"><svg xmlns="http://www.w3.org/2000/svg" id="Layer_1" data-name="Layer 1" viewBox="0 0 100 100" width="29.123809523809527" height="29.123809523809527"><polygon points="100 37.5 62.5 37.5 62.5 0 37.5 0 37.5 37.5 0 37.5 0 62.5 37.5 62.5 37.5 100 62.5 100 62.5 62.5 100 62.5 100 37.5" fill="#FDAA11"/></svg></g><g transform="translate(203.87,&#10;                                320.36) rotate(270, 14.561904761904763, 14.561904761904763)"><svg xmlns="http://www.w3.org/2000/svg" id="Layer_1" data-name="Layer 1" viewBox="0 0 100 100" width="29.123809523809527" height="29.123809523809527"><polygon points="100 37.5 62.5 37.5 62.5 0 37.5 0 37.5 37.5 0 37.5 0 62.5 37.5 62.5 37.5 100 62.5 100 62.5 62.5 100 62.5 100 37.5" fill="#E4B031"/></svg></g><g transform="translate(232.99,&#10;                                320.36) rotate(180, 14.561904761904763, 14.561904761904763)"><svg xmlns="http://www.w3.org/2000/svg" id="Layer_1" data-name="Layer 1" viewBox="0 0 100 100" width="29.123809523809527" height="29.123809523809527"><polygon points="100 37.5 62.5 37.5 62.5 0 37.5 0 37.5 37.5 0 37.5 0 62.5 37.5 62.5 37.5 100 62.5 100 62.5 62.5 100 62.5 100 37.5" fill="#E4B031"/></svg></g><g transform="translate(291.24,&#10;                                291.24) rotate(270, 14.561904761904763, 14.561904761904763)"><svg xmlns="http://www.w3.org/2000/svg" id="Layer_1" data-name="Layer 1" viewBox="0 0 100 100" width="29.123809523809527" height="29.123809523809527"><polygon points="100 37.5 62.5 37.5 62.5 0 37.5 0 37.5 37.5 0 37.5 0 62.5 37.5 62.5 37.5 100 62.5 100 62.5 62.5 100 62.5 100 37.5" fill="#E4B031"/></svg></g><g transform="translate(320.36,&#10;                                320.36) rotate(180, 14.561904761904763, 14.561904761904763)"><svg xmlns="http://www.w3.org/2000/svg" id="Layer_1" data-name="Layer 1" viewBox="0 0 100 100" width="29.123809523809527" height="29.123809523809527"><polygon points="100 37.5 62.5 37.5 62.5 0 37.5 0 37.5 37.5 0 37.5 0 62.5 37.5 62.5 37.5 100 62.5 100 62.5 62.5 100 62.5 100 37.5" fill="#E4B031"/></svg></g><g transform="translate(378.61,&#10;                                291.24) rotate(0, 14.561904761904763, 14.561904761904763)"><svg xmlns="http://www.w3.org/2000/svg" id="Layer_1" data-name="Layer 1" viewBox="0 0 100 100" width="29.123809523809527" height="29.123809523809527"><polygon points="100 37.5 62.5 37.5 62.5 0 37.5 0 37.5 37.5 0 37.5 0 62.5 37.5 62.5 37.5 100 62.5 100 62.5 62.5 100 62.5 100 37.5" fill="#E4B031"/></svg></g><g transform="translate(349.49,&#10;                                320.36) rotate(90, 14.561904761904763, 14.561904761904763)"><svg xmlns="http://www.w3.org/2000/svg" id="Layer_1" data-name="Layer 1" viewBox="0 0 100 100" width="29.123809523809527" height="29.123809523809527"><polygon points="100 37.5 62.5 37.5 62.5 0 37.5 0 37.5 37.5 0 37.5 0 62.5 37.5 62.5 37.5 100 62.5 100 62.5 62.5 100 62.5 100 37.5" fill="#FDAA11"/></svg></g><g transform="translate(436.86,&#10;                                262.11) rotate(180, 14.561904761904763, 14.561904761904763)"><svg xmlns="http://www.w3.org/2000/svg" id="Layer_1" data-name="Layer 1" viewBox="0 0 100 100" width="29.123809523809527" height="29.123809523809527"><polygon points="100 37.5 62.5 37.5 62.5 0 37.5 0 37.5 37.5 0 37.5 0 62.5 37.5 62.5 37.5 100 62.5 100 62.5 62.5 100 62.5 100 37.5" fill="#E4B031"/></svg></g><g transform="translate(436.86,&#10;                                291.24) rotate(270, 14.561904761904763, 14.561904761904763)"><svg xmlns="http://www.w3.org/2000/svg" id="Layer_1" data-name="Layer 1" viewBox="0 0 100 100" width="29.123809523809527" height="29.123809523809527"><polygon points="100 37.5 62.5 37.5 62.5 0 37.5 0 37.5 37.5 0 37.5 0 62.5 37.5 62.5 37.5 100 62.5 100 62.5 62.5 100 62.5 100 37.5" fill="#E8BA23"/></svg></g><g transform="translate(436.86,&#10;                                320.36) rotate(0, 14.561904761904763, 14.561904761904763)"><svg xmlns="http://www.w3.org/2000/svg" id="Layer_1" data-name="Layer 1" viewBox="0 0 100 100" width="29.123809523809527" height="29.123809523809527"><polygon points="100 37.5 62.5 37.5 62.5 0 37.5 0 37.5 37.5 0 37.5 0 62.5 37.5 62.5 37.5 100 62.5 100 62.5 62.5 100 62.5 100 37.5" fill="#E4AF00"/></svg></g><g transform="translate(524.23,&#10;                                320.36) rotate(180, 14.561904761904763, 14.561904761904763)"><svg xmlns="http://www.w3.org/2000/svg" id="Layer_1" data-name="Layer 1" viewBox="0 0 100 100" width="29.123809523809527" height="29.123809523809527"><polygon points="100 37.5 62.5 37.5 62.5 0 37.5 0 37.5 37.5 0 37.5 0 62.5 37.5 62.5 37.5 100 62.5 100 62.5 62.5 100 62.5 100 37.5" fill="#FDAA11"/></svg></g><g transform="translate(553.35,&#10;                                320.36) rotate(0, 14.561904761904763, 14.561904761904763)"><svg xmlns="http://www.w3.org/2000/svg" id="Layer_1" data-name="Layer 1" viewBox="0 0 100 100" width="29.123809523809527" height="29.123809523809527"><polygon points="100 37.5 62.5 37.5 62.5 0 37.5 0 37.5 37.5 0 37.5 0 62.5 37.5 62.5 37.5 100 62.5 100 62.5 62.5 100 62.5 100 37.5" fill="#E4AF00"/></svg></g></g><g><g transform="translate(0.00,&#10;                                378.61) rotate(180, 14.561904761904763, 14.561904761904763)"><svg xmlns="http://www.w3.org/2000/svg" id="Layer_1" data-name="Layer 1" viewBox="0 0 100 100" width="29.123809523809527" height="29.123809523809527"><polygon points="100 37.5 62.5 37.5 62.5 0 37.5 0 37.5 37.5 0 37.5 0 62.5 37.5 62.5 37.5 100 62.5 100 62.5 62.5 100 62.5 100 37.5" fill="#E8BA23"/></svg></g><g transform="translate(0.00,&#10;                                407.73) rotate(180, 14.561904761904763, 14.561904761904763)"><svg xmlns="http://www.w3.org/2000/svg" id="Layer_1" data-name="Layer 1" viewBox="0 0 100 100" width="29.123809523809527" height="29.123809523809527"><polygon points="100 37.5 62.5 37.5 62.5 0 37.5 0 37.5 37.5 0 37.5 0 62.5 37.5 62.5 37.5 100 62.5 100 62.5 62.5 100 62.5 100 37.5" fill="#FDAA11"/></svg></g><g transform="translate(29.12,&#10;                                407.73) rotate(0, 14.561904761904763, 14.561904761904763)"><svg xmlns="http://www.w3.org/2000/svg" id="Layer_1" data-name="Layer 1" viewBox="0 0 100 100" width="29.123809523809527" height="29.123809523809527"><polygon points="100 37.5 62.5 37.5 62.5 0 37.5 0 37.5 37.5 0 37.5 0 62.5 37.5 62.5 37.5 100 62.5 100 62.5 62.5 100 62.5 100 37.5" fill="#E4B031"/></svg></g><g transform="translate(87.37,&#10;                                349.49) rotate(90, 14.561904761904763, 14.561904761904763)"><svg xmlns="http://www.w3.org/2000/svg" id="Layer_1" data-name="Layer 1" viewBox="0 0 100 100" width="29.123809523809527" height="29.123809523809527"><polygon points="100 37.5 62.5 37.5 62.5 0 37.5 0 37.5 37.5 0 37.5 0 62.5 37.5 62.5 37.5 100 62.5 100 62.5 62.5 100 62.5 100 37.5" fill="#E4B031"/></svg></g><g transform="translate(87.37,&#10;                                378.61) rotate(180, 14.561904761904763, 14.561904761904763)"><svg xmlns="http://www.w3.org/2000/svg" id="Layer_1" data-name="Layer 1" viewBox="0 0 100 100" width="29.123809523809527" height="29.123809523809527"><polygon points="100 37.5 62.5 37.5 62.5 0 37.5 0 37.5 37.5 0 37.5 0 62.5 37.5 62.5 37.5 100 62.5 100 62.5 62.5 100 62.5 100 37.5" fill="#E4AF00"/></svg></g><g transform="translate(145.62,&#10;                                378.61) rotate(0, 14.561904761904763, 14.561904761904763)"><svg xmlns="http://www.w3.org/2000/svg" id="Layer_1" data-name="Layer 1" viewBox="0 0 100 100" width="29.123809523809527" height="29.123809523809527"><polygon points="100 37.5 62.5 37.5 62.5 0 37.5 0 37.5 37.5 0 37.5 0 62.5 37.5 62.5 37.5 100 62.5 100 62.5 62.5 100 62.5 100 37.5" fill="#E4AF00"/></svg></g><g transform="translate(87.37,&#10;                                407.73) rotate(0, 14.561904761904763, 14.561904761904763)"><svg xmlns="http://www.w3.org/2000/svg" id="Layer_1" data-name="Layer 1" viewBox="0 0 100 100" width="29.123809523809527" height="29.123809523809527"><polygon points="100 37.5 62.5 37.5 62.5 0 37.5 0 37.5 37.5 0 37.5 0 62.5 37.5 62.5 37.5 100 62.5 100 62.5 62.5 100 62.5 100 37.5" fill="#FDAA11"/></svg></g><g transform="translate(232.99,&#10;                                378.61) rotate(270, 14.561904761904763, 14.561904761904763)"><svg xmlns="http://www.w3.org/2000/svg" id="Layer_1" data-name="Layer 1" viewBox="0 0 100 100" width="29.123809523809527" height="29.123809523809527"><polygon points="100 37.5 62.5 37.5 62.5 0 37.5 0 37.5 37.5 0 37.5 0 62.5 37.5 62.5 37.5 100 62.5 100 62.5 62.5 100 62.5 100 37.5" fill="#E4AF00"/></svg></g><g transform="translate(174.74,&#10;                                407.73) rotate(270, 14.561904761904763, 14.561904761904763)"><svg xmlns="http://www.w3.org/2000/svg" id="Layer_1" data-name="Layer 1" viewBox="0 0 100 100" width="29.123809523809527" height="29.123809523809527"><polygon points="100 37.5 62.5 37.5 62.5 0 37.5 0 37.5 37.5 0 37.5 0 62.5 37.5 62.5 37.5 100 62.5 100 62.5 62.5 100 62.5 100 37.5" fill="#FDAA11"/></svg></g><g transform="translate(203.87,&#10;                                407.73) rotate(0, 14.561904761904763, 14.561904761904763)"><svg xmlns="http://www.w3.org/2000/svg" id="Layer_1" data-name="Layer 1" viewBox="0 0 100 100" width="29.123809523809527" height="29.123809523809527"><polygon points="100 37.5 62.5 37.5 62.5 0 37.5 0 37.5 37.5 0 37.5 0 62.5 37.5 62.5 37.5 100 62.5 100 62.5 62.5 100 62.5 100 37.5" fill="#E4AF00"/></svg></g><g transform="translate(262.11,&#10;                                349.49) rotate(0, 14.561904761904763, 14.561904761904763)"><svg xmlns="http://www.w3.org/2000/svg" id="Layer_1" data-name="Layer 1" viewBox="0 0 100 100" width="29.123809523809527" height="29.123809523809527"><polygon points="100 37.5 62.5 37.5 62.5 0 37.5 0 37.5 37.5 0 37.5 0 62.5 37.5 62.5 37.5 100 62.5 100 62.5 62.5 100 62.5 100 37.5" fill="#E8BA23"/></svg></g><g transform="translate(262.11,&#10;                                378.61) rotate(270, 14.561904761904763, 14.561904761904763)"><svg xmlns="http://www.w3.org/2000/svg" id="Layer_1" data-name="Layer 1" viewBox="0 0 100 100" width="29.123809523809527" height="29.123809523809527"><polygon points="100 37.5 62.5 37.5 62.5 0 37.5 0 37.5 37.5 0 37.5 0 62.5 37.5 62.5 37.5 100 62.5 100 62.5 62.5 100 62.5 100 37.5" fill="#E8BA23"/></svg></g><g transform="translate(349.49,&#10;                                407.73) rotate(90, 14.561904761904763, 14.561904761904763)"><svg xmlns="http://www.w3.org/2000/svg" id="Layer_1" data-name="Layer 1" viewBox="0 0 100 100" width="29.123809523809527" height="29.123809523809527"><polygon points="100 37.5 62.5 37.5 62.5 0 37.5 0 37.5 37.5 0 37.5 0 62.5 37.5 62.5 37.5 100 62.5 100 62.5 62.5 100 62.5 100 37.5" fill="#E4AF00"/></svg></g><g transform="translate(407.73,&#10;                                407.73) rotate(180, 14.561904761904763, 14.561904761904763)"><svg xmlns="http://www.w3.org/2000/svg" id="Layer_1" data-name="Layer 1" viewBox="0 0 100 100" width="29.123809523809527" height="29.123809523809527"><polygon points="100 37.5 62.5 37.5 62.5 0 37.5 0 37.5 37.5 0 37.5 0 62.5 37.5 62.5 37.5 100 62.5 100 62.5 62.5 100 62.5 100 37.5" fill="#E4B031"/></svg></g><g transform="translate(436.86,&#10;                                378.61) rotate(90, 14.561904761904763, 14.561904761904763)"><svg xmlns="http://www.w3.org/2000/svg" id="Layer_1" data-name="Layer 1" viewBox="0 0 100 100" width="29.123809523809527" height="29.123809523809527"><polygon points="100 37.5 62.5 37.5 62.5 0 37.5 0 37.5 37.5 0 37.5 0 62.5 37.5 62.5 37.5 100 62.5 100 62.5 62.5 100 62.5 100 37.5" fill="#E8BA23"/></svg></g><g transform="translate(436.86,&#10;                                407.73) rotate(0, 14.561904761904763, 14.561904761904763)"><svg xmlns="http://www.w3.org/2000/svg" id="Layer_1" data-name="Layer 1" viewBox="0 0 100 100" width="29.123809523809527" height="29.123809523809527"><polygon points="100 37.5 62.5 37.5 62.5 0 37.5 0 37.5 37.5 0 37.5 0 62.5 37.5 62.5 37.5 100 62.5 100 62.5 62.5 100 62.5 100 37.5" fill="#E4AF00"/></svg></g><g transform="translate(495.10,&#10;                                407.73) rotate(270, 14.561904761904763, 14.561904761904763)"><svg xmlns="http://www.w3.org/2000/svg" id="Layer_1" data-name="Layer 1" viewBox="0 0 100 100" width="29.123809523809527" height="29.123809523809527"><polygon points="100 37.5 62.5 37.5 62.5 0 37.5 0 37.5 37.5 0 37.5 0 62.5 37.5 62.5 37.5 100 62.5 100 62.5 62.5 100 62.5 100 37.5" fill="#E4B031"/></svg></g><g transform="translate(582.48,&#10;                                378.61) rotate(270, 14.561904761904763, 14.561904761904763)"><svg xmlns="http://www.w3.org/2000/svg" id="Layer_1" data-name="Layer 1" viewBox="0 0 100 100" width="29.123809523809527" height="29.123809523809527"><polygon points="100 37.5 62.5 37.5 62.5 0 37.5 0 37.5 37.5 0 37.5 0 62.5 37.5 62.5 37.5 100 62.5 100 62.5 62.5 100 62.5 100 37.5" fill="#E4AF00"/></svg></g><g transform="translate(524.23,&#10;                                407.73) rotate(270, 14.561904761904763, 14.561904761904763)"><svg xmlns="http://www.w3.org/2000/svg" id="Layer_1" data-name="Layer 1" viewBox="0 0 100 100" width="29.123809523809527" height="29.123809523809527"><polygon points="100 37.5 62.5 37.5 62.5 0 37.5 0 37.5 37.5 0 37.5 0 62.5 37.5 62.5 37.5 100 62.5 100 62.5 62.5 100 62.5 100 37.5" fill="#E4AF00"/></svg></g></g><g><g transform="translate(0.00,&#10;                                436.86) rotate(180, 14.561904761904763, 14.561904761904763)"><svg xmlns="http://www.w3.org/2000/svg" id="Layer_1" data-name="Layer 1" viewBox="0 0 100 100" width="29.123809523809527" height="29.123809523809527"><polygon points="100 37.5 62.5 37.5 62.5 0 37.5 0 37.5 37.5 0 37.5 0 62.5 37.5 62.5 37.5 100 62.5 100 62.5 62.5 100 62.5 100 37.5" fill="#E4B031"/></svg></g><g transform="translate(0.00,&#10;                                465.98) rotate(270, 14.561904761904763, 14.561904761904763)"><svg xmlns="http://www.w3.org/2000/svg" id="Layer_1" data-name="Layer 1" viewBox="0 0 100 100" width="29.123809523809527" height="29.123809523809527"><polygon points="100 37.5 62.5 37.5 62.5 0 37.5 0 37.5 37.5 0 37.5 0 62.5 37.5 62.5 37.5 100 62.5 100 62.5 62.5 100 62.5 100 37.5" fill="#E4AF00"/></svg></g><g transform="translate(0.00,&#10;                                495.10) rotate(270, 14.561904761904763, 14.561904761904763)"><svg xmlns="http://www.w3.org/2000/svg" id="Layer_1" data-name="Layer 1" viewBox="0 0 100 100" width="29.123809523809527" height="29.123809523809527"><polygon points="100 37.5 62.5 37.5 62.5 0 37.5 0 37.5 37.5 0 37.5 0 62.5 37.5 62.5 37.5 100 62.5 100 62.5 62.5 100 62.5 100 37.5" fill="#FDAA11"/></svg></g><g transform="translate(29.12,&#10;                                495.10) rotate(90, 14.561904761904763, 14.561904761904763)"><svg xmlns="http://www.w3.org/2000/svg" id="Layer_1" data-name="Layer 1" viewBox="0 0 100 100" width="29.123809523809527" height="29.123809523809527"><polygon points="100 37.5 62.5 37.5 62.5 0 37.5 0 37.5 37.5 0 37.5 0 62.5 37.5 62.5 37.5 100 62.5 100 62.5 62.5 100 62.5 100 37.5" fill="#E4B031"/></svg></g><g transform="translate(58.25,&#10;                                495.10) rotate(0, 14.561904761904763, 14.561904761904763)"><svg xmlns="http://www.w3.org/2000/svg" id="Layer_1" data-name="Layer 1" viewBox="0 0 100 100" width="29.123809523809527" height="29.123809523809527"><polygon points="100 37.5 62.5 37.5 62.5 0 37.5 0 37.5 37.5 0 37.5 0 62.5 37.5 62.5 37.5 100 62.5 100 62.5 62.5 100 62.5 100 37.5" fill="#E4B031"/></svg></g><g transform="translate(174.74,&#10;                                465.98) rotate(90, 14.561904761904763, 14.561904761904763)"><svg xmlns="http://www.w3.org/2000/svg" id="Layer_1" data-name="Layer 1" viewBox="0 0 100 100" width="29.123809523809527" height="29.123809523809527"><polygon points="100 37.5 62.5 37.5 62.5 0 37.5 0 37.5 37.5 0 37.5 0 62.5 37.5 62.5 37.5 100 62.5 100 62.5 62.5 100 62.5 100 37.5" fill="#E8BA23"/></svg></g><g transform="translate(232.99,&#10;                                495.10) rotate(270, 14.561904761904763, 14.561904761904763)"><svg xmlns="http://www.w3.org/2000/svg" id="Layer_1" data-name="Layer 1" viewBox="0 0 100 100" width="29.123809523809527" height="29.123809523809527"><polygon points="100 37.5 62.5 37.5 62.5 0 37.5 0 37.5 37.5 0 37.5 0 62.5 37.5 62.5 37.5 100 62.5 100 62.5 62.5 100 62.5 100 37.5" fill="#E4B031"/></svg></g><g transform="translate(291.24,&#10;                                465.98) rotate(90, 14.561904761904763, 14.561904761904763)"><svg xmlns="http://www.w3.org/2000/svg" id="Layer_1" data-name="Layer 1" viewBox="0 0 100 100" width="29.123809523809527" height="29.123809523809527"><polygon points="100 37.5 62.5 37.5 62.5 0 37.5 0 37.5 37.5 0 37.5 0 62.5 37.5 62.5 37.5 100 62.5 100 62.5 62.5 100 62.5 100 37.5" fill="#E4B031"/></svg></g><g transform="translate(320.36,&#10;                                465.98) rotate(0, 14.561904761904763, 14.561904761904763)"><svg xmlns="http://www.w3.org/2000/svg" id="Layer_1" data-name="Layer 1" viewBox="0 0 100 100" width="29.123809523809527" height="29.123809523809527"><polygon points="100 37.5 62.5 37.5 62.5 0 37.5 0 37.5 37.5 0 37.5 0 62.5 37.5 62.5 37.5 100 62.5 100 62.5 62.5 100 62.5 100 37.5" fill="#E4AF00"/></svg></g><g transform="translate(262.11,&#10;                                495.10) rotate(180, 14.561904761904763, 14.561904761904763)"><svg xmlns="http://www.w3.org/2000/svg" id="Layer_1" data-name="Layer 1" viewBox="0 0 100 100" width="29.123809523809527" height="29.123809523809527"><polygon points="100 37.5 62.5 37.5 62.5 0 37.5 0 37.5 37.5 0 37.5 0 62.5 37.5 62.5 37.5 100 62.5 100 62.5 62.5 100 62.5 100 37.5" fill="#E4AF00"/></svg></g><g transform="translate(349.49,&#10;                                436.86) rotate(270, 14.561904761904763, 14.561904761904763)"><svg xmlns="http://www.w3.org/2000/svg" id="Layer_1" data-name="Layer 1" viewBox="0 0 100 100" width="29.123809523809527" height="29.123809523809527"><polygon points="100 37.5 62.5 37.5 62.5 0 37.5 0 37.5 37.5 0 37.5 0 62.5 37.5 62.5 37.5 100 62.5 100 62.5 62.5 100 62.5 100 37.5" fill="#E4B031"/></svg></g><g transform="translate(407.73,&#10;                                495.10) rotate(90, 14.561904761904763, 14.561904761904763)"><svg xmlns="http://www.w3.org/2000/svg" id="Layer_1" data-name="Layer 1" viewBox="0 0 100 100" width="29.123809523809527" height="29.123809523809527"><polygon points="100 37.5 62.5 37.5 62.5 0 37.5 0 37.5 37.5 0 37.5 0 62.5 37.5 62.5 37.5 100 62.5 100 62.5 62.5 100 62.5 100 37.5" fill="#E4B031"/></svg></g><g transform="translate(436.86,&#10;                                465.98) rotate(180, 14.561904761904763, 14.561904761904763)"><svg xmlns="http://www.w3.org/2000/svg" id="Layer_1" data-name="Layer 1" viewBox="0 0 100 100" width="29.123809523809527" height="29.123809523809527"><polygon points="100 37.5 62.5 37.5 62.5 0 37.5 0 37.5 37.5 0 37.5 0 62.5 37.5 62.5 37.5 100 62.5 100 62.5 62.5 100 62.5 100 37.5" fill="#E4AF00"/></svg></g><g transform="translate(524.23,&#10;                                465.98) rotate(180, 14.561904761904763, 14.561904761904763)"><svg xmlns="http://www.w3.org/2000/svg" id="Layer_1" data-name="Layer 1" viewBox="0 0 100 100" width="29.123809523809527" height="29.123809523809527"><polygon points="100 37.5 62.5 37.5 62.5 0 37.5 0 37.5 37.5 0 37.5 0 62.5 37.5 62.5 37.5 100 62.5 100 62.5 62.5 100 62.5 100 37.5" fill="#E8BA23"/></svg></g><g transform="translate(582.48,&#10;                                465.98) rotate(270, 14.561904761904763, 14.561904761904763)"><svg xmlns="http://www.w3.org/2000/svg" id="Layer_1" data-name="Layer 1" viewBox="0 0 100 100" width="29.123809523809527" height="29.123809523809527"><polygon points="100 37.5 62.5 37.5 62.5 0 37.5 0 37.5 37.5 0 37.5 0 62.5 37.5 62.5 37.5 100 62.5 100 62.5 62.5 100 62.5 100 37.5" fill="#E4AF00"/></svg></g><g transform="translate(553.35,&#10;                                495.10) rotate(0, 14.561904761904763, 14.561904761904763)"><svg xmlns="http://www.w3.org/2000/svg" id="Layer_1" data-name="Layer 1" viewBox="0 0 100 100" width="29.123809523809527" height="29.123809523809527"><polygon points="100 37.5 62.5 37.5 62.5 0 37.5 0 37.5 37.5 0 37.5 0 62.5 37.5 62.5 37.5 100 62.5 100 62.5 62.5 100 62.5 100 37.5" fill="#E4B031"/></svg></g></g><g><g transform="translate(0.00,&#10;                                553.35) rotate(0, 14.561904761904763, 14.561904761904763)"><svg xmlns="http://www.w3.org/2000/svg" id="Layer_1" data-name="Layer 1" viewBox="0 0 100 100" width="29.123809523809527" height="29.123809523809527"><polygon points="100 37.5 62.5 37.5 62.5 0 37.5 0 37.5 37.5 0 37.5 0 62.5 37.5 62.5 37.5 100 62.5 100 62.5 62.5 100 62.5 100 37.5" fill="#E4AF00"/></svg></g><g transform="translate(58.25,&#10;                                582.48) rotate(180, 14.561904761904763, 14.561904761904763)"><svg xmlns="http://www.w3.org/2000/svg" id="Layer_1" data-name="Layer 1" viewBox="0 0 100 100" width="29.123809523809527" height="29.123809523809527"><polygon points="100 37.5 62.5 37.5 62.5 0 37.5 0 37.5 37.5 0 37.5 0 62.5 37.5 62.5 37.5 100 62.5 100 62.5 62.5 100 62.5 100 37.5" fill="#E4B031"/></svg></g><g transform="translate(145.62,&#10;                                553.35) rotate(270, 14.561904761904763, 14.561904761904763)"><svg xmlns="http://www.w3.org/2000/svg" id="Layer_1" data-name="Layer 1" viewBox="0 0 100 100" width="29.123809523809527" height="29.123809523809527"><polygon points="100 37.5 62.5 37.5 62.5 0 37.5 0 37.5 37.5 0 37.5 0 62.5 37.5 62.5 37.5 100 62.5 100 62.5 62.5 100 62.5 100 37.5" fill="#E4AF00"/></svg></g><g transform="translate(87.37,&#10;                                582.48) rotate(270, 14.561904761904763, 14.561904761904763)"><svg xmlns="http://www.w3.org/2000/svg" id="Layer_1" data-name="Layer 1" viewBox="0 0 100 100" width="29.123809523809527" height="29.123809523809527"><polygon points="100 37.5 62.5 37.5 62.5 0 37.5 0 37.5 37.5 0 37.5 0 62.5 37.5 62.5 37.5 100 62.5 100 62.5 62.5 100 62.5 100 37.5" fill="#FDAA11"/></svg></g><g transform="translate(116.50,&#10;                                582.48) rotate(0, 14.561904761904763, 14.561904761904763)"><svg xmlns="http://www.w3.org/2000/svg" id="Layer_1" data-name="Layer 1" viewBox="0 0 100 100" width="29.123809523809527" height="29.123809523809527"><polygon points="100 37.5 62.5 37.5 62.5 0 37.5 0 37.5 37.5 0 37.5 0 62.5 37.5 62.5 37.5 100 62.5 100 62.5 62.5 100 62.5 100 37.5" fill="#E4B031"/></svg></g><g transform="translate(174.74,&#10;                                553.35) rotate(90, 14.561904761904763, 14.561904761904763)"><svg xmlns="http://www.w3.org/2000/svg" id="Layer_1" data-name="Layer 1" viewBox="0 0 100 100" width="29.123809523809527" height="29.123809523809527"><polygon points="100 37.5 62.5 37.5 62.5 0 37.5 0 37.5 37.5 0 37.5 0 62.5 37.5 62.5 37.5 100 62.5 100 62.5 62.5 100 62.5 100 37.5" fill="#E8BA23"/></svg></g><g transform="translate(232.99,&#10;                                553.35) rotate(0, 14.561904761904763, 14.561904761904763)"><svg xmlns="http://www.w3.org/2000/svg" id="Layer_1" data-name="Layer 1" viewBox="0 0 100 100" width="29.123809523809527" height="29.123809523809527"><polygon points="100 37.5 62.5 37.5 62.5 0 37.5 0 37.5 37.5 0 37.5 0 62.5 37.5 62.5 37.5 100 62.5 100 62.5 62.5 100 62.5 100 37.5" fill="#E4AF00"/></svg></g><g transform="translate(232.99,&#10;                                582.48) rotate(90, 14.561904761904763, 14.561904761904763)"><svg xmlns="http://www.w3.org/2000/svg" id="Layer_1" data-name="Layer 1" viewBox="0 0 100 100" width="29.123809523809527" height="29.123809523809527"><polygon points="100 37.5 62.5 37.5 62.5 0 37.5 0 37.5 37.5 0 37.5 0 62.5 37.5 62.5 37.5 100 62.5 100 62.5 62.5 100 62.5 100 37.5" fill="#E4B031"/></svg></g><g transform="translate(262.11,&#10;                                553.35) rotate(270, 14.561904761904763, 14.561904761904763)"><svg xmlns="http://www.w3.org/2000/svg" id="Layer_1" data-name="Layer 1" viewBox="0 0 100 100" width="29.123809523809527" height="29.123809523809527"><polygon points="100 37.5 62.5 37.5 62.5 0 37.5 0 37.5 37.5 0 37.5 0 62.5 37.5 62.5 37.5 100 62.5 100 62.5 62.5 100 62.5 100 37.5" fill="#E8BA23"/></svg></g><g transform="translate(320.36,&#10;                                553.35) rotate(90, 14.561904761904763, 14.561904761904763)"><svg xmlns="http://www.w3.org/2000/svg" id="Layer_1" data-name="Layer 1" viewBox="0 0 100 100" width="29.123809523809527" height="29.123809523809527"><polygon points="100 37.5 62.5 37.5 62.5 0 37.5 0 37.5 37.5 0 37.5 0 62.5 37.5 62.5 37.5 100 62.5 100 62.5 62.5 100 62.5 100 37.5" fill="#E4AF00"/></svg></g><g transform="translate(320.36,&#10;                                582.48) rotate(180, 14.561904761904763, 14.561904761904763)"><svg xmlns="http://www.w3.org/2000/svg" id="Layer_1" data-name="Layer 1" viewBox="0 0 100 100" width="29.123809523809527" height="29.123809523809527"><polygon points="100 37.5 62.5 37.5 62.5 0 37.5 0 37.5 37.5 0 37.5 0 62.5 37.5 62.5 37.5 100 62.5 100 62.5 62.5 100 62.5 100 37.5" fill="#E4B031"/></svg></g><g transform="translate(349.49,&#10;                                582.48) rotate(90, 14.561904761904763, 14.561904761904763)"><svg xmlns="http://www.w3.org/2000/svg" id="Layer_1" data-name="Layer 1" viewBox="0 0 100 100" width="29.123809523809527" height="29.123809523809527"><polygon points="100 37.5 62.5 37.5 62.5 0 37.5 0 37.5 37.5 0 37.5 0 62.5 37.5 62.5 37.5 100 62.5 100 62.5 62.5 100 62.5 100 37.5" fill="#FDAA11"/></svg></g><g transform="translate(407.73,&#10;                                582.48) rotate(180, 14.561904761904763, 14.561904761904763)"><svg xmlns="http://www.w3.org/2000/svg" id="Layer_1" data-name="Layer 1" viewBox="0 0 100 100" width="29.123809523809527" height="29.123809523809527"><polygon points="100 37.5 62.5 37.5 62.5 0 37.5 0 37.5 37.5 0 37.5 0 62.5 37.5 62.5 37.5 100 62.5 100 62.5 62.5 100 62.5 100 37.5" fill="#E4B031"/></svg></g><g transform="translate(436.86,&#10;                                553.35) rotate(90, 14.561904761904763, 14.561904761904763)"><svg xmlns="http://www.w3.org/2000/svg" id="Layer_1" data-name="Layer 1" viewBox="0 0 100 100" width="29.123809523809527" height="29.123809523809527"><polygon points="100 37.5 62.5 37.5 62.5 0 37.5 0 37.5 37.5 0 37.5 0 62.5 37.5 62.5 37.5 100 62.5 100 62.5 62.5 100 62.5 100 37.5" fill="#E4AF00"/></svg></g><g transform="translate(524.23,&#10;                                524.23) rotate(0, 14.561904761904763, 14.561904761904763)"><svg xmlns="http://www.w3.org/2000/svg" id="Layer_1" data-name="Layer 1" viewBox="0 0 100 100" width="29.123809523809527" height="29.123809523809527"><polygon points="100 37.5 62.5 37.5 62.5 0 37.5 0 37.5 37.5 0 37.5 0 62.5 37.5 62.5 37.5 100 62.5 100 62.5 62.5 100 62.5 100 37.5" fill="#E8BA23"/></svg></g><g transform="translate(553.35,&#10;                                553.35) rotate(90, 14.561904761904763, 14.561904761904763)"><svg xmlns="http://www.w3.org/2000/svg" id="Layer_1" data-name="Layer 1" viewBox="0 0 100 100" width="29.123809523809527" height="29.123809523809527"><polygon points="100 37.5 62.5 37.5 62.5 0 37.5 0 37.5 37.5 0 37.5 0 62.5 37.5 62.5 37.5 100 62.5 100 62.5 62.5 100 62.5 100 37.5" fill="#E4B031"/></svg></g><g transform="translate(582.48,&#10;                                553.35) rotate(0, 14.561904761904763, 14.561904761904763)"><svg xmlns="http://www.w3.org/2000/svg" id="Layer_1" data-name="Layer 1" viewBox="0 0 100 100" width="29.123809523809527" height="29.123809523809527"><polygon points="100 37.5 62.5 37.5 62.5 0 37.5 0 37.5 37.5 0 37.5 0 62.5 37.5 62.5 37.5 100 62.5 100 62.5 62.5 100 62.5 100 37.5" fill="#E4AF00"/></svg></g><g transform="translate(524.23,&#10;                                582.48) rotate(270, 14.561904761904763, 14.561904761904763)"><svg xmlns="http://www.w3.org/2000/svg" id="Layer_1" data-name="Layer 1" viewBox="0 0 100 100" width="29.123809523809527" height="29.123809523809527"><polygon points="100 37.5 62.5 37.5 62.5 0 37.5 0 37.5 37.5 0 37.5 0 62.5 37.5 62.5 37.5 100 62.5 100 62.5 62.5 100 62.5 100 37.5" fill="#E4AF00"/></svg></g><g transform="translate(553.35,&#10;                                582.48) rotate(180, 14.561904761904763, 14.561904761904763)"><svg xmlns="http://www.w3.org/2000/svg" id="Layer_1" data-name="Layer 1" viewBox="0 0 100 100" width="29.123809523809527" height="29.123809523809527"><polygon points="100 37.5 62.5 37.5 62.5 0 37.5 0 37.5 37.5 0 37.5 0 62.5 37.5 62.5 37.5 100 62.5 100 62.5 62.5 100 62.5 100 37.5" fill="#E4AF00"/></svg></g><g transform="translate(582.48,&#10;                                582.48) rotate(0, 14.561904761904763, 14.561904761904763)"><svg xmlns="http://www.w3.org/2000/svg" id="Layer_1" data-name="Layer 1" viewBox="0 0 100 100" width="29.123809523809527" height="29.123809523809527"><polygon points="100 37.5 62.5 37.5 62.5 0 37.5 0 37.5 37.5 0 37.5 0 62.5 37.5 62.5 37.5 100 62.5 100 62.5 62.5 100 62.5 100 37.5" fill="#E4B031"/></svg></g></g></svg>