<?xml version="1.0" standalone="no"?><svg xmlns:xlink="http://www.w3.org/1999/xlink" xmlns="http://www.w3.org/2000/svg" viewBox="0 0 1000 500" preserveAspectRatio="xMaxYMax slice"><g transform="scale(1.017087062652563)"><rect x="0" y="0" width="983.2" height="491.6" fill="#ffffff"/><g transform="translate(209.75,45.88) scale(0.3275) rotate(0)"><path d="M10 5L5 0L0 5L5 10L0 15L5 20L10 15L15 20L20 15L15 10L20 5L15 0L10 5Z" fill="#fbf2e9"/></g><rect x="373.616" y="45.882666666666665" width="6.554666666666666" height="6.554666666666666" fill="#ffffff"/><rect x="13.109333333333334" y="78.656" width="6.554666666666666" height="6.554666666666666" fill="#ffffff"/><rect x="209.7493333333333" y="78.656" width="6.554666666666666" height="6.554666666666666" fill="#ffffff"/><g transform="translate(213.03,78.66) scale(0.16399999999999998) rotate(0)"><path d="M10 5L5 0L0 5L5 10L0 15L5 20L10 15L15 20L20 15L15 10L20 5L15 0L10 5Z" fill="#f1d3b4"/></g><g transform="translate(209.75,81.93) scale(0.16399999999999998) rotate(0)"><path d="M10 5L5 0L0 5L5 10L0 15L5 20L10 15L15 20L20 15L15 10L20 5L15 0L10 5Z" fill="#f6e3d0"/></g><g transform="translate(635.8,78.66) scale(0.3275) rotate(0)"><path d="M10 5L5 0L0 5L5 10L0 15L5 20L10 15L15 20L20 15L15 10L20 5L15 0L10 5Z" fill="#f3d7bc"/></g><rect x="963.536" y="78.656" width="6.554666666666666" height="6.554666666666666" fill="#ffffff"/><g transform="translate(963.54,78.66) scale(0.16399999999999998) rotate(0)"><path d="M10 5L5 0L0 5L5 10L0 15L5 20L10 15L15 20L20 15L15 10L20 5L15 0L10 5Z" fill="#f0d0b0"/></g><g transform="translate(45.88,111.43) scale(0.3275) rotate(0)"><path d="M10 5L5 0L0 5L5 10L0 15L5 20L10 15L15 20L20 15L15 10L20 5L15 0L10 5Z" fill="#efcca9"/></g><g transform="translate(308.07,111.43) scale(0.3275) rotate(0)"><path d="M10 5L5 0L0 5L5 10L0 15L5 20L10 15L15 20L20 15L15 10L20 5L15 0L10 5Z" fill="#f5dfc9"/></g><g transform="translate(406.39,111.43) scale(0.3275) rotate(0)"><path d="M10 5L5 0L0 5L5 10L0 15L5 20L10 15L15 20L20 15L15 10L20 5L15 0L10 5Z" fill="#ebbf92"/></g><rect x="897.9893333333333" y="111.42933333333333" width="6.554666666666666" height="6.554666666666666" fill="#ffffff"/><g transform="translate(901.27,111.43) scale(0.16399999999999998) rotate(0)"><path d="M10 5L5 0L0 5L5 10L0 15L5 20L10 15L15 20L20 15L15 10L20 5L15 0L10 5Z" fill="#fbf1e7"/></g><rect x="111.42933333333333" y="144.20266666666666" width="6.554666666666666" height="6.554666666666666" fill="#ffffff"/><g transform="translate(111.43,147.48) scale(0.16399999999999998) rotate(0)"><path d="M10 5L5 0L0 5L5 10L0 15L5 20L10 15L15 20L20 15L15 10L20 5L15 0L10 5Z" fill="#eec7a0"/></g><g transform="translate(114.71,147.48) scale(0.16399999999999998) rotate(0)"><path d="M10 5L5 0L0 5L5 10L0 15L5 20L10 15L15 20L20 15L15 10L20 5L15 0L10 5Z" fill="#eabb8c"/></g><rect x="144.20266666666666" y="144.20266666666666" width="6.554666666666666" height="6.554666666666666" fill="#ffffff"/><g transform="translate(144.2,147.48) scale(0.16399999999999998) rotate(0)"><path d="M10 5L5 0L0 5L5 10L0 15L5 20L10 15L15 20L20 15L15 10L20 5L15 0L10 5Z" fill="#fcf4ed"/></g><rect x="242.52266666666665" y="144.20266666666666" width="6.554666666666666" height="6.554666666666666" fill="#ffffff"/><g transform="translate(245.8,147.48) scale(0.16399999999999998) rotate(0)"><path d="M10 5L5 0L0 5L5 10L0 15L5 20L10 15L15 20L20 15L15 10L20 5L15 0L10 5Z" fill="#edc39a"/></g><g transform="translate(471.94,144.2) scale(0.3275) rotate(0)"><path d="M10 5L5 0L0 5L5 10L0 15L5 20L10 15L15 20L20 15L15 10L20 5L15 0L10 5Z" fill="#eec8a1"/></g><rect x="537.4826666666667" y="144.20266666666666" width="6.554666666666666" height="6.554666666666666" fill="#ffffff"/><rect x="570.256" y="144.20266666666666" width="6.554666666666666" height="6.554666666666666" fill="#ffffff"/><g transform="translate(570.26,147.48) scale(0.16399999999999998) rotate(0)"><path d="M10 5L5 0L0 5L5 10L0 15L5 20L10 15L15 20L20 15L15 10L20 5L15 0L10 5Z" fill="#eabb8c"/></g><g transform="translate(603.03,144.2) scale(0.3275) rotate(0)"><path d="M10 5L5 0L0 5L5 10L0 15L5 20L10 15L15 20L20 15L15 10L20 5L15 0L10 5Z" fill="#f1d0b0"/></g><g transform="translate(635.8,144.2) scale(0.3275) rotate(0)"><path d="M10 5L5 0L0 5L5 10L0 15L5 20L10 15L15 20L20 15L15 10L20 5L15 0L10 5Z" fill="#fffefd"/></g><g transform="translate(865.22,144.2) scale(0.3275) rotate(0)"><path d="M10 5L5 0L0 5L5 10L0 15L5 20L10 15L15 20L20 15L15 10L20 5L15 0L10 5Z" fill="#f3d9bf"/></g><g transform="translate(45.88,176.98) scale(0.3275) rotate(0)"><path d="M10 5L5 0L0 5L5 10L0 15L5 20L10 15L15 20L20 15L15 10L20 5L15 0L10 5Z" fill="#f9eadc"/></g><rect x="144.20266666666666" y="176.976" width="6.554666666666666" height="6.554666666666666" fill="#ffffff"/><g transform="translate(144.2,176.98) scale(0.16399999999999998) rotate(0)"><path d="M10 5L5 0L0 5L5 10L0 15L5 20L10 15L15 20L20 15L15 10L20 5L15 0L10 5Z" fill="#fcf5ee"/></g><g transform="translate(242.52,176.98) scale(0.3275) rotate(0)"><path d="M10 5L5 0L0 5L5 10L0 15L5 20L10 15L15 20L20 15L15 10L20 5L15 0L10 5Z" fill="#eec7a1"/></g><rect x="340.8426666666667" y="176.976" width="6.554666666666666" height="6.554666666666666" fill="#ffffff"/><g transform="translate(344.12,180.25) scale(0.16399999999999998) rotate(0)"><path d="M10 5L5 0L0 5L5 10L0 15L5 20L10 15L15 20L20 15L15 10L20 5L15 0L10 5Z" fill="#e9b684"/></g><rect x="406.3893333333333" y="176.976" width="6.554666666666666" height="6.554666666666666" fill="#ffffff"/><g transform="translate(406.39,176.98) scale(0.16399999999999998) rotate(0)"><path d="M10 5L5 0L0 5L5 10L0 15L5 20L10 15L15 20L20 15L15 10L20 5L15 0L10 5Z" fill="#f2d4b6"/></g><g transform="translate(409.67,176.98) scale(0.16399999999999998) rotate(0)"><path d="M10 5L5 0L0 5L5 10L0 15L5 20L10 15L15 20L20 15L15 10L20 5L15 0L10 5Z" fill="#faede1"/></g><g transform="translate(406.39,180.25) scale(0.16399999999999998) rotate(0)"><path d="M10 5L5 0L0 5L5 10L0 15L5 20L10 15L15 20L20 15L15 10L20 5L15 0L10 5Z" fill="#f1d2b3"/></g><g transform="translate(409.67,180.25) scale(0.16399999999999998) rotate(0)"><path d="M10 5L5 0L0 5L5 10L0 15L5 20L10 15L15 20L20 15L15 10L20 5L15 0L10 5Z" fill="#eaba8b"/></g><rect x="537.4826666666667" y="176.976" width="6.554666666666666" height="6.554666666666666" fill="#ffffff"/><rect x="570.256" y="176.976" width="6.554666666666666" height="6.554666666666666" fill="#ffffff"/><g transform="translate(570.26,176.98) scale(0.16399999999999998) rotate(0)"><path d="M10 5L5 0L0 5L5 10L0 15L5 20L10 15L15 20L20 15L15 10L20 5L15 0L10 5Z" fill="#fefdfb"/></g><g transform="translate(573.53,176.98) scale(0.16399999999999998) rotate(0)"><path d="M10 5L5 0L0 5L5 10L0 15L5 20L10 15L15 20L20 15L15 10L20 5L15 0L10 5Z" fill="#f2d5b8"/></g><g transform="translate(603.03,176.98) scale(0.3275) rotate(0)"><path d="M10 5L5 0L0 5L5 10L0 15L5 20L10 15L15 20L20 15L15 10L20 5L15 0L10 5Z" fill="#ecc196"/></g><g transform="translate(635.8,176.98) scale(0.3275) rotate(0)"><path d="M10 5L5 0L0 5L5 10L0 15L5 20L10 15L15 20L20 15L15 10L20 5L15 0L10 5Z" fill="#fbf2e9"/></g><g transform="translate(799.67,176.98) scale(0.3275) rotate(0)"><path d="M10 5L5 0L0 5L5 10L0 15L5 20L10 15L15 20L20 15L15 10L20 5L15 0L10 5Z" fill="#f3d8bd"/></g><g transform="translate(832.44,176.98) scale(0.3275) rotate(0)"><path d="M10 5L5 0L0 5L5 10L0 15L5 20L10 15L15 20L20 15L15 10L20 5L15 0L10 5Z" fill="#ecc196"/></g><g transform="translate(897.99,176.98) scale(0.3275) rotate(0)"><path d="M10 5L5 0L0 5L5 10L0 15L5 20L10 15L15 20L20 15L15 10L20 5L15 0L10 5Z" fill="#f3d7bc"/></g><g transform="translate(13.11,209.75) scale(0.3275) rotate(0)"><path d="M10 5L5 0L0 5L5 10L0 15L5 20L10 15L15 20L20 15L15 10L20 5L15 0L10 5Z" fill="#f9ebdd"/></g><g transform="translate(111.43,209.75) scale(0.3275) rotate(0)"><path d="M10 5L5 0L0 5L5 10L0 15L5 20L10 15L15 20L20 15L15 10L20 5L15 0L10 5Z" fill="#fffefe"/></g><rect x="275.296" y="209.7493333333333" width="6.554666666666666" height="6.554666666666666" fill="#ffffff"/><g transform="translate(278.57,213.03) scale(0.16399999999999998) rotate(0)"><path d="M10 5L5 0L0 5L5 10L0 15L5 20L10 15L15 20L20 15L15 10L20 5L15 0L10 5Z" fill="#ecc399"/></g><rect x="308.0693333333333" y="209.7493333333333" width="6.554666666666666" height="6.554666666666666" fill="#ffffff"/><g transform="translate(311.35,213.03) scale(0.16399999999999998) rotate(0)"><path d="M10 5L5 0L0 5L5 10L0 15L5 20L10 15L15 20L20 15L15 10L20 5L15 0L10 5Z" fill="#e6ae77"/></g><g transform="translate(406.39,209.75) scale(0.3275) rotate(0)"><path d="M10 5L5 0L0 5L5 10L0 15L5 20L10 15L15 20L20 15L15 10L20 5L15 0L10 5Z" fill="#fdf7f2"/></g><rect x="668.576" y="209.7493333333333" width="6.554666666666666" height="6.554666666666666" fill="#ffffff"/><g transform="translate(701.35,209.75) scale(0.3275) rotate(0)"><path d="M10 5L5 0L0 5L5 10L0 15L5 20L10 15L15 20L20 15L15 10L20 5L15 0L10 5Z" fill="#e9b786"/></g><rect x="734.1226666666666" y="209.7493333333333" width="6.554666666666666" height="6.554666666666666" fill="#ffffff"/><g transform="translate(737.4,209.75) scale(0.16399999999999998) rotate(0)"><path d="M10 5L5 0L0 5L5 10L0 15L5 20L10 15L15 20L20 15L15 10L20 5L15 0L10 5Z" fill="#e7b27d"/></g><g transform="translate(737.4,213.03) scale(0.16399999999999998) rotate(0)"><path d="M10 5L5 0L0 5L5 10L0 15L5 20L10 15L15 20L20 15L15 10L20 5L15 0L10 5Z" fill="#f1d3b4"/></g><g transform="translate(799.67,209.75) scale(0.3275) rotate(0)"><path d="M10 5L5 0L0 5L5 10L0 15L5 20L10 15L15 20L20 15L15 10L20 5L15 0L10 5Z" fill="#f9ecdf"/></g><rect x="865.216" y="209.7493333333333" width="6.554666666666666" height="6.554666666666666" fill="#ffffff"/><g transform="translate(865.22,213.03) scale(0.16399999999999998) rotate(0)"><path d="M10 5L5 0L0 5L5 10L0 15L5 20L10 15L15 20L20 15L15 10L20 5L15 0L10 5Z" fill="#f7e6d5"/></g><g transform="translate(868.49,213.03) scale(0.16399999999999998) rotate(0)"><path d="M10 5L5 0L0 5L5 10L0 15L5 20L10 15L15 20L20 15L15 10L20 5L15 0L10 5Z" fill="#f1d3b5"/></g><rect x="930.7626666666666" y="209.7493333333333" width="6.554666666666666" height="6.554666666666666" fill="#ffffff"/><g transform="translate(934.04,209.75) scale(0.16399999999999998) rotate(0)"><path d="M10 5L5 0L0 5L5 10L0 15L5 20L10 15L15 20L20 15L15 10L20 5L15 0L10 5Z" fill="#fcf5ee"/></g><g transform="translate(930.76,213.03) scale(0.16399999999999998) rotate(0)"><path d="M10 5L5 0L0 5L5 10L0 15L5 20L10 15L15 20L20 15L15 10L20 5L15 0L10 5Z" fill="#fefcfa"/></g><rect x="963.536" y="209.7493333333333" width="6.554666666666666" height="6.554666666666666" fill="#ffffff"/><rect x="45.882666666666665" y="242.52266666666665" width="6.554666666666666" height="6.554666666666666" fill="#ffffff"/><g transform="translate(49.16,245.8) scale(0.16399999999999998) rotate(0)"><path d="M10 5L5 0L0 5L5 10L0 15L5 20L10 15L15 20L20 15L15 10L20 5L15 0L10 5Z" fill="#fbf2e9"/></g><g transform="translate(144.2,242.52) scale(0.3275) rotate(0)"><path d="M10 5L5 0L0 5L5 10L0 15L5 20L10 15L15 20L20 15L15 10L20 5L15 0L10 5Z" fill="#edc69e"/></g><g transform="translate(242.52,242.52) scale(0.3275) rotate(0)"><path d="M10 5L5 0L0 5L5 10L0 15L5 20L10 15L15 20L20 15L15 10L20 5L15 0L10 5Z" fill="#fcf5ee"/></g><rect x="275.296" y="242.52266666666665" width="6.554666666666666" height="6.554666666666666" fill="#ffffff"/><g transform="translate(278.57,242.52) scale(0.16399999999999998) rotate(0)"><path d="M10 5L5 0L0 5L5 10L0 15L5 20L10 15L15 20L20 15L15 10L20 5L15 0L10 5Z" fill="#f2d5b9"/></g><g transform="translate(373.62,242.52) scale(0.3275) rotate(0)"><path d="M10 5L5 0L0 5L5 10L0 15L5 20L10 15L15 20L20 15L15 10L20 5L15 0L10 5Z" fill="#fcf5ef"/></g><g transform="translate(406.39,242.52) scale(0.3275) rotate(0)"><path d="M10 5L5 0L0 5L5 10L0 15L5 20L10 15L15 20L20 15L15 10L20 5L15 0L10 5Z" fill="#f6e1cc"/></g><rect x="439.16266666666667" y="242.52266666666665" width="6.554666666666666" height="6.554666666666666" fill="#ffffff"/><g transform="translate(439.16,242.52) scale(0.16399999999999998) rotate(0)"><path d="M10 5L5 0L0 5L5 10L0 15L5 20L10 15L15 20L20 15L15 10L20 5L15 0L10 5Z" fill="#e5ab71"/></g><g transform="translate(442.44,242.52) scale(0.16399999999999998) rotate(0)"><path d="M10 5L5 0L0 5L5 10L0 15L5 20L10 15L15 20L20 15L15 10L20 5L15 0L10 5Z" fill="#fefbf9"/></g><g transform="translate(439.16,245.8) scale(0.16399999999999998) rotate(0)"><path d="M10 5L5 0L0 5L5 10L0 15L5 20L10 15L15 20L20 15L15 10L20 5L15 0L10 5Z" fill="#efcba7"/></g><rect x="504.70933333333335" y="242.52266666666665" width="6.554666666666666" height="6.554666666666666" fill="#ffffff"/><g transform="translate(504.71,242.52) scale(0.16399999999999998) rotate(0)"><path d="M10 5L5 0L0 5L5 10L0 15L5 20L10 15L15 20L20 15L15 10L20 5L15 0L10 5Z" fill="#edc69f"/></g><g transform="translate(507.99,242.52) scale(0.16399999999999998) rotate(0)"><path d="M10 5L5 0L0 5L5 10L0 15L5 20L10 15L15 20L20 15L15 10L20 5L15 0L10 5Z" fill="#fcf6ef"/></g><g transform="translate(504.71,245.8) scale(0.16399999999999998) rotate(0)"><path d="M10 5L5 0L0 5L5 10L0 15L5 20L10 15L15 20L20 15L15 10L20 5L15 0L10 5Z" fill="#ecc399"/></g><rect x="570.256" y="242.52266666666665" width="6.554666666666666" height="6.554666666666666" fill="#ffffff"/><g transform="translate(570.26,245.8) scale(0.16399999999999998) rotate(0)"><path d="M10 5L5 0L0 5L5 10L0 15L5 20L10 15L15 20L20 15L15 10L20 5L15 0L10 5Z" fill="#e7b17b"/></g><rect x="603.0293333333333" y="242.52266666666665" width="6.554666666666666" height="6.554666666666666" fill="#ffffff"/><g transform="translate(603.03,242.52) scale(0.16399999999999998) rotate(0)"><path d="M10 5L5 0L0 5L5 10L0 15L5 20L10 15L15 20L20 15L15 10L20 5L15 0L10 5Z" fill="#efcca9"/></g><g transform="translate(606.31,242.52) scale(0.16399999999999998) rotate(0)"><path d="M10 5L5 0L0 5L5 10L0 15L5 20L10 15L15 20L20 15L15 10L20 5L15 0L10 5Z" fill="#f8e9d9"/></g><g transform="translate(603.03,245.8) scale(0.16399999999999998) rotate(0)"><path d="M10 5L5 0L0 5L5 10L0 15L5 20L10 15L15 20L20 15L15 10L20 5L15 0L10 5Z" fill="#e8b481"/></g><g transform="translate(606.31,245.8) scale(0.16399999999999998) rotate(0)"><path d="M10 5L5 0L0 5L5 10L0 15L5 20L10 15L15 20L20 15L15 10L20 5L15 0L10 5Z" fill="#efcba7"/></g><rect x="635.8026666666667" y="242.52266666666665" width="6.554666666666666" height="6.554666666666666" fill="#ffffff"/><g transform="translate(635.8,242.52) scale(0.16399999999999998) rotate(0)"><path d="M10 5L5 0L0 5L5 10L0 15L5 20L10 15L15 20L20 15L15 10L20 5L15 0L10 5Z" fill="#f5dec6"/></g><g transform="translate(668.58,242.52) scale(0.3275) rotate(0)"><path d="M10 5L5 0L0 5L5 10L0 15L5 20L10 15L15 20L20 15L15 10L20 5L15 0L10 5Z" fill="#f6e3d0"/></g><g transform="translate(766.9,242.52) scale(0.3275) rotate(0)"><path d="M10 5L5 0L0 5L5 10L0 15L5 20L10 15L15 20L20 15L15 10L20 5L15 0L10 5Z" fill="#e8b582"/></g><g transform="translate(832.44,242.52) scale(0.3275) rotate(0)"><path d="M10 5L5 0L0 5L5 10L0 15L5 20L10 15L15 20L20 15L15 10L20 5L15 0L10 5Z" fill="#f0cfae"/></g><rect x="897.9893333333333" y="242.52266666666665" width="6.554666666666666" height="6.554666666666666" fill="#ffffff"/><g transform="translate(901.27,242.52) scale(0.16399999999999998) rotate(0)"><path d="M10 5L5 0L0 5L5 10L0 15L5 20L10 15L15 20L20 15L15 10L20 5L15 0L10 5Z" fill="#fefdfb"/></g><g transform="translate(897.99,245.8) scale(0.16399999999999998) rotate(0)"><path d="M10 5L5 0L0 5L5 10L0 15L5 20L10 15L15 20L20 15L15 10L20 5L15 0L10 5Z" fill="#f3d7bc"/></g><g transform="translate(901.27,245.8) scale(0.16399999999999998) rotate(0)"><path d="M10 5L5 0L0 5L5 10L0 15L5 20L10 15L15 20L20 15L15 10L20 5L15 0L10 5Z" fill="#ebbd90"/></g><rect x="963.536" y="242.52266666666665" width="6.554666666666666" height="6.554666666666666" fill="#ffffff"/><g transform="translate(963.54,242.52) scale(0.16399999999999998) rotate(0)"><path d="M10 5L5 0L0 5L5 10L0 15L5 20L10 15L15 20L20 15L15 10L20 5L15 0L10 5Z" fill="#efcca8"/></g><g transform="translate(966.81,242.52) scale(0.16399999999999998) rotate(0)"><path d="M10 5L5 0L0 5L5 10L0 15L5 20L10 15L15 20L20 15L15 10L20 5L15 0L10 5Z" fill="#f0cdab"/></g><g transform="translate(966.81,245.8) scale(0.16399999999999998) rotate(0)"><path d="M10 5L5 0L0 5L5 10L0 15L5 20L10 15L15 20L20 15L15 10L20 5L15 0L10 5Z" fill="#e9b988"/></g><rect x="13.109333333333334" y="275.296" width="6.554666666666666" height="6.554666666666666" fill="#ffffff"/><g transform="translate(13.11,278.57) scale(0.16399999999999998) rotate(0)"><path d="M10 5L5 0L0 5L5 10L0 15L5 20L10 15L15 20L20 15L15 10L20 5L15 0L10 5Z" fill="#faefe4"/></g><g transform="translate(16.39,278.57) scale(0.16399999999999998) rotate(0)"><path d="M10 5L5 0L0 5L5 10L0 15L5 20L10 15L15 20L20 15L15 10L20 5L15 0L10 5Z" fill="#fffefd"/></g><g transform="translate(78.66,275.3) scale(0.3275) rotate(0)"><path d="M10 5L5 0L0 5L5 10L0 15L5 20L10 15L15 20L20 15L15 10L20 5L15 0L10 5Z" fill="#f5dfc8"/></g><rect x="144.20266666666666" y="275.296" width="6.554666666666666" height="6.554666666666666" fill="#ffffff"/><g transform="translate(144.2,275.3) scale(0.16399999999999998) rotate(0)"><path d="M10 5L5 0L0 5L5 10L0 15L5 20L10 15L15 20L20 15L15 10L20 5L15 0L10 5Z" fill="#faf0e6"/></g><g transform="translate(147.48,275.3) scale(0.16399999999999998) rotate(0)"><path d="M10 5L5 0L0 5L5 10L0 15L5 20L10 15L15 20L20 15L15 10L20 5L15 0L10 5Z" fill="#fdf8f3"/></g><g transform="translate(144.2,278.57) scale(0.16399999999999998) rotate(0)"><path d="M10 5L5 0L0 5L5 10L0 15L5 20L10 15L15 20L20 15L15 10L20 5L15 0L10 5Z" fill="#fdf9f5"/></g><rect x="242.52266666666665" y="275.296" width="6.554666666666666" height="6.554666666666666" fill="#ffffff"/><g transform="translate(242.52,275.3) scale(0.16399999999999998) rotate(0)"><path d="M10 5L5 0L0 5L5 10L0 15L5 20L10 15L15 20L20 15L15 10L20 5L15 0L10 5Z" fill="#f9ede0"/></g><g transform="translate(245.8,275.3) scale(0.16399999999999998) rotate(0)"><path d="M10 5L5 0L0 5L5 10L0 15L5 20L10 15L15 20L20 15L15 10L20 5L15 0L10 5Z" fill="#e6ad75"/></g><g transform="translate(245.8,278.57) scale(0.16399999999999998) rotate(0)"><path d="M10 5L5 0L0 5L5 10L0 15L5 20L10 15L15 20L20 15L15 10L20 5L15 0L10 5Z" fill="#fcf4ec"/></g><g transform="translate(308.07,275.3) scale(0.3275) rotate(0)"><path d="M10 5L5 0L0 5L5 10L0 15L5 20L10 15L15 20L20 15L15 10L20 5L15 0L10 5Z" fill="#f3d7bc"/></g><g transform="translate(340.84,275.3) scale(0.3275) rotate(0)"><path d="M10 5L5 0L0 5L5 10L0 15L5 20L10 15L15 20L20 15L15 10L20 5L15 0L10 5Z" fill="#faefe3"/></g><rect x="373.616" y="275.296" width="6.554666666666666" height="6.554666666666666" fill="#ffffff"/><g transform="translate(373.62,275.3) scale(0.16399999999999998) rotate(0)"><path d="M10 5L5 0L0 5L5 10L0 15L5 20L10 15L15 20L20 15L15 10L20 5L15 0L10 5Z" fill="#ecc197"/></g><g transform="translate(376.89,275.3) scale(0.16399999999999998) rotate(0)"><path d="M10 5L5 0L0 5L5 10L0 15L5 20L10 15L15 20L20 15L15 10L20 5L15 0L10 5Z" fill="#f0d0af"/></g><g transform="translate(373.62,278.57) scale(0.16399999999999998) rotate(0)"><path d="M10 5L5 0L0 5L5 10L0 15L5 20L10 15L15 20L20 15L15 10L20 5L15 0L10 5Z" fill="#f2d5b8"/></g><g transform="translate(376.89,278.57) scale(0.16399999999999998) rotate(0)"><path d="M10 5L5 0L0 5L5 10L0 15L5 20L10 15L15 20L20 15L15 10L20 5L15 0L10 5Z" fill="#f8e8d8"/></g><g transform="translate(406.39,275.3) scale(0.3275) rotate(0)"><path d="M10 5L5 0L0 5L5 10L0 15L5 20L10 15L15 20L20 15L15 10L20 5L15 0L10 5Z" fill="#f4dcc4"/></g><g transform="translate(439.16,275.3) scale(0.3275) rotate(0)"><path d="M10 5L5 0L0 5L5 10L0 15L5 20L10 15L15 20L20 15L15 10L20 5L15 0L10 5Z" fill="#f5dfc9"/></g><rect x="471.936" y="275.296" width="6.554666666666666" height="6.554666666666666" fill="#ffffff"/><g transform="translate(471.94,275.3) scale(0.16399999999999998) rotate(0)"><path d="M10 5L5 0L0 5L5 10L0 15L5 20L10 15L15 20L20 15L15 10L20 5L15 0L10 5Z" fill="#fefcfa"/></g><g transform="translate(475.21,275.3) scale(0.16399999999999998) rotate(0)"><path d="M10 5L5 0L0 5L5 10L0 15L5 20L10 15L15 20L20 15L15 10L20 5L15 0L10 5Z" fill="#f8e8d8"/></g><g transform="translate(471.94,278.57) scale(0.16399999999999998) rotate(0)"><path d="M10 5L5 0L0 5L5 10L0 15L5 20L10 15L15 20L20 15L15 10L20 5L15 0L10 5Z" fill="#fdf9f4"/></g><g transform="translate(504.71,275.3) scale(0.3275) rotate(0)"><path d="M10 5L5 0L0 5L5 10L0 15L5 20L10 15L15 20L20 15L15 10L20 5L15 0L10 5Z" fill="#f6e1cc"/></g><rect x="537.4826666666667" y="275.296" width="6.554666666666666" height="6.554666666666666" fill="#ffffff"/><g transform="translate(537.48,275.3) scale(0.16399999999999998) rotate(0)"><path d="M10 5L5 0L0 5L5 10L0 15L5 20L10 15L15 20L20 15L15 10L20 5L15 0L10 5Z" fill="#eec8a3"/></g><g transform="translate(540.76,275.3) scale(0.16399999999999998) rotate(0)"><path d="M10 5L5 0L0 5L5 10L0 15L5 20L10 15L15 20L20 15L15 10L20 5L15 0L10 5Z" fill="#f3d7bb"/></g><g transform="translate(540.76,278.57) scale(0.16399999999999998) rotate(0)"><path d="M10 5L5 0L0 5L5 10L0 15L5 20L10 15L15 20L20 15L15 10L20 5L15 0L10 5Z" fill="#f3d9bf"/></g><g transform="translate(570.26,275.3) scale(0.3275) rotate(0)"><path d="M10 5L5 0L0 5L5 10L0 15L5 20L10 15L15 20L20 15L15 10L20 5L15 0L10 5Z" fill="#fdf7f2"/></g><rect x="603.0293333333333" y="275.296" width="6.554666666666666" height="6.554666666666666" fill="#ffffff"/><g transform="translate(603.03,278.57) scale(0.16399999999999998) rotate(0)"><path d="M10 5L5 0L0 5L5 10L0 15L5 20L10 15L15 20L20 15L15 10L20 5L15 0L10 5Z" fill="#ebbe91"/></g><g transform="translate(668.58,275.3) scale(0.3275) rotate(0)"><path d="M10 5L5 0L0 5L5 10L0 15L5 20L10 15L15 20L20 15L15 10L20 5L15 0L10 5Z" fill="#fefcfa"/></g><rect x="701.3493333333333" y="275.296" width="6.554666666666666" height="6.554666666666666" fill="#ffffff"/><g transform="translate(701.35,275.3) scale(0.16399999999999998) rotate(0)"><path d="M10 5L5 0L0 5L5 10L0 15L5 20L10 15L15 20L20 15L15 10L20 5L15 0L10 5Z" fill="#eec9a3"/></g><rect x="734.1226666666666" y="275.296" width="6.554666666666666" height="6.554666666666666" fill="#ffffff"/><g transform="translate(734.12,275.3) scale(0.16399999999999998) rotate(0)"><path d="M10 5L5 0L0 5L5 10L0 15L5 20L10 15L15 20L20 15L15 10L20 5L15 0L10 5Z" fill="#eecaa5"/></g><g transform="translate(737.4,275.3) scale(0.16399999999999998) rotate(0)"><path d="M10 5L5 0L0 5L5 10L0 15L5 20L10 15L15 20L20 15L15 10L20 5L15 0L10 5Z" fill="#edc59e"/></g><g transform="translate(734.12,278.57) scale(0.16399999999999998) rotate(0)"><path d="M10 5L5 0L0 5L5 10L0 15L5 20L10 15L15 20L20 15L15 10L20 5L15 0L10 5Z" fill="#faeee2"/></g><g transform="translate(737.4,278.57) scale(0.16399999999999998) rotate(0)"><path d="M10 5L5 0L0 5L5 10L0 15L5 20L10 15L15 20L20 15L15 10L20 5L15 0L10 5Z" fill="#faf0e6"/></g><g transform="translate(766.9,275.3) scale(0.3275) rotate(0)"><path d="M10 5L5 0L0 5L5 10L0 15L5 20L10 15L15 20L20 15L15 10L20 5L15 0L10 5Z" fill="#f0ceac"/></g><g transform="translate(799.67,275.3) scale(0.3275) rotate(0)"><path d="M10 5L5 0L0 5L5 10L0 15L5 20L10 15L15 20L20 15L15 10L20 5L15 0L10 5Z" fill="#eec9a4"/></g><g transform="translate(832.44,275.3) scale(0.3275) rotate(0)"><path d="M10 5L5 0L0 5L5 10L0 15L5 20L10 15L15 20L20 15L15 10L20 5L15 0L10 5Z" fill="#fdf7f1"/></g><rect x="865.216" y="275.296" width="6.554666666666666" height="6.554666666666666" fill="#ffffff"/><g transform="translate(865.22,275.3) scale(0.16399999999999998) rotate(0)"><path d="M10 5L5 0L0 5L5 10L0 15L5 20L10 15L15 20L20 15L15 10L20 5L15 0L10 5Z" fill="#fcf4ec"/></g><g transform="translate(868.49,275.3) scale(0.16399999999999998) rotate(0)"><path d="M10 5L5 0L0 5L5 10L0 15L5 20L10 15L15 20L20 15L15 10L20 5L15 0L10 5Z" fill="#e9b887"/></g><g transform="translate(865.22,278.57) scale(0.16399999999999998) rotate(0)"><path d="M10 5L5 0L0 5L5 10L0 15L5 20L10 15L15 20L20 15L15 10L20 5L15 0L10 5Z" fill="#fbf1e7"/></g><g transform="translate(897.99,275.3) scale(0.3275) rotate(0)"><path d="M10 5L5 0L0 5L5 10L0 15L5 20L10 15L15 20L20 15L15 10L20 5L15 0L10 5Z" fill="#f0d0af"/></g><rect x="963.536" y="275.296" width="6.554666666666666" height="6.554666666666666" fill="#ffffff"/><g transform="translate(963.54,275.3) scale(0.16399999999999998) rotate(0)"><path d="M10 5L5 0L0 5L5 10L0 15L5 20L10 15L15 20L20 15L15 10L20 5L15 0L10 5Z" fill="#f3dac0"/></g><g transform="translate(966.81,275.3) scale(0.16399999999999998) rotate(0)"><path d="M10 5L5 0L0 5L5 10L0 15L5 20L10 15L15 20L20 15L15 10L20 5L15 0L10 5Z" fill="#eec9a5"/></g><g transform="translate(963.54,278.57) scale(0.16399999999999998) rotate(0)"><path d="M10 5L5 0L0 5L5 10L0 15L5 20L10 15L15 20L20 15L15 10L20 5L15 0L10 5Z" fill="#f5e0cb"/></g><g transform="translate(966.81,278.57) scale(0.16399999999999998) rotate(0)"><path d="M10 5L5 0L0 5L5 10L0 15L5 20L10 15L15 20L20 15L15 10L20 5L15 0L10 5Z" fill="#e5ab71"/></g><rect x="13.109333333333334" y="308.0693333333333" width="6.554666666666666" height="6.554666666666666" fill="#ffffff"/><g transform="translate(16.39,308.07) scale(0.16399999999999998) rotate(0)"><path d="M10 5L5 0L0 5L5 10L0 15L5 20L10 15L15 20L20 15L15 10L20 5L15 0L10 5Z" fill="#ecc298"/></g><g transform="translate(16.39,311.35) scale(0.16399999999999998) rotate(0)"><path d="M10 5L5 0L0 5L5 10L0 15L5 20L10 15L15 20L20 15L15 10L20 5L15 0L10 5Z" fill="#fcf7f1"/></g><g transform="translate(45.88,308.07) scale(0.3275) rotate(0)"><path d="M10 5L5 0L0 5L5 10L0 15L5 20L10 15L15 20L20 15L15 10L20 5L15 0L10 5Z" fill="#f4ddc6"/></g><g transform="translate(78.66,308.07) scale(0.3275) rotate(0)"><path d="M10 5L5 0L0 5L5 10L0 15L5 20L10 15L15 20L20 15L15 10L20 5L15 0L10 5Z" fill="#f6e2cf"/></g><g transform="translate(111.43,308.07) scale(0.3275) rotate(0)"><path d="M10 5L5 0L0 5L5 10L0 15L5 20L10 15L15 20L20 15L15 10L20 5L15 0L10 5Z" fill="#fbf2ea"/></g><rect x="144.20266666666666" y="308.0693333333333" width="6.554666666666666" height="6.554666666666666" fill="#ffffff"/><g transform="translate(144.2,308.07) scale(0.16399999999999998) rotate(0)"><path d="M10 5L5 0L0 5L5 10L0 15L5 20L10 15L15 20L20 15L15 10L20 5L15 0L10 5Z" fill="#e9b785"/></g><g transform="translate(147.48,308.07) scale(0.16399999999999998) rotate(0)"><path d="M10 5L5 0L0 5L5 10L0 15L5 20L10 15L15 20L20 15L15 10L20 5L15 0L10 5Z" fill="#f8e8d7"/></g><g transform="translate(144.2,311.35) scale(0.16399999999999998) rotate(0)"><path d="M10 5L5 0L0 5L5 10L0 15L5 20L10 15L15 20L20 15L15 10L20 5L15 0L10 5Z" fill="#f6e3d0"/></g><g transform="translate(147.48,311.35) scale(0.16399999999999998) rotate(0)"><path d="M10 5L5 0L0 5L5 10L0 15L5 20L10 15L15 20L20 15L15 10L20 5L15 0L10 5Z" fill="#f5dec8"/></g><g transform="translate(176.98,308.07) scale(0.3275) rotate(0)"><path d="M10 5L5 0L0 5L5 10L0 15L5 20L10 15L15 20L20 15L15 10L20 5L15 0L10 5Z" fill="#eec9a3"/></g><g transform="translate(209.75,308.07) scale(0.3275) rotate(0)"><path d="M10 5L5 0L0 5L5 10L0 15L5 20L10 15L15 20L20 15L15 10L20 5L15 0L10 5Z" fill="#f7e7d6"/></g><g transform="translate(275.3,308.07) scale(0.3275) rotate(0)"><path d="M10 5L5 0L0 5L5 10L0 15L5 20L10 15L15 20L20 15L15 10L20 5L15 0L10 5Z" fill="#f6e3d0"/></g><rect x="340.8426666666667" y="308.0693333333333" width="6.554666666666666" height="6.554666666666666" fill="#ffffff"/><g transform="translate(340.84,308.07) scale(0.16399999999999998) rotate(0)"><path d="M10 5L5 0L0 5L5 10L0 15L5 20L10 15L15 20L20 15L15 10L20 5L15 0L10 5Z" fill="#f1d3b5"/></g><g transform="translate(340.84,311.35) scale(0.16399999999999998) rotate(0)"><path d="M10 5L5 0L0 5L5 10L0 15L5 20L10 15L15 20L20 15L15 10L20 5L15 0L10 5Z" fill="#ebbe90"/></g><g transform="translate(344.12,311.35) scale(0.16399999999999998) rotate(0)"><path d="M10 5L5 0L0 5L5 10L0 15L5 20L10 15L15 20L20 15L15 10L20 5L15 0L10 5Z" fill="#f0d0af"/></g><g transform="translate(373.62,308.07) scale(0.3275) rotate(0)"><path d="M10 5L5 0L0 5L5 10L0 15L5 20L10 15L15 20L20 15L15 10L20 5L15 0L10 5Z" fill="#f1d2b2"/></g><rect x="406.3893333333333" y="308.0693333333333" width="6.554666666666666" height="6.554666666666666" fill="#ffffff"/><g transform="translate(406.39,308.07) scale(0.16399999999999998) rotate(0)"><path d="M10 5L5 0L0 5L5 10L0 15L5 20L10 15L15 20L20 15L15 10L20 5L15 0L10 5Z" fill="#fbf2ea"/></g><g transform="translate(409.67,308.07) scale(0.16399999999999998) rotate(0)"><path d="M10 5L5 0L0 5L5 10L0 15L5 20L10 15L15 20L20 15L15 10L20 5L15 0L10 5Z" fill="#fffefd"/></g><g transform="translate(406.39,311.35) scale(0.16399999999999998) rotate(0)"><path d="M10 5L5 0L0 5L5 10L0 15L5 20L10 15L15 20L20 15L15 10L20 5L15 0L10 5Z" fill="#fefcfa"/></g><g transform="translate(409.67,311.35) scale(0.16399999999999998) rotate(0)"><path d="M10 5L5 0L0 5L5 10L0 15L5 20L10 15L15 20L20 15L15 10L20 5L15 0L10 5Z" fill="#f6e3d0"/></g><g transform="translate(504.71,308.07) scale(0.3275) rotate(0)"><path d="M10 5L5 0L0 5L5 10L0 15L5 20L10 15L15 20L20 15L15 10L20 5L15 0L10 5Z" fill="#e8b683"/></g><rect x="570.256" y="308.0693333333333" width="6.554666666666666" height="6.554666666666666" fill="#ffffff"/><g transform="translate(570.26,308.07) scale(0.16399999999999998) rotate(0)"><path d="M10 5L5 0L0 5L5 10L0 15L5 20L10 15L15 20L20 15L15 10L20 5L15 0L10 5Z" fill="#fefcfa"/></g><g transform="translate(570.26,311.35) scale(0.16399999999999998) rotate(0)"><path d="M10 5L5 0L0 5L5 10L0 15L5 20L10 15L15 20L20 15L15 10L20 5L15 0L10 5Z" fill="#f4ddc5"/></g><g transform="translate(573.53,311.35) scale(0.16399999999999998) rotate(0)"><path d="M10 5L5 0L0 5L5 10L0 15L5 20L10 15L15 20L20 15L15 10L20 5L15 0L10 5Z" fill="#ecc39a"/></g><g transform="translate(603.03,308.07) scale(0.3275) rotate(0)"><path d="M10 5L5 0L0 5L5 10L0 15L5 20L10 15L15 20L20 15L15 10L20 5L15 0L10 5Z" fill="#eabc8d"/></g><rect x="635.8026666666667" y="308.0693333333333" width="6.554666666666666" height="6.554666666666666" fill="#ffffff"/><g transform="translate(635.8,308.07) scale(0.16399999999999998) rotate(0)"><path d="M10 5L5 0L0 5L5 10L0 15L5 20L10 15L15 20L20 15L15 10L20 5L15 0L10 5Z" fill="#f5ddc6"/></g><g transform="translate(639.08,308.07) scale(0.16399999999999998) rotate(0)"><path d="M10 5L5 0L0 5L5 10L0 15L5 20L10 15L15 20L20 15L15 10L20 5L15 0L10 5Z" fill="#ebbf92"/></g><g transform="translate(635.8,311.35) scale(0.16399999999999998) rotate(0)"><path d="M10 5L5 0L0 5L5 10L0 15L5 20L10 15L15 20L20 15L15 10L20 5L15 0L10 5Z" fill="#faf0e6"/></g><g transform="translate(668.58,308.07) scale(0.3275) rotate(0)"><path d="M10 5L5 0L0 5L5 10L0 15L5 20L10 15L15 20L20 15L15 10L20 5L15 0L10 5Z" fill="#f5dfc9"/></g><g transform="translate(734.12,308.07) scale(0.3275) rotate(0)"><path d="M10 5L5 0L0 5L5 10L0 15L5 20L10 15L15 20L20 15L15 10L20 5L15 0L10 5Z" fill="#e6ae76"/></g><rect x="766.896" y="308.0693333333333" width="6.554666666666666" height="6.554666666666666" fill="#ffffff"/><g transform="translate(766.9,308.07) scale(0.16399999999999998) rotate(0)"><path d="M10 5L5 0L0 5L5 10L0 15L5 20L10 15L15 20L20 15L15 10L20 5L15 0L10 5Z" fill="#f3d8be"/></g><g transform="translate(766.9,311.35) scale(0.16399999999999998) rotate(0)"><path d="M10 5L5 0L0 5L5 10L0 15L5 20L10 15L15 20L20 15L15 10L20 5L15 0L10 5Z" fill="#fbf2ea"/></g><g transform="translate(770.17,311.35) scale(0.16399999999999998) rotate(0)"><path d="M10 5L5 0L0 5L5 10L0 15L5 20L10 15L15 20L20 15L15 10L20 5L15 0L10 5Z" fill="#f7e5d4"/></g><rect x="799.6693333333333" y="308.0693333333333" width="6.554666666666666" height="6.554666666666666" fill="#ffffff"/><g transform="translate(802.95,308.07) scale(0.16399999999999998) rotate(0)"><path d="M10 5L5 0L0 5L5 10L0 15L5 20L10 15L15 20L20 15L15 10L20 5L15 0L10 5Z" fill="#ecc39a"/></g><g transform="translate(799.67,311.35) scale(0.16399999999999998) rotate(0)"><path d="M10 5L5 0L0 5L5 10L0 15L5 20L10 15L15 20L20 15L15 10L20 5L15 0L10 5Z" fill="#f4ddc6"/></g><g transform="translate(802.95,311.35) scale(0.16399999999999998) rotate(0)"><path d="M10 5L5 0L0 5L5 10L0 15L5 20L10 15L15 20L20 15L15 10L20 5L15 0L10 5Z" fill="#fcf6f0"/></g><rect x="832.4426666666667" y="308.0693333333333" width="6.554666666666666" height="6.554666666666666" fill="#ffffff"/><g transform="translate(832.44,308.07) scale(0.16399999999999998) rotate(0)"><path d="M10 5L5 0L0 5L5 10L0 15L5 20L10 15L15 20L20 15L15 10L20 5L15 0L10 5Z" fill="#fcf4ec"/></g><g transform="translate(832.44,311.35) scale(0.16399999999999998) rotate(0)"><path d="M10 5L5 0L0 5L5 10L0 15L5 20L10 15L15 20L20 15L15 10L20 5L15 0L10 5Z" fill="#edc69f"/></g><g transform="translate(835.72,311.35) scale(0.16399999999999998) rotate(0)"><path d="M10 5L5 0L0 5L5 10L0 15L5 20L10 15L15 20L20 15L15 10L20 5L15 0L10 5Z" fill="#f5e0cb"/></g><g transform="translate(865.22,308.07) scale(0.3275) rotate(0)"><path d="M10 5L5 0L0 5L5 10L0 15L5 20L10 15L15 20L20 15L15 10L20 5L15 0L10 5Z" fill="#fcf6f0"/></g><g transform="translate(897.99,308.07) scale(0.3275) rotate(0)"><path d="M10 5L5 0L0 5L5 10L0 15L5 20L10 15L15 20L20 15L15 10L20 5L15 0L10 5Z" fill="#f8e8d8"/></g><rect x="963.536" y="308.0693333333333" width="6.554666666666666" height="6.554666666666666" fill="#ffffff"/><g transform="translate(963.54,308.07) scale(0.16399999999999998) rotate(0)"><path d="M10 5L5 0L0 5L5 10L0 15L5 20L10 15L15 20L20 15L15 10L20 5L15 0L10 5Z" fill="#eec7a1"/></g><g transform="translate(966.81,308.07) scale(0.16399999999999998) rotate(0)"><path d="M10 5L5 0L0 5L5 10L0 15L5 20L10 15L15 20L20 15L15 10L20 5L15 0L10 5Z" fill="#fdf8f4"/></g><g transform="translate(966.81,311.35) scale(0.16399999999999998) rotate(0)"><path d="M10 5L5 0L0 5L5 10L0 15L5 20L10 15L15 20L20 15L15 10L20 5L15 0L10 5Z" fill="#f7e6d4"/></g><g transform="translate(13.11,340.84) scale(0.3275) rotate(0)"><path d="M10 5L5 0L0 5L5 10L0 15L5 20L10 15L15 20L20 15L15 10L20 5L15 0L10 5Z" fill="#fefbf8"/></g><rect x="78.656" y="340.8426666666667" width="6.554666666666666" height="6.554666666666666" fill="#ffffff"/><g transform="translate(78.66,340.84) scale(0.16399999999999998) rotate(0)"><path d="M10 5L5 0L0 5L5 10L0 15L5 20L10 15L15 20L20 15L15 10L20 5L15 0L10 5Z" fill="#fdfaf6"/></g><g transform="translate(81.93,340.84) scale(0.16399999999999998) rotate(0)"><path d="M10 5L5 0L0 5L5 10L0 15L5 20L10 15L15 20L20 15L15 10L20 5L15 0L10 5Z" fill="#f2d5b8"/></g><g transform="translate(78.66,344.12) scale(0.16399999999999998) rotate(0)"><path d="M10 5L5 0L0 5L5 10L0 15L5 20L10 15L15 20L20 15L15 10L20 5L15 0L10 5Z" fill="#f7e5d3"/></g><g transform="translate(81.93,344.12) scale(0.16399999999999998) rotate(0)"><path d="M10 5L5 0L0 5L5 10L0 15L5 20L10 15L15 20L20 15L15 10L20 5L15 0L10 5Z" fill="#e9b989"/></g><rect x="111.42933333333333" y="340.8426666666667" width="6.554666666666666" height="6.554666666666666" fill="#ffffff"/><g transform="translate(111.43,340.84) scale(0.16399999999999998) rotate(0)"><path d="M10 5L5 0L0 5L5 10L0 15L5 20L10 15L15 20L20 15L15 10L20 5L15 0L10 5Z" fill="#fcf6f0"/></g><g transform="translate(114.71,340.84) scale(0.16399999999999998) rotate(0)"><path d="M10 5L5 0L0 5L5 10L0 15L5 20L10 15L15 20L20 15L15 10L20 5L15 0L10 5Z" fill="#edc49b"/></g><g transform="translate(111.43,344.12) scale(0.16399999999999998) rotate(0)"><path d="M10 5L5 0L0 5L5 10L0 15L5 20L10 15L15 20L20 15L15 10L20 5L15 0L10 5Z" fill="#f5dfca"/></g><g transform="translate(114.71,344.12) scale(0.16399999999999998) rotate(0)"><path d="M10 5L5 0L0 5L5 10L0 15L5 20L10 15L15 20L20 15L15 10L20 5L15 0L10 5Z" fill="#faefe3"/></g><rect x="144.20266666666666" y="340.8426666666667" width="6.554666666666666" height="6.554666666666666" fill="#ffffff"/><g transform="translate(144.2,340.84) scale(0.16399999999999998) rotate(0)"><path d="M10 5L5 0L0 5L5 10L0 15L5 20L10 15L15 20L20 15L15 10L20 5L15 0L10 5Z" fill="#f5dfc9"/></g><g transform="translate(147.48,340.84) scale(0.16399999999999998) rotate(0)"><path d="M10 5L5 0L0 5L5 10L0 15L5 20L10 15L15 20L20 15L15 10L20 5L15 0L10 5Z" fill="#eabb8b"/></g><g transform="translate(144.2,344.12) scale(0.16399999999999998) rotate(0)"><path d="M10 5L5 0L0 5L5 10L0 15L5 20L10 15L15 20L20 15L15 10L20 5L15 0L10 5Z" fill="#fcf4ed"/></g><g transform="translate(147.48,344.12) scale(0.16399999999999998) rotate(0)"><path d="M10 5L5 0L0 5L5 10L0 15L5 20L10 15L15 20L20 15L15 10L20 5L15 0L10 5Z" fill="#fcf6f0"/></g><g transform="translate(176.98,340.84) scale(0.3275) rotate(0)"><path d="M10 5L5 0L0 5L5 10L0 15L5 20L10 15L15 20L20 15L15 10L20 5L15 0L10 5Z" fill="#f0ceac"/></g><g transform="translate(242.52,340.84) scale(0.3275) rotate(0)"><path d="M10 5L5 0L0 5L5 10L0 15L5 20L10 15L15 20L20 15L15 10L20 5L15 0L10 5Z" fill="#fdf9f4"/></g><g transform="translate(275.3,340.84) scale(0.3275) rotate(0)"><path d="M10 5L5 0L0 5L5 10L0 15L5 20L10 15L15 20L20 15L15 10L20 5L15 0L10 5Z" fill="#f9eadc"/></g><g transform="translate(308.07,340.84) scale(0.3275) rotate(0)"><path d="M10 5L5 0L0 5L5 10L0 15L5 20L10 15L15 20L20 15L15 10L20 5L15 0L10 5Z" fill="#f6e1cd"/></g><rect x="340.8426666666667" y="340.8426666666667" width="6.554666666666666" height="6.554666666666666" fill="#ffffff"/><g transform="translate(340.84,340.84) scale(0.16399999999999998) rotate(0)"><path d="M10 5L5 0L0 5L5 10L0 15L5 20L10 15L15 20L20 15L15 10L20 5L15 0L10 5Z" fill="#f1d0b0"/></g><g transform="translate(340.84,344.12) scale(0.16399999999999998) rotate(0)"><path d="M10 5L5 0L0 5L5 10L0 15L5 20L10 15L15 20L20 15L15 10L20 5L15 0L10 5Z" fill="#f6e1cc"/></g><g transform="translate(344.12,344.12) scale(0.16399999999999998) rotate(0)"><path d="M10 5L5 0L0 5L5 10L0 15L5 20L10 15L15 20L20 15L15 10L20 5L15 0L10 5Z" fill="#f7e5d4"/></g><rect x="373.616" y="340.8426666666667" width="6.554666666666666" height="6.554666666666666" fill="#ffffff"/><g transform="translate(373.62,340.84) scale(0.16399999999999998) rotate(0)"><path d="M10 5L5 0L0 5L5 10L0 15L5 20L10 15L15 20L20 15L15 10L20 5L15 0L10 5Z" fill="#f0cdab"/></g><g transform="translate(376.89,340.84) scale(0.16399999999999998) rotate(0)"><path d="M10 5L5 0L0 5L5 10L0 15L5 20L10 15L15 20L20 15L15 10L20 5L15 0L10 5Z" fill="#ebbe91"/></g><rect x="406.3893333333333" y="340.8426666666667" width="6.554666666666666" height="6.554666666666666" fill="#ffffff"/><g transform="translate(406.39,340.84) scale(0.16399999999999998) rotate(0)"><path d="M10 5L5 0L0 5L5 10L0 15L5 20L10 15L15 20L20 15L15 10L20 5L15 0L10 5Z" fill="#f1d2b3"/></g><g transform="translate(409.67,340.84) scale(0.16399999999999998) rotate(0)"><path d="M10 5L5 0L0 5L5 10L0 15L5 20L10 15L15 20L20 15L15 10L20 5L15 0L10 5Z" fill="#fdf9f5"/></g><g transform="translate(406.39,344.12) scale(0.16399999999999998) rotate(0)"><path d="M10 5L5 0L0 5L5 10L0 15L5 20L10 15L15 20L20 15L15 10L20 5L15 0L10 5Z" fill="#fefdfc"/></g><g transform="translate(409.67,344.12) scale(0.16399999999999998) rotate(0)"><path d="M10 5L5 0L0 5L5 10L0 15L5 20L10 15L15 20L20 15L15 10L20 5L15 0L10 5Z" fill="#f7e7d6"/></g><rect x="471.936" y="340.8426666666667" width="6.554666666666666" height="6.554666666666666" fill="#ffffff"/><g transform="translate(471.94,340.84) scale(0.16399999999999998) rotate(0)"><path d="M10 5L5 0L0 5L5 10L0 15L5 20L10 15L15 20L20 15L15 10L20 5L15 0L10 5Z" fill="#ffffff"/></g><g transform="translate(471.94,344.12) scale(0.16399999999999998) rotate(0)"><path d="M10 5L5 0L0 5L5 10L0 15L5 20L10 15L15 20L20 15L15 10L20 5L15 0L10 5Z" fill="#fbf1e7"/></g><g transform="translate(475.21,344.12) scale(0.16399999999999998) rotate(0)"><path d="M10 5L5 0L0 5L5 10L0 15L5 20L10 15L15 20L20 15L15 10L20 5L15 0L10 5Z" fill="#fefbf8"/></g><g transform="translate(504.71,340.84) scale(0.3275) rotate(0)"><path d="M10 5L5 0L0 5L5 10L0 15L5 20L10 15L15 20L20 15L15 10L20 5L15 0L10 5Z" fill="#f5dfca"/></g><rect x="537.4826666666667" y="340.8426666666667" width="6.554666666666666" height="6.554666666666666" fill="#ffffff"/><g transform="translate(537.48,344.12) scale(0.16399999999999998) rotate(0)"><path d="M10 5L5 0L0 5L5 10L0 15L5 20L10 15L15 20L20 15L15 10L20 5L15 0L10 5Z" fill="#f3d7bc"/></g><g transform="translate(668.58,340.84) scale(0.3275) rotate(0)"><path d="M10 5L5 0L0 5L5 10L0 15L5 20L10 15L15 20L20 15L15 10L20 5L15 0L10 5Z" fill="#f9eadc"/></g><g transform="translate(701.35,340.84) scale(0.3275) rotate(0)"><path d="M10 5L5 0L0 5L5 10L0 15L5 20L10 15L15 20L20 15L15 10L20 5L15 0L10 5Z" fill="#e6ae75"/></g><g transform="translate(734.12,340.84) scale(0.3275) rotate(0)"><path d="M10 5L5 0L0 5L5 10L0 15L5 20L10 15L15 20L20 15L15 10L20 5L15 0L10 5Z" fill="#f2d4b7"/></g><rect x="766.896" y="340.8426666666667" width="6.554666666666666" height="6.554666666666666" fill="#ffffff"/><g transform="translate(770.17,340.84) scale(0.16399999999999998) rotate(0)"><path d="M10 5L5 0L0 5L5 10L0 15L5 20L10 15L15 20L20 15L15 10L20 5L15 0L10 5Z" fill="#ebbd90"/></g><g transform="translate(766.9,344.12) scale(0.16399999999999998) rotate(0)"><path d="M10 5L5 0L0 5L5 10L0 15L5 20L10 15L15 20L20 15L15 10L20 5L15 0L10 5Z" fill="#f8e9d9"/></g><g transform="translate(770.17,344.12) scale(0.16399999999999998) rotate(0)"><path d="M10 5L5 0L0 5L5 10L0 15L5 20L10 15L15 20L20 15L15 10L20 5L15 0L10 5Z" fill="#fdf9f4"/></g><rect x="799.6693333333333" y="340.8426666666667" width="6.554666666666666" height="6.554666666666666" fill="#ffffff"/><g transform="translate(802.95,340.84) scale(0.16399999999999998) rotate(0)"><path d="M10 5L5 0L0 5L5 10L0 15L5 20L10 15L15 20L20 15L15 10L20 5L15 0L10 5Z" fill="#fdfaf6"/></g><g transform="translate(832.44,340.84) scale(0.3275) rotate(0)"><path d="M10 5L5 0L0 5L5 10L0 15L5 20L10 15L15 20L20 15L15 10L20 5L15 0L10 5Z" fill="#fbf3eb"/></g><rect x="865.216" y="340.8426666666667" width="6.554666666666666" height="6.554666666666666" fill="#ffffff"/><g transform="translate(865.22,340.84) scale(0.16399999999999998) rotate(0)"><path d="M10 5L5 0L0 5L5 10L0 15L5 20L10 15L15 20L20 15L15 10L20 5L15 0L10 5Z" fill="#e9b785"/></g><g transform="translate(868.49,340.84) scale(0.16399999999999998) rotate(0)"><path d="M10 5L5 0L0 5L5 10L0 15L5 20L10 15L15 20L20 15L15 10L20 5L15 0L10 5Z" fill="#e7b17b"/></g><g transform="translate(865.22,344.12) scale(0.16399999999999998) rotate(0)"><path d="M10 5L5 0L0 5L5 10L0 15L5 20L10 15L15 20L20 15L15 10L20 5L15 0L10 5Z" fill="#eecaa5"/></g><g transform="translate(868.49,344.12) scale(0.16399999999999998) rotate(0)"><path d="M10 5L5 0L0 5L5 10L0 15L5 20L10 15L15 20L20 15L15 10L20 5L15 0L10 5Z" fill="#fcf5ee"/></g><g transform="translate(897.99,340.84) scale(0.3275) rotate(0)"><path d="M10 5L5 0L0 5L5 10L0 15L5 20L10 15L15 20L20 15L15 10L20 5L15 0L10 5Z" fill="#f4dcc3"/></g><g transform="translate(930.76,340.84) scale(0.3275) rotate(0)"><path d="M10 5L5 0L0 5L5 10L0 15L5 20L10 15L15 20L20 15L15 10L20 5L15 0L10 5Z" fill="#fcf5ef"/></g><g transform="translate(963.54,340.84) scale(0.3275) rotate(0)"><path d="M10 5L5 0L0 5L5 10L0 15L5 20L10 15L15 20L20 15L15 10L20 5L15 0L10 5Z" fill="#f3d9c0"/></g><g transform="translate(78.66,373.62) scale(0.3275) rotate(0)"><path d="M10 5L5 0L0 5L5 10L0 15L5 20L10 15L15 20L20 15L15 10L20 5L15 0L10 5Z" fill="#fbf2e9"/></g><g transform="translate(111.43,373.62) scale(0.3275) rotate(0)"><path d="M10 5L5 0L0 5L5 10L0 15L5 20L10 15L15 20L20 15L15 10L20 5L15 0L10 5Z" fill="#f1d0b0"/></g><rect x="144.20266666666666" y="373.616" width="6.554666666666666" height="6.554666666666666" fill="#ffffff"/><g transform="translate(144.2,373.62) scale(0.16399999999999998) rotate(0)"><path d="M10 5L5 0L0 5L5 10L0 15L5 20L10 15L15 20L20 15L15 10L20 5L15 0L10 5Z" fill="#f8e7d7"/></g><rect x="176.976" y="373.616" width="6.554666666666666" height="6.554666666666666" fill="#ffffff"/><g transform="translate(176.98,373.62) scale(0.16399999999999998) rotate(0)"><path d="M10 5L5 0L0 5L5 10L0 15L5 20L10 15L15 20L20 15L15 10L20 5L15 0L10 5Z" fill="#eec9a4"/></g><g transform="translate(180.25,373.62) scale(0.16399999999999998) rotate(0)"><path d="M10 5L5 0L0 5L5 10L0 15L5 20L10 15L15 20L20 15L15 10L20 5L15 0L10 5Z" fill="#ecc399"/></g><g transform="translate(176.98,376.89) scale(0.16399999999999998) rotate(0)"><path d="M10 5L5 0L0 5L5 10L0 15L5 20L10 15L15 20L20 15L15 10L20 5L15 0L10 5Z" fill="#faf0e5"/></g><g transform="translate(180.25,376.89) scale(0.16399999999999998) rotate(0)"><path d="M10 5L5 0L0 5L5 10L0 15L5 20L10 15L15 20L20 15L15 10L20 5L15 0L10 5Z" fill="#fefdfb"/></g><rect x="209.7493333333333" y="373.616" width="6.554666666666666" height="6.554666666666666" fill="#ffffff"/><g transform="translate(209.75,376.89) scale(0.16399999999999998) rotate(0)"><path d="M10 5L5 0L0 5L5 10L0 15L5 20L10 15L15 20L20 15L15 10L20 5L15 0L10 5Z" fill="#fcf6ef"/></g><g transform="translate(213.03,376.89) scale(0.16399999999999998) rotate(0)"><path d="M10 5L5 0L0 5L5 10L0 15L5 20L10 15L15 20L20 15L15 10L20 5L15 0L10 5Z" fill="#fcf6f0"/></g><g transform="translate(242.52,373.62) scale(0.3275) rotate(0)"><path d="M10 5L5 0L0 5L5 10L0 15L5 20L10 15L15 20L20 15L15 10L20 5L15 0L10 5Z" fill="#f6e1cd"/></g><g transform="translate(275.3,373.62) scale(0.3275) rotate(0)"><path d="M10 5L5 0L0 5L5 10L0 15L5 20L10 15L15 20L20 15L15 10L20 5L15 0L10 5Z" fill="#faefe4"/></g><rect x="340.8426666666667" y="373.616" width="6.554666666666666" height="6.554666666666666" fill="#ffffff"/><g transform="translate(340.84,373.62) scale(0.16399999999999998) rotate(0)"><path d="M10 5L5 0L0 5L5 10L0 15L5 20L10 15L15 20L20 15L15 10L20 5L15 0L10 5Z" fill="#fffefe"/></g><g transform="translate(344.12,373.62) scale(0.16399999999999998) rotate(0)"><path d="M10 5L5 0L0 5L5 10L0 15L5 20L10 15L15 20L20 15L15 10L20 5L15 0L10 5Z" fill="#edc69f"/></g><g transform="translate(340.84,376.89) scale(0.16399999999999998) rotate(0)"><path d="M10 5L5 0L0 5L5 10L0 15L5 20L10 15L15 20L20 15L15 10L20 5L15 0L10 5Z" fill="#e5ac73"/></g><g transform="translate(344.12,376.89) scale(0.16399999999999998) rotate(0)"><path d="M10 5L5 0L0 5L5 10L0 15L5 20L10 15L15 20L20 15L15 10L20 5L15 0L10 5Z" fill="#f1d2b3"/></g><g transform="translate(373.62,373.62) scale(0.3275) rotate(0)"><path d="M10 5L5 0L0 5L5 10L0 15L5 20L10 15L15 20L20 15L15 10L20 5L15 0L10 5Z" fill="#efcaa5"/></g><rect x="406.3893333333333" y="373.616" width="6.554666666666666" height="6.554666666666666" fill="#ffffff"/><g transform="translate(406.39,373.62) scale(0.16399999999999998) rotate(0)"><path d="M10 5L5 0L0 5L5 10L0 15L5 20L10 15L15 20L20 15L15 10L20 5L15 0L10 5Z" fill="#fdf8f3"/></g><g transform="translate(406.39,376.89) scale(0.16399999999999998) rotate(0)"><path d="M10 5L5 0L0 5L5 10L0 15L5 20L10 15L15 20L20 15L15 10L20 5L15 0L10 5Z" fill="#f3d8be"/></g><g transform="translate(409.67,376.89) scale(0.16399999999999998) rotate(0)"><path d="M10 5L5 0L0 5L5 10L0 15L5 20L10 15L15 20L20 15L15 10L20 5L15 0L10 5Z" fill="#f7e4d1"/></g><rect x="471.936" y="373.616" width="6.554666666666666" height="6.554666666666666" fill="#ffffff"/><g transform="translate(471.94,373.62) scale(0.16399999999999998) rotate(0)"><path d="M10 5L5 0L0 5L5 10L0 15L5 20L10 15L15 20L20 15L15 10L20 5L15 0L10 5Z" fill="#f6e2ce"/></g><g transform="translate(475.21,373.62) scale(0.16399999999999998) rotate(0)"><path d="M10 5L5 0L0 5L5 10L0 15L5 20L10 15L15 20L20 15L15 10L20 5L15 0L10 5Z" fill="#edc49c"/></g><g transform="translate(475.21,376.89) scale(0.16399999999999998) rotate(0)"><path d="M10 5L5 0L0 5L5 10L0 15L5 20L10 15L15 20L20 15L15 10L20 5L15 0L10 5Z" fill="#f5dfc9"/></g><rect x="537.4826666666667" y="373.616" width="6.554666666666666" height="6.554666666666666" fill="#ffffff"/><g transform="translate(540.76,373.62) scale(0.16399999999999998) rotate(0)"><path d="M10 5L5 0L0 5L5 10L0 15L5 20L10 15L15 20L20 15L15 10L20 5L15 0L10 5Z" fill="#eec7a1"/></g><g transform="translate(537.48,376.89) scale(0.16399999999999998) rotate(0)"><path d="M10 5L5 0L0 5L5 10L0 15L5 20L10 15L15 20L20 15L15 10L20 5L15 0L10 5Z" fill="#fdf9f4"/></g><g transform="translate(540.76,376.89) scale(0.16399999999999998) rotate(0)"><path d="M10 5L5 0L0 5L5 10L0 15L5 20L10 15L15 20L20 15L15 10L20 5L15 0L10 5Z" fill="#fcf7f1"/></g><g transform="translate(570.26,373.62) scale(0.3275) rotate(0)"><path d="M10 5L5 0L0 5L5 10L0 15L5 20L10 15L15 20L20 15L15 10L20 5L15 0L10 5Z" fill="#faefe3"/></g><g transform="translate(603.03,373.62) scale(0.3275) rotate(0)"><path d="M10 5L5 0L0 5L5 10L0 15L5 20L10 15L15 20L20 15L15 10L20 5L15 0L10 5Z" fill="#f2d5b8"/></g><g transform="translate(635.8,373.62) scale(0.3275) rotate(0)"><path d="M10 5L5 0L0 5L5 10L0 15L5 20L10 15L15 20L20 15L15 10L20 5L15 0L10 5Z" fill="#f1d1b1"/></g><rect x="668.576" y="373.616" width="6.554666666666666" height="6.554666666666666" fill="#ffffff"/><g transform="translate(668.58,373.62) scale(0.16399999999999998) rotate(0)"><path d="M10 5L5 0L0 5L5 10L0 15L5 20L10 15L15 20L20 15L15 10L20 5L15 0L10 5Z" fill="#fcf4ec"/></g><g transform="translate(671.85,373.62) scale(0.16399999999999998) rotate(0)"><path d="M10 5L5 0L0 5L5 10L0 15L5 20L10 15L15 20L20 15L15 10L20 5L15 0L10 5Z" fill="#f8e8d9"/></g><g transform="translate(668.58,376.89) scale(0.16399999999999998) rotate(0)"><path d="M10 5L5 0L0 5L5 10L0 15L5 20L10 15L15 20L20 15L15 10L20 5L15 0L10 5Z" fill="#f1d2b3"/></g><g transform="translate(671.85,376.89) scale(0.16399999999999998) rotate(0)"><path d="M10 5L5 0L0 5L5 10L0 15L5 20L10 15L15 20L20 15L15 10L20 5L15 0L10 5Z" fill="#fdf9f4"/></g><rect x="701.3493333333333" y="373.616" width="6.554666666666666" height="6.554666666666666" fill="#ffffff"/><g transform="translate(701.35,373.62) scale(0.16399999999999998) rotate(0)"><path d="M10 5L5 0L0 5L5 10L0 15L5 20L10 15L15 20L20 15L15 10L20 5L15 0L10 5Z" fill="#e9b786"/></g><g transform="translate(704.63,373.62) scale(0.16399999999999998) rotate(0)"><path d="M10 5L5 0L0 5L5 10L0 15L5 20L10 15L15 20L20 15L15 10L20 5L15 0L10 5Z" fill="#e7b17b"/></g><g transform="translate(701.35,376.89) scale(0.16399999999999998) rotate(0)"><path d="M10 5L5 0L0 5L5 10L0 15L5 20L10 15L15 20L20 15L15 10L20 5L15 0L10 5Z" fill="#f1d2b3"/></g><g transform="translate(704.63,376.89) scale(0.16399999999999998) rotate(0)"><path d="M10 5L5 0L0 5L5 10L0 15L5 20L10 15L15 20L20 15L15 10L20 5L15 0L10 5Z" fill="#f2d4b7"/></g><g transform="translate(734.12,373.62) scale(0.3275) rotate(0)"><path d="M10 5L5 0L0 5L5 10L0 15L5 20L10 15L15 20L20 15L15 10L20 5L15 0L10 5Z" fill="#f5dec7"/></g><g transform="translate(766.9,373.62) scale(0.3275) rotate(0)"><path d="M10 5L5 0L0 5L5 10L0 15L5 20L10 15L15 20L20 15L15 10L20 5L15 0L10 5Z" fill="#f0ceac"/></g><g transform="translate(799.67,373.62) scale(0.3275) rotate(0)"><path d="M10 5L5 0L0 5L5 10L0 15L5 20L10 15L15 20L20 15L15 10L20 5L15 0L10 5Z" fill="#f0cead"/></g><g transform="translate(832.44,373.62) scale(0.3275) rotate(0)"><path d="M10 5L5 0L0 5L5 10L0 15L5 20L10 15L15 20L20 15L15 10L20 5L15 0L10 5Z" fill="#fefbf8"/></g><rect x="865.216" y="373.616" width="6.554666666666666" height="6.554666666666666" fill="#ffffff"/><g transform="translate(865.22,373.62) scale(0.16399999999999998) rotate(0)"><path d="M10 5L5 0L0 5L5 10L0 15L5 20L10 15L15 20L20 15L15 10L20 5L15 0L10 5Z" fill="#e9b784"/></g><g transform="translate(868.49,373.62) scale(0.16399999999999998) rotate(0)"><path d="M10 5L5 0L0 5L5 10L0 15L5 20L10 15L15 20L20 15L15 10L20 5L15 0L10 5Z" fill="#efcca9"/></g><g transform="translate(865.22,376.89) scale(0.16399999999999998) rotate(0)"><path d="M10 5L5 0L0 5L5 10L0 15L5 20L10 15L15 20L20 15L15 10L20 5L15 0L10 5Z" fill="#f5e0ca"/></g><g transform="translate(868.49,376.89) scale(0.16399999999999998) rotate(0)"><path d="M10 5L5 0L0 5L5 10L0 15L5 20L10 15L15 20L20 15L15 10L20 5L15 0L10 5Z" fill="#f6e4d1"/></g><g transform="translate(897.99,373.62) scale(0.3275) rotate(0)"><path d="M10 5L5 0L0 5L5 10L0 15L5 20L10 15L15 20L20 15L15 10L20 5L15 0L10 5Z" fill="#ecc297"/></g><g transform="translate(930.76,373.62) scale(0.3275) rotate(0)"><path d="M10 5L5 0L0 5L5 10L0 15L5 20L10 15L15 20L20 15L15 10L20 5L15 0L10 5Z" fill="#edc49b"/></g><rect x="963.536" y="373.616" width="6.554666666666666" height="6.554666666666666" fill="#ffffff"/><g transform="translate(963.54,373.62) scale(0.16399999999999998) rotate(0)"><path d="M10 5L5 0L0 5L5 10L0 15L5 20L10 15L15 20L20 15L15 10L20 5L15 0L10 5Z" fill="#efcba7"/></g><g transform="translate(966.81,373.62) scale(0.16399999999999998) rotate(0)"><path d="M10 5L5 0L0 5L5 10L0 15L5 20L10 15L15 20L20 15L15 10L20 5L15 0L10 5Z" fill="#f5ddc6"/></g><g transform="translate(966.81,376.89) scale(0.16399999999999998) rotate(0)"><path d="M10 5L5 0L0 5L5 10L0 15L5 20L10 15L15 20L20 15L15 10L20 5L15 0L10 5Z" fill="#f4dcc4"/></g><g transform="translate(45.88,406.39) scale(0.3275) rotate(0)"><path d="M10 5L5 0L0 5L5 10L0 15L5 20L10 15L15 20L20 15L15 10L20 5L15 0L10 5Z" fill="#f3d8bd"/></g><rect x="78.656" y="406.3893333333333" width="6.554666666666666" height="6.554666666666666" fill="#ffffff"/><g transform="translate(78.66,409.67) scale(0.16399999999999998) rotate(0)"><path d="M10 5L5 0L0 5L5 10L0 15L5 20L10 15L15 20L20 15L15 10L20 5L15 0L10 5Z" fill="#e9b887"/></g><g transform="translate(81.93,409.67) scale(0.16399999999999998) rotate(0)"><path d="M10 5L5 0L0 5L5 10L0 15L5 20L10 15L15 20L20 15L15 10L20 5L15 0L10 5Z" fill="#f3d9bf"/></g><rect x="111.42933333333333" y="406.3893333333333" width="6.554666666666666" height="6.554666666666666" fill="#ffffff"/><g transform="translate(111.43,406.39) scale(0.16399999999999998) rotate(0)"><path d="M10 5L5 0L0 5L5 10L0 15L5 20L10 15L15 20L20 15L15 10L20 5L15 0L10 5Z" fill="#f9ebdd"/></g><g transform="translate(114.71,406.39) scale(0.16399999999999998) rotate(0)"><path d="M10 5L5 0L0 5L5 10L0 15L5 20L10 15L15 20L20 15L15 10L20 5L15 0L10 5Z" fill="#f8e7d7"/></g><g transform="translate(111.43,409.67) scale(0.16399999999999998) rotate(0)"><path d="M10 5L5 0L0 5L5 10L0 15L5 20L10 15L15 20L20 15L15 10L20 5L15 0L10 5Z" fill="#fbf1e7"/></g><g transform="translate(114.71,409.67) scale(0.16399999999999998) rotate(0)"><path d="M10 5L5 0L0 5L5 10L0 15L5 20L10 15L15 20L20 15L15 10L20 5L15 0L10 5Z" fill="#eec9a3"/></g><rect x="144.20266666666666" y="406.3893333333333" width="6.554666666666666" height="6.554666666666666" fill="#ffffff"/><g transform="translate(144.2,406.39) scale(0.16399999999999998) rotate(0)"><path d="M10 5L5 0L0 5L5 10L0 15L5 20L10 15L15 20L20 15L15 10L20 5L15 0L10 5Z" fill="#f1d2b3"/></g><g transform="translate(147.48,406.39) scale(0.16399999999999998) rotate(0)"><path d="M10 5L5 0L0 5L5 10L0 15L5 20L10 15L15 20L20 15L15 10L20 5L15 0L10 5Z" fill="#ecc299"/></g><g transform="translate(144.2,409.67) scale(0.16399999999999998) rotate(0)"><path d="M10 5L5 0L0 5L5 10L0 15L5 20L10 15L15 20L20 15L15 10L20 5L15 0L10 5Z" fill="#f9ede0"/></g><g transform="translate(147.48,409.67) scale(0.16399999999999998) rotate(0)"><path d="M10 5L5 0L0 5L5 10L0 15L5 20L10 15L15 20L20 15L15 10L20 5L15 0L10 5Z" fill="#fefbf8"/></g><rect x="176.976" y="406.3893333333333" width="6.554666666666666" height="6.554666666666666" fill="#ffffff"/><g transform="translate(176.98,406.39) scale(0.16399999999999998) rotate(0)"><path d="M10 5L5 0L0 5L5 10L0 15L5 20L10 15L15 20L20 15L15 10L20 5L15 0L10 5Z" fill="#f7e5d3"/></g><g transform="translate(180.25,406.39) scale(0.16399999999999998) rotate(0)"><path d="M10 5L5 0L0 5L5 10L0 15L5 20L10 15L15 20L20 15L15 10L20 5L15 0L10 5Z" fill="#ecc399"/></g><g transform="translate(176.98,409.67) scale(0.16399999999999998) rotate(0)"><path d="M10 5L5 0L0 5L5 10L0 15L5 20L10 15L15 20L20 15L15 10L20 5L15 0L10 5Z" fill="#e5ac73"/></g><g transform="translate(180.25,409.67) scale(0.16399999999999998) rotate(0)"><path d="M10 5L5 0L0 5L5 10L0 15L5 20L10 15L15 20L20 15L15 10L20 5L15 0L10 5Z" fill="#f8e8d8"/></g><rect x="209.7493333333333" y="406.3893333333333" width="6.554666666666666" height="6.554666666666666" fill="#ffffff"/><g transform="translate(209.75,406.39) scale(0.16399999999999998) rotate(0)"><path d="M10 5L5 0L0 5L5 10L0 15L5 20L10 15L15 20L20 15L15 10L20 5L15 0L10 5Z" fill="#f6e2cf"/></g><g transform="translate(213.03,406.39) scale(0.16399999999999998) rotate(0)"><path d="M10 5L5 0L0 5L5 10L0 15L5 20L10 15L15 20L20 15L15 10L20 5L15 0L10 5Z" fill="#ebbe90"/></g><g transform="translate(209.75,409.67) scale(0.16399999999999998) rotate(0)"><path d="M10 5L5 0L0 5L5 10L0 15L5 20L10 15L15 20L20 15L15 10L20 5L15 0L10 5Z" fill="#f8e7d6"/></g><g transform="translate(213.03,409.67) scale(0.16399999999999998) rotate(0)"><path d="M10 5L5 0L0 5L5 10L0 15L5 20L10 15L15 20L20 15L15 10L20 5L15 0L10 5Z" fill="#fefbf8"/></g><rect x="242.52266666666665" y="406.3893333333333" width="6.554666666666666" height="6.554666666666666" fill="#ffffff"/><g transform="translate(242.52,406.39) scale(0.16399999999999998) rotate(0)"><path d="M10 5L5 0L0 5L5 10L0 15L5 20L10 15L15 20L20 15L15 10L20 5L15 0L10 5Z" fill="#f7e5d3"/></g><g transform="translate(245.8,406.39) scale(0.16399999999999998) rotate(0)"><path d="M10 5L5 0L0 5L5 10L0 15L5 20L10 15L15 20L20 15L15 10L20 5L15 0L10 5Z" fill="#f5dec7"/></g><g transform="translate(242.52,409.67) scale(0.16399999999999998) rotate(0)"><path d="M10 5L5 0L0 5L5 10L0 15L5 20L10 15L15 20L20 15L15 10L20 5L15 0L10 5Z" fill="#edc69f"/></g><g transform="translate(245.8,409.67) scale(0.16399999999999998) rotate(0)"><path d="M10 5L5 0L0 5L5 10L0 15L5 20L10 15L15 20L20 15L15 10L20 5L15 0L10 5Z" fill="#e8b582"/></g><g transform="translate(275.3,406.39) scale(0.3275) rotate(0)"><path d="M10 5L5 0L0 5L5 10L0 15L5 20L10 15L15 20L20 15L15 10L20 5L15 0L10 5Z" fill="#e7b17b"/></g><rect x="308.0693333333333" y="406.3893333333333" width="6.554666666666666" height="6.554666666666666" fill="#ffffff"/><g transform="translate(308.07,406.39) scale(0.16399999999999998) rotate(0)"><path d="M10 5L5 0L0 5L5 10L0 15L5 20L10 15L15 20L20 15L15 10L20 5L15 0L10 5Z" fill="#efcdaa"/></g><g transform="translate(311.35,406.39) scale(0.16399999999999998) rotate(0)"><path d="M10 5L5 0L0 5L5 10L0 15L5 20L10 15L15 20L20 15L15 10L20 5L15 0L10 5Z" fill="#f7e5d3"/></g><g transform="translate(308.07,409.67) scale(0.16399999999999998) rotate(0)"><path d="M10 5L5 0L0 5L5 10L0 15L5 20L10 15L15 20L20 15L15 10L20 5L15 0L10 5Z" fill="#ffffff"/></g><g transform="translate(311.35,409.67) scale(0.16399999999999998) rotate(0)"><path d="M10 5L5 0L0 5L5 10L0 15L5 20L10 15L15 20L20 15L15 10L20 5L15 0L10 5Z" fill="#f2d5b8"/></g><g transform="translate(340.84,406.39) scale(0.3275) rotate(0)"><path d="M10 5L5 0L0 5L5 10L0 15L5 20L10 15L15 20L20 15L15 10L20 5L15 0L10 5Z" fill="#f0ceac"/></g><rect x="373.616" y="406.3893333333333" width="6.554666666666666" height="6.554666666666666" fill="#ffffff"/><g transform="translate(373.62,406.39) scale(0.16399999999999998) rotate(0)"><path d="M10 5L5 0L0 5L5 10L0 15L5 20L10 15L15 20L20 15L15 10L20 5L15 0L10 5Z" fill="#edc59c"/></g><g transform="translate(376.89,406.39) scale(0.16399999999999998) rotate(0)"><path d="M10 5L5 0L0 5L5 10L0 15L5 20L10 15L15 20L20 15L15 10L20 5L15 0L10 5Z" fill="#f9ede0"/></g><g transform="translate(373.62,409.67) scale(0.16399999999999998) rotate(0)"><path d="M10 5L5 0L0 5L5 10L0 15L5 20L10 15L15 20L20 15L15 10L20 5L15 0L10 5Z" fill="#edc59c"/></g><g transform="translate(376.89,409.67) scale(0.16399999999999998) rotate(0)"><path d="M10 5L5 0L0 5L5 10L0 15L5 20L10 15L15 20L20 15L15 10L20 5L15 0L10 5Z" fill="#f8e9da"/></g><g transform="translate(406.39,406.39) scale(0.3275) rotate(0)"><path d="M10 5L5 0L0 5L5 10L0 15L5 20L10 15L15 20L20 15L15 10L20 5L15 0L10 5Z" fill="#f8e9da"/></g><rect x="439.16266666666667" y="406.3893333333333" width="6.554666666666666" height="6.554666666666666" fill="#ffffff"/><g transform="translate(439.16,406.39) scale(0.16399999999999998) rotate(0)"><path d="M10 5L5 0L0 5L5 10L0 15L5 20L10 15L15 20L20 15L15 10L20 5L15 0L10 5Z" fill="#faefe3"/></g><g transform="translate(439.16,409.67) scale(0.16399999999999998) rotate(0)"><path d="M10 5L5 0L0 5L5 10L0 15L5 20L10 15L15 20L20 15L15 10L20 5L15 0L10 5Z" fill="#f4dbc3"/></g><g transform="translate(442.44,409.67) scale(0.16399999999999998) rotate(0)"><path d="M10 5L5 0L0 5L5 10L0 15L5 20L10 15L15 20L20 15L15 10L20 5L15 0L10 5Z" fill="#f6e2ce"/></g><g transform="translate(471.94,406.39) scale(0.3275) rotate(0)"><path d="M10 5L5 0L0 5L5 10L0 15L5 20L10 15L15 20L20 15L15 10L20 5L15 0L10 5Z" fill="#f8e7d6"/></g><g transform="translate(504.71,406.39) scale(0.3275) rotate(0)"><path d="M10 5L5 0L0 5L5 10L0 15L5 20L10 15L15 20L20 15L15 10L20 5L15 0L10 5Z" fill="#f8e9da"/></g><g transform="translate(537.48,406.39) scale(0.3275) rotate(0)"><path d="M10 5L5 0L0 5L5 10L0 15L5 20L10 15L15 20L20 15L15 10L20 5L15 0L10 5Z" fill="#efcba7"/></g><g transform="translate(570.26,406.39) scale(0.3275) rotate(0)"><path d="M10 5L5 0L0 5L5 10L0 15L5 20L10 15L15 20L20 15L15 10L20 5L15 0L10 5Z" fill="#fdfaf6"/></g><g transform="translate(603.03,406.39) scale(0.3275) rotate(0)"><path d="M10 5L5 0L0 5L5 10L0 15L5 20L10 15L15 20L20 15L15 10L20 5L15 0L10 5Z" fill="#ecc298"/></g><rect x="635.8026666666667" y="406.3893333333333" width="6.554666666666666" height="6.554666666666666" fill="#ffffff"/><g transform="translate(635.8,406.39) scale(0.16399999999999998) rotate(0)"><path d="M10 5L5 0L0 5L5 10L0 15L5 20L10 15L15 20L20 15L15 10L20 5L15 0L10 5Z" fill="#ebbf93"/></g><g transform="translate(639.08,406.39) scale(0.16399999999999998) rotate(0)"><path d="M10 5L5 0L0 5L5 10L0 15L5 20L10 15L15 20L20 15L15 10L20 5L15 0L10 5Z" fill="#f8e9d9"/></g><g transform="translate(635.8,409.67) scale(0.16399999999999998) rotate(0)"><path d="M10 5L5 0L0 5L5 10L0 15L5 20L10 15L15 20L20 15L15 10L20 5L15 0L10 5Z" fill="#fffefd"/></g><g transform="translate(639.08,409.67) scale(0.16399999999999998) rotate(0)"><path d="M10 5L5 0L0 5L5 10L0 15L5 20L10 15L15 20L20 15L15 10L20 5L15 0L10 5Z" fill="#edc49b"/></g><g transform="translate(734.12,406.39) scale(0.3275) rotate(0)"><path d="M10 5L5 0L0 5L5 10L0 15L5 20L10 15L15 20L20 15L15 10L20 5L15 0L10 5Z" fill="#f9ede1"/></g><g transform="translate(766.9,406.39) scale(0.3275) rotate(0)"><path d="M10 5L5 0L0 5L5 10L0 15L5 20L10 15L15 20L20 15L15 10L20 5L15 0L10 5Z" fill="#e7b27c"/></g><rect x="799.6693333333333" y="406.3893333333333" width="6.554666666666666" height="6.554666666666666" fill="#ffffff"/><g transform="translate(799.67,406.39) scale(0.16399999999999998) rotate(0)"><path d="M10 5L5 0L0 5L5 10L0 15L5 20L10 15L15 20L20 15L15 10L20 5L15 0L10 5Z" fill="#f1d1b2"/></g><g transform="translate(802.95,406.39) scale(0.16399999999999998) rotate(0)"><path d="M10 5L5 0L0 5L5 10L0 15L5 20L10 15L15 20L20 15L15 10L20 5L15 0L10 5Z" fill="#fcf5ee"/></g><g transform="translate(799.67,409.67) scale(0.16399999999999998) rotate(0)"><path d="M10 5L5 0L0 5L5 10L0 15L5 20L10 15L15 20L20 15L15 10L20 5L15 0L10 5Z" fill="#eecaa5"/></g><g transform="translate(802.95,409.67) scale(0.16399999999999998) rotate(0)"><path d="M10 5L5 0L0 5L5 10L0 15L5 20L10 15L15 20L20 15L15 10L20 5L15 0L10 5Z" fill="#f2d5b8"/></g><g transform="translate(832.44,406.39) scale(0.3275) rotate(0)"><path d="M10 5L5 0L0 5L5 10L0 15L5 20L10 15L15 20L20 15L15 10L20 5L15 0L10 5Z" fill="#f0cfaf"/></g><g transform="translate(865.22,406.39) scale(0.3275) rotate(0)"><path d="M10 5L5 0L0 5L5 10L0 15L5 20L10 15L15 20L20 15L15 10L20 5L15 0L10 5Z" fill="#efcca9"/></g><rect x="897.9893333333333" y="406.3893333333333" width="6.554666666666666" height="6.554666666666666" fill="#ffffff"/><g transform="translate(897.99,406.39) scale(0.16399999999999998) rotate(0)"><path d="M10 5L5 0L0 5L5 10L0 15L5 20L10 15L15 20L20 15L15 10L20 5L15 0L10 5Z" fill="#f3d8be"/></g><g transform="translate(901.27,406.39) scale(0.16399999999999998) rotate(0)"><path d="M10 5L5 0L0 5L5 10L0 15L5 20L10 15L15 20L20 15L15 10L20 5L15 0L10 5Z" fill="#eec8a3"/></g><g transform="translate(897.99,409.67) scale(0.16399999999999998) rotate(0)"><path d="M10 5L5 0L0 5L5 10L0 15L5 20L10 15L15 20L20 15L15 10L20 5L15 0L10 5Z" fill="#ecc39a"/></g><g transform="translate(901.27,409.67) scale(0.16399999999999998) rotate(0)"><path d="M10 5L5 0L0 5L5 10L0 15L5 20L10 15L15 20L20 15L15 10L20 5L15 0L10 5Z" fill="#f1d1b2"/></g><g transform="translate(930.76,406.39) scale(0.3275) rotate(0)"><path d="M10 5L5 0L0 5L5 10L0 15L5 20L10 15L15 20L20 15L15 10L20 5L15 0L10 5Z" fill="#f3d8bd"/></g><rect x="963.536" y="406.3893333333333" width="6.554666666666666" height="6.554666666666666" fill="#ffffff"/><g transform="translate(963.54,406.39) scale(0.16399999999999998) rotate(0)"><path d="M10 5L5 0L0 5L5 10L0 15L5 20L10 15L15 20L20 15L15 10L20 5L15 0L10 5Z" fill="#e9b786"/></g><g transform="translate(966.81,406.39) scale(0.16399999999999998) rotate(0)"><path d="M10 5L5 0L0 5L5 10L0 15L5 20L10 15L15 20L20 15L15 10L20 5L15 0L10 5Z" fill="#f1d4b6"/></g><g transform="translate(963.54,409.67) scale(0.16399999999999998) rotate(0)"><path d="M10 5L5 0L0 5L5 10L0 15L5 20L10 15L15 20L20 15L15 10L20 5L15 0L10 5Z" fill="#f9ece0"/></g><g transform="translate(966.81,409.67) scale(0.16399999999999998) rotate(0)"><path d="M10 5L5 0L0 5L5 10L0 15L5 20L10 15L15 20L20 15L15 10L20 5L15 0L10 5Z" fill="#f8eadb"/></g><rect x="13.109333333333334" y="439.16266666666667" width="6.554666666666666" height="6.554666666666666" fill="#ffffff"/><g transform="translate(13.11,439.16) scale(0.16399999999999998) rotate(0)"><path d="M10 5L5 0L0 5L5 10L0 15L5 20L10 15L15 20L20 15L15 10L20 5L15 0L10 5Z" fill="#fbf2e8"/></g><g transform="translate(16.39,439.16) scale(0.16399999999999998) rotate(0)"><path d="M10 5L5 0L0 5L5 10L0 15L5 20L10 15L15 20L20 15L15 10L20 5L15 0L10 5Z" fill="#fefdfb"/></g><g transform="translate(13.11,442.44) scale(0.16399999999999998) rotate(0)"><path d="M10 5L5 0L0 5L5 10L0 15L5 20L10 15L15 20L20 15L15 10L20 5L15 0L10 5Z" fill="#fdf7f2"/></g><g transform="translate(16.39,442.44) scale(0.16399999999999998) rotate(0)"><path d="M10 5L5 0L0 5L5 10L0 15L5 20L10 15L15 20L20 15L15 10L20 5L15 0L10 5Z" fill="#f8eadb"/></g><g transform="translate(45.88,439.16) scale(0.3275) rotate(0)"><path d="M10 5L5 0L0 5L5 10L0 15L5 20L10 15L15 20L20 15L15 10L20 5L15 0L10 5Z" fill="#ecc196"/></g><g transform="translate(78.66,439.16) scale(0.3275) rotate(0)"><path d="M10 5L5 0L0 5L5 10L0 15L5 20L10 15L15 20L20 15L15 10L20 5L15 0L10 5Z" fill="#f5dec7"/></g><rect x="111.42933333333333" y="439.16266666666667" width="6.554666666666666" height="6.554666666666666" fill="#ffffff"/><g transform="translate(111.43,439.16) scale(0.16399999999999998) rotate(0)"><path d="M10 5L5 0L0 5L5 10L0 15L5 20L10 15L15 20L20 15L15 10L20 5L15 0L10 5Z" fill="#f9ebdd"/></g><g transform="translate(114.71,439.16) scale(0.16399999999999998) rotate(0)"><path d="M10 5L5 0L0 5L5 10L0 15L5 20L10 15L15 20L20 15L15 10L20 5L15 0L10 5Z" fill="#efcdab"/></g><g transform="translate(111.43,442.44) scale(0.16399999999999998) rotate(0)"><path d="M10 5L5 0L0 5L5 10L0 15L5 20L10 15L15 20L20 15L15 10L20 5L15 0L10 5Z" fill="#ecc298"/></g><g transform="translate(114.71,442.44) scale(0.16399999999999998) rotate(0)"><path d="M10 5L5 0L0 5L5 10L0 15L5 20L10 15L15 20L20 15L15 10L20 5L15 0L10 5Z" fill="#efcba7"/></g><g transform="translate(144.2,439.16) scale(0.3275) rotate(0)"><path d="M10 5L5 0L0 5L5 10L0 15L5 20L10 15L15 20L20 15L15 10L20 5L15 0L10 5Z" fill="#f2d5b7"/></g><rect x="176.976" y="439.16266666666667" width="6.554666666666666" height="6.554666666666666" fill="#ffffff"/><g transform="translate(176.98,439.16) scale(0.16399999999999998) rotate(0)"><path d="M10 5L5 0L0 5L5 10L0 15L5 20L10 15L15 20L20 15L15 10L20 5L15 0L10 5Z" fill="#f4dcc4"/></g><g transform="translate(180.25,439.16) scale(0.16399999999999998) rotate(0)"><path d="M10 5L5 0L0 5L5 10L0 15L5 20L10 15L15 20L20 15L15 10L20 5L15 0L10 5Z" fill="#f7e6d5"/></g><g transform="translate(176.98,442.44) scale(0.16399999999999998) rotate(0)"><path d="M10 5L5 0L0 5L5 10L0 15L5 20L10 15L15 20L20 15L15 10L20 5L15 0L10 5Z" fill="#e8b37f"/></g><g transform="translate(180.25,442.44) scale(0.16399999999999998) rotate(0)"><path d="M10 5L5 0L0 5L5 10L0 15L5 20L10 15L15 20L20 15L15 10L20 5L15 0L10 5Z" fill="#f9ebdd"/></g><rect x="209.7493333333333" y="439.16266666666667" width="6.554666666666666" height="6.554666666666666" fill="#ffffff"/><g transform="translate(209.75,439.16) scale(0.16399999999999998) rotate(0)"><path d="M10 5L5 0L0 5L5 10L0 15L5 20L10 15L15 20L20 15L15 10L20 5L15 0L10 5Z" fill="#f4dac1"/></g><g transform="translate(213.03,439.16) scale(0.16399999999999998) rotate(0)"><path d="M10 5L5 0L0 5L5 10L0 15L5 20L10 15L15 20L20 15L15 10L20 5L15 0L10 5Z" fill="#efcaa5"/></g><g transform="translate(209.75,442.44) scale(0.16399999999999998) rotate(0)"><path d="M10 5L5 0L0 5L5 10L0 15L5 20L10 15L15 20L20 15L15 10L20 5L15 0L10 5Z" fill="#fbf1e8"/></g><g transform="translate(213.03,442.44) scale(0.16399999999999998) rotate(0)"><path d="M10 5L5 0L0 5L5 10L0 15L5 20L10 15L15 20L20 15L15 10L20 5L15 0L10 5Z" fill="#edc59d"/></g><rect x="242.52266666666665" y="439.16266666666667" width="6.554666666666666" height="6.554666666666666" fill="#ffffff"/><g transform="translate(242.52,439.16) scale(0.16399999999999998) rotate(0)"><path d="M10 5L5 0L0 5L5 10L0 15L5 20L10 15L15 20L20 15L15 10L20 5L15 0L10 5Z" fill="#fcf5ef"/></g><g transform="translate(245.8,439.16) scale(0.16399999999999998) rotate(0)"><path d="M10 5L5 0L0 5L5 10L0 15L5 20L10 15L15 20L20 15L15 10L20 5L15 0L10 5Z" fill="#fdf9f6"/></g><g transform="translate(242.52,442.44) scale(0.16399999999999998) rotate(0)"><path d="M10 5L5 0L0 5L5 10L0 15L5 20L10 15L15 20L20 15L15 10L20 5L15 0L10 5Z" fill="#fffefe"/></g><g transform="translate(245.8,442.44) scale(0.16399999999999998) rotate(0)"><path d="M10 5L5 0L0 5L5 10L0 15L5 20L10 15L15 20L20 15L15 10L20 5L15 0L10 5Z" fill="#fffefd"/></g><g transform="translate(275.3,439.16) scale(0.3275) rotate(0)"><path d="M10 5L5 0L0 5L5 10L0 15L5 20L10 15L15 20L20 15L15 10L20 5L15 0L10 5Z" fill="#f9ebde"/></g><rect x="308.0693333333333" y="439.16266666666667" width="6.554666666666666" height="6.554666666666666" fill="#ffffff"/><g transform="translate(308.07,439.16) scale(0.16399999999999998) rotate(0)"><path d="M10 5L5 0L0 5L5 10L0 15L5 20L10 15L15 20L20 15L15 10L20 5L15 0L10 5Z" fill="#fbf1e8"/></g><g transform="translate(311.35,439.16) scale(0.16399999999999998) rotate(0)"><path d="M10 5L5 0L0 5L5 10L0 15L5 20L10 15L15 20L20 15L15 10L20 5L15 0L10 5Z" fill="#fbf2e9"/></g><g transform="translate(308.07,442.44) scale(0.16399999999999998) rotate(0)"><path d="M10 5L5 0L0 5L5 10L0 15L5 20L10 15L15 20L20 15L15 10L20 5L15 0L10 5Z" fill="#fffefd"/></g><g transform="translate(311.35,442.44) scale(0.16399999999999998) rotate(0)"><path d="M10 5L5 0L0 5L5 10L0 15L5 20L10 15L15 20L20 15L15 10L20 5L15 0L10 5Z" fill="#fdf8f3"/></g><g transform="translate(340.84,439.16) scale(0.3275) rotate(0)"><path d="M10 5L5 0L0 5L5 10L0 15L5 20L10 15L15 20L20 15L15 10L20 5L15 0L10 5Z" fill="#e9ba8a"/></g><rect x="373.616" y="439.16266666666667" width="6.554666666666666" height="6.554666666666666" fill="#ffffff"/><g transform="translate(373.62,439.16) scale(0.16399999999999998) rotate(0)"><path d="M10 5L5 0L0 5L5 10L0 15L5 20L10 15L15 20L20 15L15 10L20 5L15 0L10 5Z" fill="#f0cfad"/></g><g transform="translate(376.89,439.16) scale(0.16399999999999998) rotate(0)"><path d="M10 5L5 0L0 5L5 10L0 15L5 20L10 15L15 20L20 15L15 10L20 5L15 0L10 5Z" fill="#e8b37f"/></g><g transform="translate(373.62,442.44) scale(0.16399999999999998) rotate(0)"><path d="M10 5L5 0L0 5L5 10L0 15L5 20L10 15L15 20L20 15L15 10L20 5L15 0L10 5Z" fill="#e8b683"/></g><g transform="translate(376.89,442.44) scale(0.16399999999999998) rotate(0)"><path d="M10 5L5 0L0 5L5 10L0 15L5 20L10 15L15 20L20 15L15 10L20 5L15 0L10 5Z" fill="#fbf1e7"/></g><rect x="406.3893333333333" y="439.16266666666667" width="6.554666666666666" height="6.554666666666666" fill="#ffffff"/><g transform="translate(406.39,439.16) scale(0.16399999999999998) rotate(0)"><path d="M10 5L5 0L0 5L5 10L0 15L5 20L10 15L15 20L20 15L15 10L20 5L15 0L10 5Z" fill="#f1d2b3"/></g><g transform="translate(409.67,439.16) scale(0.16399999999999998) rotate(0)"><path d="M10 5L5 0L0 5L5 10L0 15L5 20L10 15L15 20L20 15L15 10L20 5L15 0L10 5Z" fill="#efcca9"/></g><g transform="translate(406.39,442.44) scale(0.16399999999999998) rotate(0)"><path d="M10 5L5 0L0 5L5 10L0 15L5 20L10 15L15 20L20 15L15 10L20 5L15 0L10 5Z" fill="#e8b582"/></g><g transform="translate(409.67,442.44) scale(0.16399999999999998) rotate(0)"><path d="M10 5L5 0L0 5L5 10L0 15L5 20L10 15L15 20L20 15L15 10L20 5L15 0L10 5Z" fill="#f4ddc5"/></g><g transform="translate(439.16,439.16) scale(0.3275) rotate(0)"><path d="M10 5L5 0L0 5L5 10L0 15L5 20L10 15L15 20L20 15L15 10L20 5L15 0L10 5Z" fill="#f8eadc"/></g><rect x="471.936" y="439.16266666666667" width="6.554666666666666" height="6.554666666666666" fill="#ffffff"/><g transform="translate(471.94,439.16) scale(0.16399999999999998) rotate(0)"><path d="M10 5L5 0L0 5L5 10L0 15L5 20L10 15L15 20L20 15L15 10L20 5L15 0L10 5Z" fill="#fffffe"/></g><g transform="translate(475.21,439.16) scale(0.16399999999999998) rotate(0)"><path d="M10 5L5 0L0 5L5 10L0 15L5 20L10 15L15 20L20 15L15 10L20 5L15 0L10 5Z" fill="#fdf7f2"/></g><g transform="translate(471.94,442.44) scale(0.16399999999999998) rotate(0)"><path d="M10 5L5 0L0 5L5 10L0 15L5 20L10 15L15 20L20 15L15 10L20 5L15 0L10 5Z" fill="#f3d9bf"/></g><g transform="translate(475.21,442.44) scale(0.16399999999999998) rotate(0)"><path d="M10 5L5 0L0 5L5 10L0 15L5 20L10 15L15 20L20 15L15 10L20 5L15 0L10 5Z" fill="#eecaa5"/></g><rect x="504.70933333333335" y="439.16266666666667" width="6.554666666666666" height="6.554666666666666" fill="#ffffff"/><g transform="translate(504.71,439.16) scale(0.16399999999999998) rotate(0)"><path d="M10 5L5 0L0 5L5 10L0 15L5 20L10 15L15 20L20 15L15 10L20 5L15 0L10 5Z" fill="#f1d2b3"/></g><g transform="translate(507.99,439.16) scale(0.16399999999999998) rotate(0)"><path d="M10 5L5 0L0 5L5 10L0 15L5 20L10 15L15 20L20 15L15 10L20 5L15 0L10 5Z" fill="#efcca8"/></g><g transform="translate(504.71,442.44) scale(0.16399999999999998) rotate(0)"><path d="M10 5L5 0L0 5L5 10L0 15L5 20L10 15L15 20L20 15L15 10L20 5L15 0L10 5Z" fill="#f2d6ba"/></g><g transform="translate(507.99,442.44) scale(0.16399999999999998) rotate(0)"><path d="M10 5L5 0L0 5L5 10L0 15L5 20L10 15L15 20L20 15L15 10L20 5L15 0L10 5Z" fill="#f1d2b3"/></g><g transform="translate(537.48,439.16) scale(0.3275) rotate(0)"><path d="M10 5L5 0L0 5L5 10L0 15L5 20L10 15L15 20L20 15L15 10L20 5L15 0L10 5Z" fill="#f6e3d0"/></g><rect x="570.256" y="439.16266666666667" width="6.554666666666666" height="6.554666666666666" fill="#ffffff"/><g transform="translate(570.26,439.16) scale(0.16399999999999998) rotate(0)"><path d="M10 5L5 0L0 5L5 10L0 15L5 20L10 15L15 20L20 15L15 10L20 5L15 0L10 5Z" fill="#f1d3b5"/></g><g transform="translate(573.53,439.16) scale(0.16399999999999998) rotate(0)"><path d="M10 5L5 0L0 5L5 10L0 15L5 20L10 15L15 20L20 15L15 10L20 5L15 0L10 5Z" fill="#f8e9da"/></g><g transform="translate(570.26,442.44) scale(0.16399999999999998) rotate(0)"><path d="M10 5L5 0L0 5L5 10L0 15L5 20L10 15L15 20L20 15L15 10L20 5L15 0L10 5Z" fill="#f4dac1"/></g><g transform="translate(573.53,442.44) scale(0.16399999999999998) rotate(0)"><path d="M10 5L5 0L0 5L5 10L0 15L5 20L10 15L15 20L20 15L15 10L20 5L15 0L10 5Z" fill="#ebc094"/></g><rect x="603.0293333333333" y="439.16266666666667" width="6.554666666666666" height="6.554666666666666" fill="#ffffff"/><g transform="translate(603.03,439.16) scale(0.16399999999999998) rotate(0)"><path d="M10 5L5 0L0 5L5 10L0 15L5 20L10 15L15 20L20 15L15 10L20 5L15 0L10 5Z" fill="#fffefd"/></g><g transform="translate(606.31,439.16) scale(0.16399999999999998) rotate(0)"><path d="M10 5L5 0L0 5L5 10L0 15L5 20L10 15L15 20L20 15L15 10L20 5L15 0L10 5Z" fill="#faefe3"/></g><g transform="translate(603.03,442.44) scale(0.16399999999999998) rotate(0)"><path d="M10 5L5 0L0 5L5 10L0 15L5 20L10 15L15 20L20 15L15 10L20 5L15 0L10 5Z" fill="#efcba7"/></g><g transform="translate(606.31,442.44) scale(0.16399999999999998) rotate(0)"><path d="M10 5L5 0L0 5L5 10L0 15L5 20L10 15L15 20L20 15L15 10L20 5L15 0L10 5Z" fill="#f9ebdd"/></g><rect x="635.8026666666667" y="439.16266666666667" width="6.554666666666666" height="6.554666666666666" fill="#ffffff"/><g transform="translate(635.8,439.16) scale(0.16399999999999998) rotate(0)"><path d="M10 5L5 0L0 5L5 10L0 15L5 20L10 15L15 20L20 15L15 10L20 5L15 0L10 5Z" fill="#ecc297"/></g><g transform="translate(639.08,439.16) scale(0.16399999999999998) rotate(0)"><path d="M10 5L5 0L0 5L5 10L0 15L5 20L10 15L15 20L20 15L15 10L20 5L15 0L10 5Z" fill="#f9ecdf"/></g><g transform="translate(635.8,442.44) scale(0.16399999999999998) rotate(0)"><path d="M10 5L5 0L0 5L5 10L0 15L5 20L10 15L15 20L20 15L15 10L20 5L15 0L10 5Z" fill="#eec9a4"/></g><g transform="translate(639.08,442.44) scale(0.16399999999999998) rotate(0)"><path d="M10 5L5 0L0 5L5 10L0 15L5 20L10 15L15 20L20 15L15 10L20 5L15 0L10 5Z" fill="#eec8a3"/></g><rect x="668.576" y="439.16266666666667" width="6.554666666666666" height="6.554666666666666" fill="#ffffff"/><g transform="translate(668.58,439.16) scale(0.16399999999999998) rotate(0)"><path d="M10 5L5 0L0 5L5 10L0 15L5 20L10 15L15 20L20 15L15 10L20 5L15 0L10 5Z" fill="#f6e1cc"/></g><g transform="translate(671.85,439.16) scale(0.16399999999999998) rotate(0)"><path d="M10 5L5 0L0 5L5 10L0 15L5 20L10 15L15 20L20 15L15 10L20 5L15 0L10 5Z" fill="#e7b27c"/></g><g transform="translate(668.58,442.44) scale(0.16399999999999998) rotate(0)"><path d="M10 5L5 0L0 5L5 10L0 15L5 20L10 15L15 20L20 15L15 10L20 5L15 0L10 5Z" fill="#ecc197"/></g><g transform="translate(671.85,442.44) scale(0.16399999999999998) rotate(0)"><path d="M10 5L5 0L0 5L5 10L0 15L5 20L10 15L15 20L20 15L15 10L20 5L15 0L10 5Z" fill="#e8b582"/></g><g transform="translate(701.35,439.16) scale(0.3275) rotate(0)"><path d="M10 5L5 0L0 5L5 10L0 15L5 20L10 15L15 20L20 15L15 10L20 5L15 0L10 5Z" fill="#eec7a1"/></g><rect x="734.1226666666666" y="439.16266666666667" width="6.554666666666666" height="6.554666666666666" fill="#ffffff"/><g transform="translate(734.12,439.16) scale(0.16399999999999998) rotate(0)"><path d="M10 5L5 0L0 5L5 10L0 15L5 20L10 15L15 20L20 15L15 10L20 5L15 0L10 5Z" fill="#edc49c"/></g><g transform="translate(737.4,439.16) scale(0.16399999999999998) rotate(0)"><path d="M10 5L5 0L0 5L5 10L0 15L5 20L10 15L15 20L20 15L15 10L20 5L15 0L10 5Z" fill="#f8e9da"/></g><g transform="translate(734.12,442.44) scale(0.16399999999999998) rotate(0)"><path d="M10 5L5 0L0 5L5 10L0 15L5 20L10 15L15 20L20 15L15 10L20 5L15 0L10 5Z" fill="#f7e7d6"/></g><g transform="translate(737.4,442.44) scale(0.16399999999999998) rotate(0)"><path d="M10 5L5 0L0 5L5 10L0 15L5 20L10 15L15 20L20 15L15 10L20 5L15 0L10 5Z" fill="#ecc399"/></g><g transform="translate(766.9,439.16) scale(0.3275) rotate(0)"><path d="M10 5L5 0L0 5L5 10L0 15L5 20L10 15L15 20L20 15L15 10L20 5L15 0L10 5Z" fill="#f0d0af"/></g><g transform="translate(799.67,439.16) scale(0.3275) rotate(0)"><path d="M10 5L5 0L0 5L5 10L0 15L5 20L10 15L15 20L20 15L15 10L20 5L15 0L10 5Z" fill="#eec8a2"/></g><g transform="translate(832.44,439.16) scale(0.3275) rotate(0)"><path d="M10 5L5 0L0 5L5 10L0 15L5 20L10 15L15 20L20 15L15 10L20 5L15 0L10 5Z" fill="#f3d8bc"/></g><rect x="865.216" y="439.16266666666667" width="6.554666666666666" height="6.554666666666666" fill="#ffffff"/><g transform="translate(865.22,439.16) scale(0.16399999999999998) rotate(0)"><path d="M10 5L5 0L0 5L5 10L0 15L5 20L10 15L15 20L20 15L15 10L20 5L15 0L10 5Z" fill="#fbf2e8"/></g><g transform="translate(868.49,439.16) scale(0.16399999999999998) rotate(0)"><path d="M10 5L5 0L0 5L5 10L0 15L5 20L10 15L15 20L20 15L15 10L20 5L15 0L10 5Z" fill="#fbf2ea"/></g><g transform="translate(865.22,442.44) scale(0.16399999999999998) rotate(0)"><path d="M10 5L5 0L0 5L5 10L0 15L5 20L10 15L15 20L20 15L15 10L20 5L15 0L10 5Z" fill="#fffefe"/></g><g transform="translate(868.49,442.44) scale(0.16399999999999998) rotate(0)"><path d="M10 5L5 0L0 5L5 10L0 15L5 20L10 15L15 20L20 15L15 10L20 5L15 0L10 5Z" fill="#f7e6d5"/></g><rect x="897.9893333333333" y="439.16266666666667" width="6.554666666666666" height="6.554666666666666" fill="#ffffff"/><g transform="translate(897.99,439.16) scale(0.16399999999999998) rotate(0)"><path d="M10 5L5 0L0 5L5 10L0 15L5 20L10 15L15 20L20 15L15 10L20 5L15 0L10 5Z" fill="#fdf8f4"/></g><g transform="translate(901.27,439.16) scale(0.16399999999999998) rotate(0)"><path d="M10 5L5 0L0 5L5 10L0 15L5 20L10 15L15 20L20 15L15 10L20 5L15 0L10 5Z" fill="#edc59d"/></g><g transform="translate(897.99,442.44) scale(0.16399999999999998) rotate(0)"><path d="M10 5L5 0L0 5L5 10L0 15L5 20L10 15L15 20L20 15L15 10L20 5L15 0L10 5Z" fill="#fcf5ee"/></g><g transform="translate(901.27,442.44) scale(0.16399999999999998) rotate(0)"><path d="M10 5L5 0L0 5L5 10L0 15L5 20L10 15L15 20L20 15L15 10L20 5L15 0L10 5Z" fill="#f5dfc9"/></g><g transform="translate(930.76,439.16) scale(0.3275) rotate(0)"><path d="M10 5L5 0L0 5L5 10L0 15L5 20L10 15L15 20L20 15L15 10L20 5L15 0L10 5Z" fill="#f5dec7"/></g><rect x="963.536" y="439.16266666666667" width="6.554666666666666" height="6.554666666666666" fill="#ffffff"/><g transform="translate(963.54,439.16) scale(0.16399999999999998) rotate(0)"><path d="M10 5L5 0L0 5L5 10L0 15L5 20L10 15L15 20L20 15L15 10L20 5L15 0L10 5Z" fill="#e9b684"/></g><g transform="translate(966.81,439.16) scale(0.16399999999999998) rotate(0)"><path d="M10 5L5 0L0 5L5 10L0 15L5 20L10 15L15 20L20 15L15 10L20 5L15 0L10 5Z" fill="#f7e7d6"/></g><g transform="translate(963.54,442.44) scale(0.16399999999999998) rotate(0)"><path d="M10 5L5 0L0 5L5 10L0 15L5 20L10 15L15 20L20 15L15 10L20 5L15 0L10 5Z" fill="#f8e8d8"/></g><g transform="translate(966.81,442.44) scale(0.16399999999999998) rotate(0)"><path d="M10 5L5 0L0 5L5 10L0 15L5 20L10 15L15 20L20 15L15 10L20 5L15 0L10 5Z" fill="#f5e0ca"/></g><g transform="translate(13.11,471.94) scale(0.3275) rotate(0)"><path d="M10 5L5 0L0 5L5 10L0 15L5 20L10 15L15 20L20 15L15 10L20 5L15 0L10 5Z" fill="#f1d1b1"/></g><g transform="translate(45.88,471.94) scale(0.3275) rotate(0)"><path d="M10 5L5 0L0 5L5 10L0 15L5 20L10 15L15 20L20 15L15 10L20 5L15 0L10 5Z" fill="#fffefe"/></g><g transform="translate(78.66,471.94) scale(0.3275) rotate(0)"><path d="M10 5L5 0L0 5L5 10L0 15L5 20L10 15L15 20L20 15L15 10L20 5L15 0L10 5Z" fill="#fbf1e7"/></g><rect x="111.42933333333333" y="471.936" width="6.554666666666666" height="6.554666666666666" fill="#ffffff"/><g transform="translate(111.43,471.94) scale(0.16399999999999998) rotate(0)"><path d="M10 5L5 0L0 5L5 10L0 15L5 20L10 15L15 20L20 15L15 10L20 5L15 0L10 5Z" fill="#fcf5ef"/></g><g transform="translate(114.71,471.94) scale(0.16399999999999998) rotate(0)"><path d="M10 5L5 0L0 5L5 10L0 15L5 20L10 15L15 20L20 15L15 10L20 5L15 0L10 5Z" fill="#f2d6ba"/></g><g transform="translate(111.43,475.21) scale(0.16399999999999998) rotate(0)"><path d="M10 5L5 0L0 5L5 10L0 15L5 20L10 15L15 20L20 15L15 10L20 5L15 0L10 5Z" fill="#f9ecdf"/></g><g transform="translate(114.71,475.21) scale(0.16399999999999998) rotate(0)"><path d="M10 5L5 0L0 5L5 10L0 15L5 20L10 15L15 20L20 15L15 10L20 5L15 0L10 5Z" fill="#faeee1"/></g><rect x="144.20266666666666" y="471.936" width="6.554666666666666" height="6.554666666666666" fill="#ffffff"/><g transform="translate(144.2,471.94) scale(0.16399999999999998) rotate(0)"><path d="M10 5L5 0L0 5L5 10L0 15L5 20L10 15L15 20L20 15L15 10L20 5L15 0L10 5Z" fill="#f4ddc5"/></g><g transform="translate(147.48,471.94) scale(0.16399999999999998) rotate(0)"><path d="M10 5L5 0L0 5L5 10L0 15L5 20L10 15L15 20L20 15L15 10L20 5L15 0L10 5Z" fill="#edc59d"/></g><g transform="translate(144.2,475.21) scale(0.16399999999999998) rotate(0)"><path d="M10 5L5 0L0 5L5 10L0 15L5 20L10 15L15 20L20 15L15 10L20 5L15 0L10 5Z" fill="#f7e7d6"/></g><g transform="translate(147.48,475.21) scale(0.16399999999999998) rotate(0)"><path d="M10 5L5 0L0 5L5 10L0 15L5 20L10 15L15 20L20 15L15 10L20 5L15 0L10 5Z" fill="#f7e5d3"/></g><rect x="176.976" y="471.936" width="6.554666666666666" height="6.554666666666666" fill="#ffffff"/><g transform="translate(176.98,471.94) scale(0.16399999999999998) rotate(0)"><path d="M10 5L5 0L0 5L5 10L0 15L5 20L10 15L15 20L20 15L15 10L20 5L15 0L10 5Z" fill="#faf0e6"/></g><g transform="translate(180.25,471.94) scale(0.16399999999999998) rotate(0)"><path d="M10 5L5 0L0 5L5 10L0 15L5 20L10 15L15 20L20 15L15 10L20 5L15 0L10 5Z" fill="#f5dfc9"/></g><g transform="translate(176.98,475.21) scale(0.16399999999999998) rotate(0)"><path d="M10 5L5 0L0 5L5 10L0 15L5 20L10 15L15 20L20 15L15 10L20 5L15 0L10 5Z" fill="#ebbf92"/></g><g transform="translate(180.25,475.21) scale(0.16399999999999998) rotate(0)"><path d="M10 5L5 0L0 5L5 10L0 15L5 20L10 15L15 20L20 15L15 10L20 5L15 0L10 5Z" fill="#f9ecdf"/></g><g transform="translate(209.75,471.94) scale(0.3275) rotate(0)"><path d="M10 5L5 0L0 5L5 10L0 15L5 20L10 15L15 20L20 15L15 10L20 5L15 0L10 5Z" fill="#f3d8be"/></g><rect x="242.52266666666665" y="471.936" width="6.554666666666666" height="6.554666666666666" fill="#ffffff"/><g transform="translate(242.52,471.94) scale(0.16399999999999998) rotate(0)"><path d="M10 5L5 0L0 5L5 10L0 15L5 20L10 15L15 20L20 15L15 10L20 5L15 0L10 5Z" fill="#ecc39a"/></g><g transform="translate(245.8,471.94) scale(0.16399999999999998) rotate(0)"><path d="M10 5L5 0L0 5L5 10L0 15L5 20L10 15L15 20L20 15L15 10L20 5L15 0L10 5Z" fill="#eabb8b"/></g><g transform="translate(242.52,475.21) scale(0.16399999999999998) rotate(0)"><path d="M10 5L5 0L0 5L5 10L0 15L5 20L10 15L15 20L20 15L15 10L20 5L15 0L10 5Z" fill="#fdf7f1"/></g><g transform="translate(245.8,475.21) scale(0.16399999999999998) rotate(0)"><path d="M10 5L5 0L0 5L5 10L0 15L5 20L10 15L15 20L20 15L15 10L20 5L15 0L10 5Z" fill="#f7e4d1"/></g><rect x="275.296" y="471.936" width="6.554666666666666" height="6.554666666666666" fill="#ffffff"/><g transform="translate(275.3,471.94) scale(0.16399999999999998) rotate(0)"><path d="M10 5L5 0L0 5L5 10L0 15L5 20L10 15L15 20L20 15L15 10L20 5L15 0L10 5Z" fill="#f3dac0"/></g><g transform="translate(278.57,471.94) scale(0.16399999999999998) rotate(0)"><path d="M10 5L5 0L0 5L5 10L0 15L5 20L10 15L15 20L20 15L15 10L20 5L15 0L10 5Z" fill="#fdf8f4"/></g><g transform="translate(275.3,475.21) scale(0.16399999999999998) rotate(0)"><path d="M10 5L5 0L0 5L5 10L0 15L5 20L10 15L15 20L20 15L15 10L20 5L15 0L10 5Z" fill="#ecc197"/></g><g transform="translate(278.57,475.21) scale(0.16399999999999998) rotate(0)"><path d="M10 5L5 0L0 5L5 10L0 15L5 20L10 15L15 20L20 15L15 10L20 5L15 0L10 5Z" fill="#f6e2cd"/></g><g transform="translate(308.07,471.94) scale(0.3275) rotate(0)"><path d="M10 5L5 0L0 5L5 10L0 15L5 20L10 15L15 20L20 15L15 10L20 5L15 0L10 5Z" fill="#fffffe"/></g><rect x="340.8426666666667" y="471.936" width="6.554666666666666" height="6.554666666666666" fill="#ffffff"/><g transform="translate(340.84,471.94) scale(0.16399999999999998) rotate(0)"><path d="M10 5L5 0L0 5L5 10L0 15L5 20L10 15L15 20L20 15L15 10L20 5L15 0L10 5Z" fill="#eec8a3"/></g><g transform="translate(344.12,471.94) scale(0.16399999999999998) rotate(0)"><path d="M10 5L5 0L0 5L5 10L0 15L5 20L10 15L15 20L20 15L15 10L20 5L15 0L10 5Z" fill="#e9b887"/></g><g transform="translate(340.84,475.21) scale(0.16399999999999998) rotate(0)"><path d="M10 5L5 0L0 5L5 10L0 15L5 20L10 15L15 20L20 15L15 10L20 5L15 0L10 5Z" fill="#f5e0cb"/></g><g transform="translate(344.12,475.21) scale(0.16399999999999998) rotate(0)"><path d="M10 5L5 0L0 5L5 10L0 15L5 20L10 15L15 20L20 15L15 10L20 5L15 0L10 5Z" fill="#f8e8d8"/></g><rect x="373.616" y="471.936" width="6.554666666666666" height="6.554666666666666" fill="#ffffff"/><g transform="translate(373.62,471.94) scale(0.16399999999999998) rotate(0)"><path d="M10 5L5 0L0 5L5 10L0 15L5 20L10 15L15 20L20 15L15 10L20 5L15 0L10 5Z" fill="#f9ebdd"/></g><g transform="translate(376.89,471.94) scale(0.16399999999999998) rotate(0)"><path d="M10 5L5 0L0 5L5 10L0 15L5 20L10 15L15 20L20 15L15 10L20 5L15 0L10 5Z" fill="#f3dac0"/></g><g transform="translate(373.62,475.21) scale(0.16399999999999998) rotate(0)"><path d="M10 5L5 0L0 5L5 10L0 15L5 20L10 15L15 20L20 15L15 10L20 5L15 0L10 5Z" fill="#f0ceac"/></g><g transform="translate(376.89,475.21) scale(0.16399999999999998) rotate(0)"><path d="M10 5L5 0L0 5L5 10L0 15L5 20L10 15L15 20L20 15L15 10L20 5L15 0L10 5Z" fill="#f3d8bd"/></g><g transform="translate(406.39,471.94) scale(0.3275) rotate(0)"><path d="M10 5L5 0L0 5L5 10L0 15L5 20L10 15L15 20L20 15L15 10L20 5L15 0L10 5Z" fill="#fbf3ea"/></g><g transform="translate(439.16,471.94) scale(0.3275) rotate(0)"><path d="M10 5L5 0L0 5L5 10L0 15L5 20L10 15L15 20L20 15L15 10L20 5L15 0L10 5Z" fill="#e7b27d"/></g><rect x="471.936" y="471.936" width="6.554666666666666" height="6.554666666666666" fill="#ffffff"/><g transform="translate(471.94,471.94) scale(0.16399999999999998) rotate(0)"><path d="M10 5L5 0L0 5L5 10L0 15L5 20L10 15L15 20L20 15L15 10L20 5L15 0L10 5Z" fill="#fdf9f5"/></g><g transform="translate(475.21,471.94) scale(0.16399999999999998) rotate(0)"><path d="M10 5L5 0L0 5L5 10L0 15L5 20L10 15L15 20L20 15L15 10L20 5L15 0L10 5Z" fill="#f9ecdf"/></g><g transform="translate(471.94,475.21) scale(0.16399999999999998) rotate(0)"><path d="M10 5L5 0L0 5L5 10L0 15L5 20L10 15L15 20L20 15L15 10L20 5L15 0L10 5Z" fill="#ecc196"/></g><g transform="translate(475.21,475.21) scale(0.16399999999999998) rotate(0)"><path d="M10 5L5 0L0 5L5 10L0 15L5 20L10 15L15 20L20 15L15 10L20 5L15 0L10 5Z" fill="#efcca9"/></g><rect x="504.70933333333335" y="471.936" width="6.554666666666666" height="6.554666666666666" fill="#ffffff"/><g transform="translate(504.71,471.94) scale(0.16399999999999998) rotate(0)"><path d="M10 5L5 0L0 5L5 10L0 15L5 20L10 15L15 20L20 15L15 10L20 5L15 0L10 5Z" fill="#fcf6f0"/></g><g transform="translate(507.99,471.94) scale(0.16399999999999998) rotate(0)"><path d="M10 5L5 0L0 5L5 10L0 15L5 20L10 15L15 20L20 15L15 10L20 5L15 0L10 5Z" fill="#f4dbc2"/></g><g transform="translate(504.71,475.21) scale(0.16399999999999998) rotate(0)"><path d="M10 5L5 0L0 5L5 10L0 15L5 20L10 15L15 20L20 15L15 10L20 5L15 0L10 5Z" fill="#f7e5d3"/></g><g transform="translate(507.99,475.21) scale(0.16399999999999998) rotate(0)"><path d="M10 5L5 0L0 5L5 10L0 15L5 20L10 15L15 20L20 15L15 10L20 5L15 0L10 5Z" fill="#f6e2ce"/></g><g transform="translate(537.48,471.94) scale(0.3275) rotate(0)"><path d="M10 5L5 0L0 5L5 10L0 15L5 20L10 15L15 20L20 15L15 10L20 5L15 0L10 5Z" fill="#fefaf7"/></g><rect x="570.256" y="471.936" width="6.554666666666666" height="6.554666666666666" fill="#ffffff"/><g transform="translate(570.26,471.94) scale(0.16399999999999998) rotate(0)"><path d="M10 5L5 0L0 5L5 10L0 15L5 20L10 15L15 20L20 15L15 10L20 5L15 0L10 5Z" fill="#eabb8b"/></g><g transform="translate(573.53,471.94) scale(0.16399999999999998) rotate(0)"><path d="M10 5L5 0L0 5L5 10L0 15L5 20L10 15L15 20L20 15L15 10L20 5L15 0L10 5Z" fill="#efcca8"/></g><g transform="translate(570.26,475.21) scale(0.16399999999999998) rotate(0)"><path d="M10 5L5 0L0 5L5 10L0 15L5 20L10 15L15 20L20 15L15 10L20 5L15 0L10 5Z" fill="#f2d6b9"/></g><g transform="translate(573.53,475.21) scale(0.16399999999999998) rotate(0)"><path d="M10 5L5 0L0 5L5 10L0 15L5 20L10 15L15 20L20 15L15 10L20 5L15 0L10 5Z" fill="#faeee2"/></g><g transform="translate(603.03,471.94) scale(0.3275) rotate(0)"><path d="M10 5L5 0L0 5L5 10L0 15L5 20L10 15L15 20L20 15L15 10L20 5L15 0L10 5Z" fill="#e9b684"/></g><rect x="635.8026666666667" y="471.936" width="6.554666666666666" height="6.554666666666666" fill="#ffffff"/><g transform="translate(635.8,471.94) scale(0.16399999999999998) rotate(0)"><path d="M10 5L5 0L0 5L5 10L0 15L5 20L10 15L15 20L20 15L15 10L20 5L15 0L10 5Z" fill="#f6e1cd"/></g><g transform="translate(639.08,471.94) scale(0.16399999999999998) rotate(0)"><path d="M10 5L5 0L0 5L5 10L0 15L5 20L10 15L15 20L20 15L15 10L20 5L15 0L10 5Z" fill="#edc69e"/></g><g transform="translate(635.8,475.21) scale(0.16399999999999998) rotate(0)"><path d="M10 5L5 0L0 5L5 10L0 15L5 20L10 15L15 20L20 15L15 10L20 5L15 0L10 5Z" fill="#f0cfaf"/></g><g transform="translate(639.08,475.21) scale(0.16399999999999998) rotate(0)"><path d="M10 5L5 0L0 5L5 10L0 15L5 20L10 15L15 20L20 15L15 10L20 5L15 0L10 5Z" fill="#eecaa5"/></g><rect x="668.576" y="471.936" width="6.554666666666666" height="6.554666666666666" fill="#ffffff"/><g transform="translate(668.58,471.94) scale(0.16399999999999998) rotate(0)"><path d="M10 5L5 0L0 5L5 10L0 15L5 20L10 15L15 20L20 15L15 10L20 5L15 0L10 5Z" fill="#e6af78"/></g><g transform="translate(671.85,471.94) scale(0.16399999999999998) rotate(0)"><path d="M10 5L5 0L0 5L5 10L0 15L5 20L10 15L15 20L20 15L15 10L20 5L15 0L10 5Z" fill="#f1d3b4"/></g><g transform="translate(668.58,475.21) scale(0.16399999999999998) rotate(0)"><path d="M10 5L5 0L0 5L5 10L0 15L5 20L10 15L15 20L20 15L15 10L20 5L15 0L10 5Z" fill="#fbf1e7"/></g><g transform="translate(671.85,475.21) scale(0.16399999999999998) rotate(0)"><path d="M10 5L5 0L0 5L5 10L0 15L5 20L10 15L15 20L20 15L15 10L20 5L15 0L10 5Z" fill="#f0cfaf"/></g><g transform="translate(701.35,471.94) scale(0.3275) rotate(0)"><path d="M10 5L5 0L0 5L5 10L0 15L5 20L10 15L15 20L20 15L15 10L20 5L15 0L10 5Z" fill="#edc59d"/></g><g transform="translate(734.12,471.94) scale(0.3275) rotate(0)"><path d="M10 5L5 0L0 5L5 10L0 15L5 20L10 15L15 20L20 15L15 10L20 5L15 0L10 5Z" fill="#fefaf7"/></g><g transform="translate(766.9,471.94) scale(0.3275) rotate(0)"><path d="M10 5L5 0L0 5L5 10L0 15L5 20L10 15L15 20L20 15L15 10L20 5L15 0L10 5Z" fill="#f4dcc4"/></g><g transform="translate(799.67,471.94) scale(0.3275) rotate(0)"><path d="M10 5L5 0L0 5L5 10L0 15L5 20L10 15L15 20L20 15L15 10L20 5L15 0L10 5Z" fill="#f6e1cc"/></g><rect x="832.4426666666667" y="471.936" width="6.554666666666666" height="6.554666666666666" fill="#ffffff"/><g transform="translate(832.44,471.94) scale(0.16399999999999998) rotate(0)"><path d="M10 5L5 0L0 5L5 10L0 15L5 20L10 15L15 20L20 15L15 10L20 5L15 0L10 5Z" fill="#fefdfb"/></g><g transform="translate(835.72,471.94) scale(0.16399999999999998) rotate(0)"><path d="M10 5L5 0L0 5L5 10L0 15L5 20L10 15L15 20L20 15L15 10L20 5L15 0L10 5Z" fill="#f2d6ba"/></g><g transform="translate(832.44,475.21) scale(0.16399999999999998) rotate(0)"><path d="M10 5L5 0L0 5L5 10L0 15L5 20L10 15L15 20L20 15L15 10L20 5L15 0L10 5Z" fill="#fefbf9"/></g><g transform="translate(835.72,475.21) scale(0.16399999999999998) rotate(0)"><path d="M10 5L5 0L0 5L5 10L0 15L5 20L10 15L15 20L20 15L15 10L20 5L15 0L10 5Z" fill="#f3d9bf"/></g><rect x="865.216" y="471.936" width="6.554666666666666" height="6.554666666666666" fill="#ffffff"/><g transform="translate(865.22,471.94) scale(0.16399999999999998) rotate(0)"><path d="M10 5L5 0L0 5L5 10L0 15L5 20L10 15L15 20L20 15L15 10L20 5L15 0L10 5Z" fill="#fbf1e8"/></g><g transform="translate(868.49,471.94) scale(0.16399999999999998) rotate(0)"><path d="M10 5L5 0L0 5L5 10L0 15L5 20L10 15L15 20L20 15L15 10L20 5L15 0L10 5Z" fill="#fefbf8"/></g><g transform="translate(865.22,475.21) scale(0.16399999999999998) rotate(0)"><path d="M10 5L5 0L0 5L5 10L0 15L5 20L10 15L15 20L20 15L15 10L20 5L15 0L10 5Z" fill="#f5e0cb"/></g><g transform="translate(868.49,475.21) scale(0.16399999999999998) rotate(0)"><path d="M10 5L5 0L0 5L5 10L0 15L5 20L10 15L15 20L20 15L15 10L20 5L15 0L10 5Z" fill="#edc7a0"/></g><g transform="translate(897.99,471.94) scale(0.3275) rotate(0)"><path d="M10 5L5 0L0 5L5 10L0 15L5 20L10 15L15 20L20 15L15 10L20 5L15 0L10 5Z" fill="#f9ebdd"/></g><rect x="930.7626666666666" y="471.936" width="6.554666666666666" height="6.554666666666666" fill="#ffffff"/><g transform="translate(930.76,471.94) scale(0.16399999999999998) rotate(0)"><path d="M10 5L5 0L0 5L5 10L0 15L5 20L10 15L15 20L20 15L15 10L20 5L15 0L10 5Z" fill="#fcf5ee"/></g><g transform="translate(934.04,471.94) scale(0.16399999999999998) rotate(0)"><path d="M10 5L5 0L0 5L5 10L0 15L5 20L10 15L15 20L20 15L15 10L20 5L15 0L10 5Z" fill="#f4dbc2"/></g><g transform="translate(930.76,475.21) scale(0.16399999999999998) rotate(0)"><path d="M10 5L5 0L0 5L5 10L0 15L5 20L10 15L15 20L20 15L15 10L20 5L15 0L10 5Z" fill="#edc69f"/></g><g transform="translate(934.04,475.21) scale(0.16399999999999998) rotate(0)"><path d="M10 5L5 0L0 5L5 10L0 15L5 20L10 15L15 20L20 15L15 10L20 5L15 0L10 5Z" fill="#f3d8bd"/></g><rect x="963.536" y="471.936" width="6.554666666666666" height="6.554666666666666" fill="#ffffff"/><g transform="translate(963.54,471.94) scale(0.16399999999999998) rotate(0)"><path d="M10 5L5 0L0 5L5 10L0 15L5 20L10 15L15 20L20 15L15 10L20 5L15 0L10 5Z" fill="#f4dcc3"/></g><g transform="translate(966.81,471.94) scale(0.16399999999999998) rotate(0)"><path d="M10 5L5 0L0 5L5 10L0 15L5 20L10 15L15 20L20 15L15 10L20 5L15 0L10 5Z" fill="#ebbd8f"/></g><g transform="translate(963.54,475.21) scale(0.16399999999999998) rotate(0)"><path d="M10 5L5 0L0 5L5 10L0 15L5 20L10 15L15 20L20 15L15 10L20 5L15 0L10 5Z" fill="#eec8a2"/></g><g transform="translate(966.81,475.21) scale(0.16399999999999998) rotate(0)"><path d="M10 5L5 0L0 5L5 10L0 15L5 20L10 15L15 20L20 15L15 10L20 5L15 0L10 5Z" fill="#eabc8d"/></g></g></svg>