<svg xmlns="http://www.w3.org/2000/svg" version="1.1" xmlns:xlink="http://www.w3.org/1999/xlink" xmlns:svgjs="http://svgjs.dev/svgjs" viewBox="0 0 600 600"><path d="M340.9090881347656,72.12918853759766C374.10286712646484,62.70933151245117,414.32415262858075,46.710524241129555,439.5932922363281,52.39234161376953C464.8624318440755,58.07415898640951,478.16985575358075,87.23085912068684,492.52392578125,106.2200927734375C506.87799580891925,125.20932642618816,523.9234517415365,143.60047149658203,525.7177124023438,166.32774353027344C527.511973063151,189.05501556396484,513.0083923339844,209.53946685791016,503.28948974609375,242.58372497558594C493.5705871582031,275.6279830932617,480.11362711588544,333.19376881917316,467.404296875,364.5932922363281C454.69496663411456,395.9928156534831,446.62082926432294,413.0382792154948,427.03350830078125,430.9808654785156C407.44618733723956,448.92345174153644,379.4856363932292,475.8373260498047,349.88037109375,472.2488098144531C320.2751057942708,468.66029357910156,284.6889953613281,429.7846984863281,249.40191650390625,409.44976806640625C214.11483764648438,389.1148376464844,174.3421090443929,377.1531041463216,138.15789794921875,350.2392272949219C101.97368685404459,323.32535044352215,29.306219736735027,279.5155487060547,32.29664993286133,247.9665069580078C35.28708012898763,216.41746520996094,121.4114844004313,184.12081400553384,156.10047912597656,160.94497680664062C190.78947385152182,137.7691396077474,209.62918345133463,123.71411514282227,240.4306182861328,108.91148376464844C271.23205312093097,94.10885238647461,307.7153091430664,81.54904556274414,340.9090881347656,72.12918853759766C374.10286712646484,62.70933151245117,414.32415262858075,46.710524241129555,439.5932922363281,52.39234161376953" fill="hsl(30, 69%, 52%)" fill-opacity="0.44" transform="matrix(1.1001111795863157,0.4004077237528987,-0.4004077237528987,1.1001111795863157,76.92714010900431,-137.94702381750125)"></path><path d="M340.9090881347656,72.12918853759766C374.10286712646484,62.70933151245117,414.32415262858075,46.710524241129555,439.5932922363281,52.39234161376953C464.8624318440755,58.07415898640951,478.16985575358075,87.23085912068684,492.52392578125,106.2200927734375C506.87799580891925,125.20932642618816,523.9234517415365,143.60047149658203,525.7177124023438,166.32774353027344C527.511973063151,189.05501556396484,513.0083923339844,209.53946685791016,503.28948974609375,242.58372497558594C493.5705871582031,275.6279830932617,480.11362711588544,333.19376881917316,467.404296875,364.5932922363281C454.69496663411456,395.9928156534831,446.62082926432294,413.0382792154948,427.03350830078125,430.9808654785156C407.44618733723956,448.92345174153644,379.4856363932292,475.8373260498047,349.88037109375,472.2488098144531C320.2751057942708,468.66029357910156,284.6889953613281,429.7846984863281,249.40191650390625,409.44976806640625C214.11483764648438,389.1148376464844,174.3421090443929,377.1531041463216,138.15789794921875,350.2392272949219C101.97368685404459,323.32535044352215,29.306219736735027,279.5155487060547,32.29664993286133,247.9665069580078C35.28708012898763,216.41746520996094,121.4114844004313,184.12081400553384,156.10047912597656,160.94497680664062C190.78947385152182,137.7691396077474,209.62918345133463,123.71411514282227,240.4306182861328,108.91148376464844C271.23205312093097,94.10885238647461,307.7153091430664,81.54904556274414,340.9090881347656,72.12918853759766C374.10286712646484,62.70933151245117,414.32415262858075,46.710524241129555,439.5932922363281,52.39234161376953" fill-opacity="0.44" fill="hsl(30, 69%, 52%)" opacity="1" stroke-opacity="1" stroke-width="0" stroke="hsl(340, 45%, 30%)" transform="matrix(1.1489644998808608,7.344125307895412e-16,-7.344125307895412e-16,1.1489644998808608,-20.60513536580322,-0.9000681012376504)"></path></svg>